<?xml version="1.0" encoding="UTF-8" standalone="no"?>
<!-- Generator: Adobe Illustrator 21.1.0, SVG Export Plug-In . SVG Version: 6.00 Build 0)  -->

<svg
   xmlns:dc="http://purl.org/dc/elements/1.1/"
   xmlns:cc="http://creativecommons.org/ns#"
   xmlns:rdf="http://www.w3.org/1999/02/22-rdf-syntax-ns#"
   xmlns:svg="http://www.w3.org/2000/svg"
   xmlns="http://www.w3.org/2000/svg"
   xmlns:sodipodi="http://sodipodi.sourceforge.net/DTD/sodipodi-0.dtd"
   xmlns:inkscape="http://www.inkscape.org/namespaces/inkscape"
   version="1.1"
   id="Layer_1"
   x="0px"
   y="0px"
   viewBox="0 0 312 185"
   xml:space="preserve"
   inkscape:version="0.91 r13725"
   sodipodi:docname="argo-ai.svg"
   width="312"
   height="185"><metadata
     id="metadata3422"><rdf:RDF><cc:Work
         rdf:about=""><dc:format>image/svg+xml</dc:format><dc:type
           rdf:resource="http://purl.org/dc/dcmitype/StillImage" /><dc:title></dc:title></cc:Work></rdf:RDF></metadata><defs
     id="defs3420" /><sodipodi:namedview
     pagecolor="#ffffff"
     bordercolor="#666666"
     borderopacity="1"
     objecttolerance="10"
     gridtolerance="10"
     guidetolerance="10"
     inkscape:pageopacity="0"
     inkscape:pageshadow="2"
     inkscape:window-width="1916"
     inkscape:window-height="1039"
     id="namedview3418"
     showgrid="false"
     inkscape:zoom="4.0599078"
     inkscape:cx="142.32917"
     inkscape:cy="108.5"
     inkscape:window-x="0"
     inkscape:window-y="18"
     inkscape:window-maximized="0"
     inkscape:current-layer="Layer_1" /><style
     type="text/css"
     id="style3400">
	.st0{fill:#F29F53;}
	.st1{fill:#017674;}
</style><g
     id="g3402"
     transform="translate(-24,-16)"><path
       class="st0"
       d="m 168.5,103.7 c -14,0 -28.1,0 -42.1,0 -3.1,0 -4.7,1.5 -4.7,4.6 0,4.6 0,9.1 0,13.7 0,3.8 -2.3,6.1 -6.1,6.1 -4.2,0 -8.4,0 -12.6,0 -4.1,0 -6.4,-2.3 -6.4,-6.4 0,-6.8 0,-13.6 0,-20.4 0,-7.2 0,-14.3 0,-21.5 0.1,-10.9 2.9,-21.2 8.6,-30.5 6.7,-11 15.9,-19.2 27.3,-25 9.4,-4.8 19.4,-7.6 29.9,-8.2 19.2,-1.2 36.8,3.6 52.1,15.4 10.9,8.4 18.5,19.2 22.4,32.5 0.6,2.2 -0.1,3.2 -2.4,3.2 -8.2,0 -16.4,0 -24.6,0 -1.2,0 -2.1,-0.4 -2.7,-1.6 -4.4,-9.2 -11.5,-15.6 -20.8,-19.7 -6.3,-2.8 -13,-4.1 -20,-3.8 -11.3,0.4 -21.5,3.8 -30,11.6 -7.2,6.6 -11,14.8 -11.3,24.5 -0.1,2.8 1.4,4.4 4.1,4.5 0.4,0 0.8,0 1.2,0 34.8,0 69.7,0 104.5,0 0.5,0 1,0 1.4,0 2.4,0.3 3.7,1.8 3.7,4.2 0,6.2 0,12.3 0,18.5 0,5.5 0,11 0,16.4 0,3.9 -2.3,6.3 -6.3,6.3 -4.2,0 -8.5,0 -12.7,0 -3.8,0 -6.2,-2.4 -6.2,-6.2 0,-4.5 0,-9 0,-13.6 0,-3.2 -1.5,-4.6 -4.6,-4.6 -13.7,0 -27.7,0 -41.7,0 z"
       id="path3404"
       inkscape:connector-curvature="0"
       style="fill:#f29f53" /><path
       class="st1"
       d="m 61.7,188.4 c -7,0 -14,0 -21,0 -2.1,0 -2.7,0.6 -2.7,2.7 0,2.1 0,4.2 0,6.4 0,2.3 -1.1,3.4 -3.3,3.4 -2.1,0 -4.2,0 -6.4,0 -2.1,0 -3.2,-1.1 -3.2,-3.2 0,-7.4 -0.2,-14.8 0,-22.2 0.4,-11.5 6,-20.1 15.6,-26.1 14.5,-9.2 34.8,-7.7 47.5,4.5 4.1,3.9 7.1,8.6 8.6,14.2 0.4,1.3 0.1,1.7 -1.3,1.7 -4.2,0 -8.3,0 -12.5,0 -0.7,0 -1.1,-0.2 -1.4,-0.8 -3.3,-6.6 -8.7,-10.3 -15.8,-11.6 -7.5,-1.3 -14.3,0.3 -20.1,5.4 -3.6,3.2 -5.7,7.3 -5.9,12.2 -0.1,2.1 0.5,2.8 2.6,2.8 17.8,0 35.5,0 53.3,0 0.6,0 1.3,0 1.9,0.3 0.8,0.4 1,1.1 1,2 0,6 0,11.9 0,17.9 0,1.9 -1.1,3 -3.1,3.1 -2.2,0 -4.5,0 -6.7,0 -2,0 -3.1,-1.2 -3.1,-3.2 0,-2.2 0,-4.4 0,-6.6 0,-2 -0.7,-2.7 -2.6,-2.7 -7.1,-0.2 -14.2,-0.2 -21.4,-0.2 z"
       id="path3406"
       inkscape:connector-curvature="0"
       style="fill:#017674" /><path
       class="st1"
       d="m 208.3,180.2 c -3.6,0 -6.9,0 -10.3,0 -1.8,0 -2.1,-0.3 -2.1,-2.1 0,-2 0,-4.1 0,-6.1 0,-1.5 0.4,-1.9 1.9,-1.9 7.1,0 14.2,0 21.4,0 0.7,0 1.4,0 2,0 0.9,0.1 1.7,0.5 1.8,1.5 0.5,4.9 0.5,9.8 -2.1,14.3 -2.7,4.6 -6.6,7.9 -11.1,10.5 -13.4,7.7 -31.2,5.8 -42.4,-4.4 -6.6,-6.1 -9.9,-13.7 -8.8,-22.8 0.9,-7.4 4.6,-13.4 10.4,-18 7.7,-6.1 16.4,-8.4 26.1,-7.6 8.2,0.7 15.4,3.8 21.5,9.5 0.9,0.8 1.6,1.8 2.4,2.7 0.6,0.7 0.7,1.4 0.3,2.2 -0.4,0.8 -1,1.3 -2,1.3 -4.3,0 -8.6,0 -13,0 -0.6,0 -1.1,-0.2 -1.7,-0.5 -7.7,-4.5 -17.5,-3.7 -24,1.9 -8.1,7 -7.2,18.5 1.8,24.5 7.4,4.9 17.5,4.5 24.4,-1.1 1.4,-1 2.5,-2.2 3.5,-3.9 z"
       id="path3408"
       inkscape:connector-curvature="0"
       style="fill:#017674" /><path
       class="st1"
       d="m 265.8,194.5 c 0,-1 0,-2.1 0,-3.1 0,-1.7 0.7,-2.6 2.4,-3 3.8,-1 7.1,-2.8 9.8,-5.7 6.1,-6.7 5.2,-16.3 -2.1,-22.1 -7.4,-5.9 -18.9,-5.7 -26.1,0.4 -7.9,6.7 -7.4,17.8 1,24 2.5,1.9 5.3,3 8.4,3.6 1.9,0.4 2.8,1.3 2.8,3.3 0,2 0,4.1 0,6.1 0,1.9 -1.3,3.1 -3.1,2.8 -11.6,-1.5 -21,-6.6 -26.5,-17.4 -5,-9.9 -2.9,-21.6 5.1,-29.6 6.7,-6.8 15,-10 24.4,-10.3 8.4,-0.3 16.1,1.9 22.8,6.9 7.1,5.3 11.4,12.3 11.6,21.3 0.2,10.3 -4.8,17.9 -13.1,23.5 -4.1,2.8 -8.7,4.5 -13.6,5.3 -2.5,0.4 -3.8,-0.7 -3.8,-3.2 0,-0.9 0,-1.9 0,-2.8 z"
       id="path3410"
       inkscape:connector-curvature="0"
       style="fill:#017674" /><path
       class="st1"
       d="m 114.6,144.8 c 5.2,0.1 11,-0.3 16.9,0.1 4.5,0.3 8.8,1.5 12.7,3.9 9.8,6.1 8.9,17.5 3.6,23.7 -1.6,1.9 -3.5,3.4 -5.6,4.6 -0.3,0.2 -0.7,0.2 -0.1,0.7 4.4,3.5 6.8,8.3 8.2,13.6 0.6,2.5 0.8,5 0.9,7.5 0.1,1.7 -0.4,2.2 -2.1,2.2 -3.9,0 -7.8,0 -11.8,0 0,0 -0.1,0 -0.1,0 -1.2,0.1 -1.8,-0.6 -2,-1.7 -0.4,-2.9 -1,-5.7 -1.9,-8.5 -1.3,-4.1 -4.2,-6.3 -8.3,-7.1 -2.6,-0.5 -5.2,-0.3 -7.8,-0.3 -1.4,0 -2.9,0 -4.3,0 -1.3,-0.1 -2,-0.8 -2,-2.2 0,-2.6 0,-5.1 0,-7.7 0,-2 0.6,-2.7 2.6,-2.7 4.4,0 8.8,0 13.2,0 1.8,0 3.6,-0.3 5.3,-1 3.5,-1.5 5.4,-5.1 4.6,-8.8 -0.5,-2.5 -2.2,-3.8 -4.4,-4.6 -2.6,-1 -5.4,-1.2 -8.1,-1.2 -6.9,0 -13.8,0 -20.8,0 -0.9,0 -1.5,-0.2 -2.1,-0.8 -2.3,-2.2 -4.5,-4.6 -6.5,-7.1 -0.4,-0.5 -0.9,-1.1 -0.5,-1.8 0.4,-0.7 1.1,-0.7 1.8,-0.7 6,-0.1 12,-0.1 18.6,-0.1 z"
       id="path3412"
       inkscape:connector-curvature="0"
       style="fill:#017674" /><path
       class="st0"
       d="m 316.3,177.8 c -1.4,0 -2.9,0 -4.3,0 -0.7,0 -1,0.3 -1,1 0,0.2 0,0.5 0,0.7 0,1.5 -0.5,1.9 -2,1.9 -1.5,0 -2,-0.4 -2,-1.9 0,-2 -0.2,-4 0,-6 0.5,-4.4 3.2,-7.1 7.3,-8.4 4.4,-1.4 9.6,0 12.2,3.4 1.2,1.6 1.9,3.3 1.9,5.3 0.1,2 0,4 0,6 0,1.3 -0.3,1.6 -1.6,1.6 -0.4,0 -0.7,0 -1.1,0 -1,0 -1.5,-0.6 -1.5,-1.6 0,-1.8 0,-3.6 0,-5.4 0,-2.9 -2.4,-5.4 -5.3,-5.8 -3.6,-0.4 -6.6,1.4 -7.3,4.4 -0.3,1.3 -0.1,1.6 1.3,1.6 2.6,0 5.1,0 7.7,0 0.8,0 1.2,0.3 1.1,1.1 0,0.3 0,0.6 0,1 0.1,0.8 -0.3,1.1 -1,1.1 -1.5,0 -2.9,0 -4.4,0 z"
       id="path3414"
       inkscape:connector-curvature="0"
       style="fill:#f29f53" /><path
       class="st0"
       d="m 336.9,173.4 c 0,2.2 0,4.3 0,6.5 0,1.1 -0.3,1.6 -1.5,1.5 -2.5,-0.1 -2.7,0.5 -2.6,-2.7 0,-3.9 0,-7.8 0,-11.7 0,-1.4 0.2,-1.6 1.6,-1.6 2.6,0 2.6,0 2.6,2.5 -0.1,1.9 -0.1,3.7 -0.1,5.5 z"
       id="path3416"
       inkscape:connector-curvature="0"
       style="fill:#f29f53" /></g></svg>