<svg xmlns="http://www.w3.org/2000/svg" viewBox="0 0 581 332.7"><title>Asset 2</title><g id="dfd34e47-c0fe-4223-a735-9a01afe197a0" data-name="Layer 2"><g id="526682d1-3847-4fa4-a061-32be77d98a62" data-name="Layer 1"><path d="M431.77,1.63H488V327.47H431.77V241.29H281.38c1.52,23.4,18.45,47.77,56.92,47.87,19.7,0,37.21-6,50.79-16.27l27,31.74c-18.9,17-46.53,28.07-84.75,28.07-31.09,0-61.9-9.14-83.16-32.54-10.46-11.46-18.45-26.69-22.64-45.13-12.08,41.67-49.89,69.54-105.07,71.72-17.52.72-36.21.87-55.32.72-21.53-.1-43.65,0-65.19,0V0H75.89c38.81,0,70.28,4,93.4,23.61,15.82,13.39,25.17,34,25.17,56.59,0,24.33-10.7,45.65-31.16,60.54,27.14,8.44,52.86,28.49,62.49,58.15,10.73-42.09,46.87-82,105.62-82,37.87,0,65.74,14.4,83,37.14a93.91,93.91,0,0,1,17.34,38V1.63Z" style="fill:#0066a4"/><rect x="525.61" y="1.63" width="55.39" height="325.84" style="fill:#0066a4"/><path d="M378.77,200.58C374.34,174.93,357,159.53,331,159.53s-43.62,17.2-48.57,41.05Z" style="fill:#fff"/><path d="M167.28,227.13c0-24.4-14.78-42.89-40.5-49.6-7.48-2-20.6-3.29-32.23-3.29H57.92V281.06h41c7,0,15.68-.24,22.68-1.52,32.13-5.78,45.73-27.07,45.73-52.4" style="fill:#fff"/><path d="M57.92,130.46H76.37c10.21,0,17.45-.55,22.4-1.59,30-6.13,35.45-28.52,35.42-42.78,0-16.86-8-30.35-25-36.9-8.62-3.39-20.53-5-35.69-5l-15.61,0v86.22Z" style="fill:#fff"/></g></g></svg>