<?xml version="1.0" encoding="utf-8"?>
<!-- Generator: Adobe Illustrator 19.2.0, SVG Export Plug-In . SVG Version: 6.00 Build 0)  -->
<svg version="1.1" id="Layer_1" xmlns="http://www.w3.org/2000/svg" xmlns:xlink="http://www.w3.org/1999/xlink" x="0px" y="0px"
	 viewBox="0 0 200 72" style="enable-background:new 0 0 200 72;" xml:space="preserve">
<g>
	<path d="M93.2,19.8H89l-3.4,16.2c-0.6,2.6-0.8,4.5-0.8,6c0,1.1,0.3,1.9,0.9,2.6c0.6,0.7,1.3,1,2.4,1c1.3,0,2.3-0.5,3-1.5
		c-0.6,0-1.2-0.2-1.5-0.6S89,42.5,89,41.8c0-1.1,0.3-2.7,0.8-5.1L93.2,19.8z"/>
	<path d="M107.1,37.7c-0.2,1.3-0.8,2.3-1.7,3.2c-0.9,0.9-2,1.3-3.4,1.3c-1.6,0-2.5-0.8-2.5-2.2c0-0.3,0-0.8,0.1-1.3l2.1-11.5h-4.2
		l-2.2,11.7c-0.1,0.7-0.2,1.3-0.2,1.7c0,1.5,0.5,2.8,1.3,3.7c0.9,0.9,2.1,1.3,3.7,1.3c2.3,0,4.1-0.6,5.7-1.6l-0.3,1.3h4.2l3.4-18.1
		h-4.2L107.1,37.7z"/>
	<path d="M124.5,21.8l-4.8,1.7l-0.7,3.8H117l-0.8,3.4h2.1l-2,9.1c-0.1,0.5-0.2,0.9-0.2,1.3c0,1.3,0.4,2.5,1.2,3.4
		c0.9,0.9,1.9,1.3,3.3,1.3c2.1,0,3.7-0.2,5-0.7v-3.8c-1.4,0.6-2.4,0.9-3.1,0.9c-1.3,0-2.1-0.6-2.1-1.8c0-0.4,0.1-1,0.2-1.6l1.8-8h5
		l0.8-3.4h-5L124.5,21.8z"/>
	<polygon points="131.3,30.6 133.7,30.6 130.9,45.3 135.2,45.3 138.6,27.2 132,27.2 	"/>
	<path d="M136.6,18.8c-0.8,0-1.4,0.3-1.9,0.8c-0.6,0.5-0.8,1.2-0.8,1.8c0,0.8,0.3,1.3,0.8,1.8c0.6,0.5,1.2,0.8,1.9,0.8
		s1.4-0.3,1.9-0.8c0.6-0.5,0.8-1.2,0.8-1.8c0-0.8-0.3-1.3-0.8-1.8S137.4,18.8,136.6,18.8z"/>
	<path d="M151.4,26.9c-3.1,0-5.6,1.2-7.6,3.4c-2,2.2-3,5-3,8.3c0,2.3,0.7,4,1.9,5.3c1.2,1.3,3.1,1.8,5.3,1.8c3.1,0,5.7-1.2,7.6-3.4
		c1.9-2.2,3-5.1,3-8.4c0-2.2-0.7-4-1.9-5.2C155.6,27.5,153.8,26.9,151.4,26.9z M152.8,39.8c-1.1,1.6-2.4,2.4-4.1,2.4
		c-2.2,0-3.4-1.3-3.4-3.9c0-2.1,0.5-4,1.5-5.6c1.1-1.6,2.4-2.4,4.1-2.4c2.2,0,3.4,1.3,3.4,3.7C154.3,36.2,153.8,38.2,152.8,39.8z"/>
	<path d="M172,26.9c-2.2,0-4.1,0.7-5.6,1.9l-0.4-2l-4.1,0.8c0.3,1.2,0.5,2.2,0.5,3.2c0,0.4,0,0.8-0.1,1l-2.6,13.6h4.2l2.4-13
		c1.2-1.3,2.6-1.9,4-1.9c1.7,0,2.7,0.8,2.7,2.2c0,0.6-0.1,1.3-0.2,2.1l-1.9,10.5h4.3l2-11c0.2-0.9,0.2-1.5,0.2-2.2
		C177.6,28.6,175.7,26.9,172,26.9z"/>
	<path d="M190.4,35.6c-0.7-0.4-1.5-0.9-2.8-1.4c-1.2-0.6-1.8-1.3-1.8-1.9c0-0.6,0.3-1,0.8-1.3s1.2-0.5,1.8-0.5
		c1.2,0,2.3,0.6,3.7,1.7l1.9-3.9c-2.2-1-4-1.4-5.4-1.4c-2,0-3.7,0.5-5.1,1.5c-1.4,1.1-2.1,2.4-2.1,4.2c0,0.8,0.2,1.5,0.7,2.2
		c0.4,0.7,1.1,1.3,1.8,1.6c0.8,0.5,1.7,1,2.8,1.5c1.1,0.6,1.5,1.2,1.5,1.7c0,0.8-0.3,1.3-0.9,1.7c-0.6,0.4-1.2,0.7-2.1,0.7
		c-1.3,0-2.7-0.7-4.1-2l-2.2,3.9c1.9,1.2,3.8,1.6,5.8,1.6c2.3,0,4.2-0.6,5.7-1.7c1.4-1.2,2.2-2.7,2.2-4.7c0-0.8-0.2-1.5-0.6-2.1
		C191.7,36.4,191.1,35.9,190.4,35.6z"/>
	<polygon points="54.4,38.6 51.4,27.8 47.1,27.8 52.5,45.9 54,45.9 65.5,27.8 60.7,27.8 	"/>
	<path d="M43.4,28.6c-1.2-0.8-2.7-1.2-4.5-1.2c-3.2,0-5.8,1.1-7.7,3.1s-3,4.6-3,7.6c0,2.4,0.7,4.3,2,5.7s3.2,2.1,5.3,2.1
		c2,0,3.7-0.3,5.1-1l0.5-4.3c-0.5,0.5-1.2,0.9-2.1,1.3c-0.9,0.4-1.7,0.6-2.4,0.6c-1.3,0-2.3-0.3-3.1-1s-1.1-1.6-1.1-2.9
		c0-0.2,0-0.5,0-0.8c1.2,0.4,2.4,0.6,3.7,0.6c2.5,0,4.6-0.6,6.3-1.7C44.1,35.6,45,34,45,32C45.1,30.6,44.5,29.4,43.4,28.6z
		 M39.4,34.3c-1.1,0.5-2.3,0.7-3.8,0.7c-0.9,0-1.6-0.1-2.3-0.3c0.5-1.1,1.2-2,2-2.7c0.9-0.8,1.7-1.1,2.5-1.1c2.1,0,3.2,0.5,3.2,1.4
		C41,33.2,40.5,33.8,39.4,34.3z"/>
	<path d="M73.8,26.9c-0.2,0-0.4,0-0.7,0c0-0.1,0-0.2-0.1-0.3C68.5,9.1,50.7-1.5,33.3,3.1C23.5,5.6,15.9,12.4,12,21
		c-0.5,0.1-1,0.1-1.5,0.2L6,45.6h4.7C15.4,63,33.2,73.5,50.6,68.9c11.7-3.1,20.2-12.2,23.2-23.2c0.1,0,0.1,0,0.2,0
		c2.5,0,4.5-0.9,6-2.5c1.4-1.6,2.2-4,2.2-6.9c0-2.9-0.7-5.2-2.1-6.8C78.4,27.8,76.4,26.9,73.8,26.9z M73.1,43
		c-2.7-0.4-3.9-2.6-3.9-6.7c0-2.1,0.5-3.8,1.3-4.9c0.9-1.2,2-1.7,3.4-1.7C74.5,34.1,74.2,38.6,73.1,43z M14.1,24.8
		c0.6-0.1,1.1-0.2,1.6-0.2c1.9,0,3.5,0.6,4.6,1.6c1.2,1.1,1.8,2.5,1.8,4.3c0,3.3-0.9,6-2.6,8.1c-1.7,2.1-4.1,3.2-7.1,3.2
		c-0.4,0-0.9,0-1.3-0.1L14.1,24.8z M49.8,66.1c-16.5,4.3-33.4-4.7-39-20.5H12c4.5,0,8.1-1.3,10.8-4c2.7-2.7,4-6.3,4-10.8
		c0-3.2-1.1-5.7-3.1-7.4c-2-1.7-4.9-2.5-8.5-2.5c-0.3,0-0.6,0-0.9,0c4.1-7.1,11-12.6,19.7-14.9c16.7-4.4,33.8,4.9,39.2,21
		c-2.1,0.2-3.8,1-5.2,2.5c-1.5,1.7-2.2,4-2.2,6.7c0,2.9,0.7,5.2,2.1,6.8c1.2,1.3,2.6,2.1,4.4,2.4C68.7,55.3,60.6,63.2,49.8,66.1z
		 M77.4,41.2c-0.8,1.1-1.8,1.7-3.1,1.8c0.8-4.3,0.7-9-0.4-13.5c3.2,0,4.8,2.2,4.8,6.7C78.6,38.4,78.2,40,77.4,41.2z"/>
</g>
</svg>
