<svg xmlns="http://www.w3.org/2000/svg" viewBox="0 0 786.49 175.64"><title>Asset 1</title><g id="81c6566c-06f8-44d9-be9b-cde2fe06acdf" data-name="Layer 2"><g id="e7dadd98-263d-42d4-b3f9-6aa9dd62edbe" data-name="svg3592"><g id="b75841ce-ecc4-411a-b81e-b0dc78c0a781" data-name="Text-Outline"><g id="b6605c53-ddd0-41f4-9c05-2ef1b25df513" data-name="white"><g id="f5f72447-5639-4ee3-93a4-586c051d066a" data-name="Group"><g id="f3c5f3c7-b49d-4530-a20a-56ac6c9d448a" data-name="Android-app-icon"><path id="35d40b8a-dbe8-48c2-9632-62af76bb0597" data-name="heart-half" d="M103.83,9.3a57.51,57.51,0,0,1,72,88.86l-76,76a5,5,0,0,1-7.07,0L60.63,142l7.85-19.43A66.51,66.51,0,0,0,103.83,9.3Z" style="fill:#2bbdf0;opacity:0.4000000059604645;isolation:isolate"/><g id="537b6377-ef47-4c79-98ff-75f895b427b8" data-name="Chat"><path id="3f4b6cc2-aefe-4d18-809b-d7ee2ecf4e11" data-name="Combined-Shape" d="M77.5,66c0,9.94-9,18-20,18s-20-8.06-20-18a4,4,0,0,0-8,0c0,14.36,12.54,26,28,26s28-11.64,28-26a4,4,0,0,0-8,0ZM4.37,79.54a57.51,57.51,0,1,1,58.19,35.24l-8.38,20.73L16.84,98.16A57.33,57.33,0,0,1,4.37,79.54ZM34,49a6.5,6.5,0,1,0-6.5-6.5A6.5,6.5,0,0,0,34,49Zm47,0a6.5,6.5,0,1,0-6.5-6.5A6.5,6.5,0,0,0,81,49Z" style="fill:#2bbdf0"/></g></g><g id="fa0aa784-5419-4a36-92e6-fe977d1b66f8" data-name="Group-2"><path id="40c09273-9603-435a-a89b-fd45a818ffec" data-name="dialogue" d="M238.16,96.43A30.56,30.56,0,0,0,240,107.06a25.55,25.55,0,0,0,5.17,8.59,24.27,24.27,0,0,0,8.08,5.75,26,26,0,0,0,10.7,2.11,27.71,27.71,0,0,0,10.85-2.11,26.77,26.77,0,0,0,8.66-5.75,26,26,0,0,0,5.68-8.59,28.73,28.73,0,0,0,0-21.26,26,26,0,0,0-5.68-8.59,26.77,26.77,0,0,0-8.66-5.75,27.71,27.71,0,0,0-10.85-2.11,26,26,0,0,0-10.7,2.11,24.27,24.27,0,0,0-8.08,5.75A25.55,25.55,0,0,0,240,85.8,30.56,30.56,0,0,0,238.16,96.43Zm62.17,34.07h-9.61V119.14h-.29a25,25,0,0,1-5.53,6,34.35,34.35,0,0,1-6.7,4.08,32,32,0,0,1-7.21,2.33,36.74,36.74,0,0,1-7.06.73,38.5,38.5,0,0,1-14.63-2.69,33.77,33.77,0,0,1-18.93-18.86,39.14,39.14,0,0,1,0-28.54A33.77,33.77,0,0,1,249.3,63.31a38.5,38.5,0,0,1,14.63-2.69,36.74,36.74,0,0,1,7.06.73,32,32,0,0,1,7.21,2.33,34.35,34.35,0,0,1,6.7,4.08,25,25,0,0,1,5.53,6h.29V20.43h9.61Zm34.94-94.35a6.46,6.46,0,0,1-2.18,5,6.86,6.86,0,0,1-9.61,0,6.87,6.87,0,0,1,0-10,6.86,6.86,0,0,1,9.61,0A6.46,6.46,0,0,1,335.28,36.15Zm-2.18,94.35h-9.61V62.36h9.61ZM395,96.58q-3.64,0-9.1.36a52.56,52.56,0,0,0-10.48,1.75,23.08,23.08,0,0,0-8.59,4.3,9.78,9.78,0,0,0-3.57,8,11.34,11.34,0,0,0,1.38,5.75,11.51,11.51,0,0,0,3.71,3.93,15.82,15.82,0,0,0,5.17,2.18,25.5,25.5,0,0,0,5.75.66,21.9,21.9,0,0,0,9.1-1.75A18.52,18.52,0,0,0,398.69,110a28.69,28.69,0,0,0,1.24-8.52v-5h-5Zm5-7.86V87q0-17.62-17.47-17.62a30.1,30.1,0,0,0-20.82,8l-5.82-6.84q9.61-9.9,28.83-9.9a31.33,31.33,0,0,1,9.54,1.46,21.56,21.56,0,0,1,7.94,4.44A22,22,0,0,1,407.5,74a26,26,0,0,1,2,10.77v30.43q0,3.93.36,8.23t.8,7.06h-9.32q-.44-2.48-.66-5.39t-.22-5.68h-.29a26,26,0,0,1-10,9.83,30.22,30.22,0,0,1-14.05,3,30.9,30.9,0,0,1-8.74-1.24,22.29,22.29,0,0,1-7.5-3.79,19.24,19.24,0,0,1-5.24-6.26,18.25,18.25,0,0,1-2-8.66q0-8.3,4.3-13a26.27,26.27,0,0,1,10.77-7.06,53.09,53.09,0,0,1,13.83-2.91q7.35-.58,13.47-.58h4.8ZM443.6,130.5H434V20.43h9.61Zm81.54-34.07a30.56,30.56,0,0,0-1.82-10.63,25.55,25.55,0,0,0-5.17-8.59,24.27,24.27,0,0,0-8.08-5.75,28.18,28.18,0,0,0-21.4,0,23.5,23.5,0,0,0-8,5.75,26.2,26.2,0,0,0-5.1,8.59,31.95,31.95,0,0,0,0,21.26,26.2,26.2,0,0,0,5.1,8.59,23.5,23.5,0,0,0,8,5.75,28.18,28.18,0,0,0,21.4,0,24.27,24.27,0,0,0,8.08-5.75,25.55,25.55,0,0,0,5.17-8.59A30.56,30.56,0,0,0,525.14,96.43Zm10.48,0a37.16,37.16,0,0,1-2.69,14.27A33.77,33.77,0,0,1,514,129.55a38.5,38.5,0,0,1-14.63,2.69,38.11,38.11,0,0,1-14.49-2.69A33.77,33.77,0,0,1,466,110.7a39.14,39.14,0,0,1,0-28.54,33.77,33.77,0,0,1,18.93-18.86,38.11,38.11,0,0,1,14.49-2.69A38.5,38.5,0,0,1,514,63.31a33.77,33.77,0,0,1,18.93,18.86A37.16,37.16,0,0,1,535.62,96.43Zm24.46-.87a26.11,26.11,0,0,0,2,10.12,26.61,26.61,0,0,0,5.39,8.3,26.12,26.12,0,0,0,8,5.68,23.56,23.56,0,0,0,10,2.11,26.7,26.7,0,0,0,18.35-7.21,23.18,23.18,0,0,0,5.61-8.23,26.48,26.48,0,0,0,1.82-10.77,29,29,0,0,0-1.75-10.12,24.26,24.26,0,0,0-5.1-8.3,24.6,24.6,0,0,0-8.15-5.68,26.51,26.51,0,0,0-10.77-2.11,23.56,23.56,0,0,0-10,2.11,26.12,26.12,0,0,0-8,5.68,26.61,26.61,0,0,0-5.39,8.3A26.11,26.11,0,0,0,560.08,95.56Zm-1.75,48.63a30.69,30.69,0,0,0,11,9.1,32.93,32.93,0,0,0,15.07,3.42,32.33,32.33,0,0,0,12.38-2.11,21.44,21.44,0,0,0,8.23-5.75,22.14,22.14,0,0,0,4.51-8.52,38,38,0,0,0,1.38-10.41V117.69h-.29a26.24,26.24,0,0,1-11.36,9.9,35,35,0,0,1-14.12,2.91,36.73,36.73,0,0,1-13.9-2.62,35.36,35.36,0,0,1-11.28-7.21,33.19,33.19,0,0,1-7.57-11,34.51,34.51,0,0,1-2.77-13.83A36.18,36.18,0,0,1,552.22,82a35.56,35.56,0,0,1,7.21-11.21,32.48,32.48,0,0,1,10.92-7.5,35.17,35.17,0,0,1,13.9-2.69,38.68,38.68,0,0,1,6.48.58,30.54,30.54,0,0,1,6.84,2,31.53,31.53,0,0,1,13,10.48h.29V62.36h9.61v67.56a54.78,54.78,0,0,1-1.38,11.79,29.1,29.1,0,0,1-5.39,11.5,30.64,30.64,0,0,1-11.14,8.74q-7.13,3.49-18.64,3.49a46.8,46.8,0,0,1-18.2-3.35,42.28,42.28,0,0,1-14.56-10.34l7.13-7.57ZM691.27,130.5q-.29-2.77-.36-5.46t-.07-5.46h-.29a22.41,22.41,0,0,1-4.08,5.1,26.85,26.85,0,0,1-5.53,4,30.2,30.2,0,0,1-6.48,2.62,25.31,25.31,0,0,1-6.77.95q-13.1,0-19.36-6.92t-6.26-19.73V62.36h9.61v37.71a51.61,51.61,0,0,0,.87,10,19,19,0,0,0,3,7.35A13.11,13.11,0,0,0,661.2,122a22.82,22.82,0,0,0,9,1.53,36.86,36.86,0,0,0,4.08-.58,17.74,17.74,0,0,0,7.06-3.2,23.14,23.14,0,0,0,6.62-7.86q2.91-5.24,2.91-14.56V62.36h9.61V115.5q0,2.77.22,7t.51,8ZM776,91.19q0-9.76-5.82-15.8t-16.31-6a23.25,23.25,0,0,0-9,1.82A25.41,25.41,0,0,0,737.21,76,24.46,24.46,0,0,0,732,83a18,18,0,0,0-2,8.15Zm-46.3,7.86a29.24,29.24,0,0,0,2.48,9.61,25.12,25.12,0,0,0,13.1,13,23.54,23.54,0,0,0,9.46,1.89,24.29,24.29,0,0,0,13.32-3.57,26.66,26.66,0,0,0,8.52-8.23l7.43,6.12a36.94,36.94,0,0,1-13.47,11.07,37.66,37.66,0,0,1-15.8,3.35,36.24,36.24,0,0,1-14.05-2.69,32.91,32.91,0,0,1-11.14-7.5,35.52,35.52,0,0,1-7.35-11.36,37.16,37.16,0,0,1-2.69-14.27,38.07,38.07,0,0,1,2.62-14.27,34.55,34.55,0,0,1,7.28-11.36,33.48,33.48,0,0,1,10.92-7.5,33.89,33.89,0,0,1,13.54-2.69,33.2,33.2,0,0,1,13.83,2.77A30.69,30.69,0,0,1,778,70.73a31.47,31.47,0,0,1,6.33,10.77,39.3,39.3,0,0,1,2.18,13.18v4.37H729.71Z" style="fill:#2bbdf0"/></g></g></g></g></g></g></svg>