<?xml version="1.0" encoding="utf-8"?>
<!-- Generator: Adobe Illustrator 22.0.0, SVG Export Plug-In . SVG Version: 6.00 Build 0)  -->
<svg version="1.1" id="Layer_1" xmlns="http://www.w3.org/2000/svg" xmlns:xlink="http://www.w3.org/1999/xlink" x="0px" y="0px"
	 viewBox="0 0 792 612" style="enable-background:new 0 0 792 612;" xml:space="preserve">
<g>
	<path d="M677.8,305.6c-19.2,0-38.4,0-57.6,0c-3.7,0-6.1-2.4-6.1-6.2c0-17.4,0-34.8,0-52.2c0-1.7,0-3.4,0-5c0-0.7,0.1-1.4,0.3-2.1
		c0.6-2.1,2.5-3.7,4.7-3.8c3-0.1,6-0.1,8.9-0.1c35.8,0,71.6,0,107.3,0c0.8,0,1.7,0.1,2.5,0.3c2.2,0.7,3.6,2.7,3.7,5.2
		c0,3.3,0,6.6,0,10c0,16,0,31.9,0,47.9c0,1.1-0.1,2.2-0.7,3.2c-1,1.7-2.6,2.7-4.6,2.9c-0.5,0-0.9,0-1.4,0
		C715.9,305.6,696.9,305.6,677.8,305.6z"/>
	<path d="M464.2,236.2c19.2,0,38.5,0,57.7,0c1.1,0,2.1,0.1,3.1,0.6c2,1.1,3.1,2.8,3.2,5.1c0.1,1.2,0,2.4,0,3.5c0,17.9,0,35.9,0,53.8
		c0,0.9-0.1,1.8-0.3,2.6c-0.7,2.3-2.8,3.8-5.3,3.9c-1.6,0-3.2,0-4.8,0c-36.9,0-73.8,0-110.7,0c-1.7,0-3.2-0.3-4.5-1.5
		c-1.1-1.1-1.7-2.3-1.7-3.9c0-3.1,0-6.2,0-9.3c0-16.2,0-32.4,0-48.6c0-1.7,0.4-3.2,1.7-4.4c1-0.9,2.1-1.5,3.5-1.5
		c7.1,0,14.2-0.1,21.3-0.1C439.5,236.2,451.8,236.2,464.2,236.2C464.2,236.2,464.2,236.2,464.2,236.2z"/>
	<path d="M585.9,271c0,9.5,0,19,0,28.5c0,1.3-0.2,2.6-1,3.7c-1.1,1.6-2.7,2.4-4.6,2.4c-6,0-12.1,0-18.1,0c-3.4,0-5.8-2.4-5.8-5.8
		c0-4.7,0-9.3,0-14c0-14.5,0-29,0-43.5c0-1.7,0.5-3.1,1.6-4.4c0.9-1,2.1-1.6,3.5-1.6c4.2,0,8.5-0.1,12.7-0.1c2,0,3.9,0,5.9,0
		c3.2,0,5.6,2.3,5.8,5.5c0,1,0,1.9,0,2.9C585.9,253.3,585.9,262.2,585.9,271z"/>
	<path d="M237.2,370c-0.6-1.3-1.2-2.5-1.8-3.8c0.7-0.2,1.4-0.3,2-0.5c2.4-0.7,3.3-1.9,3.2-4.6c-0.5,0.3-1,0.5-1.4,0.8
		c-3.5,1.7-7.2,0.7-9.2-2.6c-0.9-1.5-1.4-3.1-1.6-4.7c-0.3-2.4-0.3-4.9,0.4-7.2c0.2-0.7,0.5-1.4,0.8-2.1c2-3.9,6.5-5.1,10.2-2.8
		c0.2,0.1,0.4,0.2,0.6,0.4c0.1-0.4,0.2-0.7,0.3-1c1.6,0,3.2,0,4.9,0c0,0.4,0.1,0.8,0.1,1.2c0,6,0,11.9-0.1,17.9
		c0,1.3-0.3,2.7-0.7,3.9c-0.6,2.1-2.1,3.5-4.1,4.3C239.7,369.5,238.5,369.7,237.2,370z M240.7,351.9
		C240.7,351.9,240.7,351.9,240.7,351.9c0-0.9-0.1-1.8,0-2.6c0.2-1.2-0.4-1.9-1.4-2.4c-0.6-0.3-1.1-0.5-1.8-0.7
		c-1.6-0.3-2.9,0.4-3.5,1.9c-0.3,0.8-0.5,1.6-0.6,2.4c-0.2,1.9-0.1,3.8,0.8,5.5c0.5,1,1.2,1.7,2.4,1.8c2.3,0.4,4.1-1,4-3.4
		C240.7,353.6,240.7,352.8,240.7,351.9z"/>
	<path d="M67.9,362.3c-1.7,0-3.2,0-4.9,0c-0.1-0.4-0.2-0.7-0.3-1.1c-0.4,0.2-0.7,0.4-1,0.6c-2.9,1.7-7.4,1.3-9.6-2.4
		c-1-1.7-1.5-3.6-1.6-5.5c-0.2-2.1-0.2-4.2,0.4-6.2c0.2-0.8,0.5-1.5,0.9-2.2c2-3.8,6.3-5.1,10.1-3c0.2,0.1,0.5,0.3,0.9,0.5
		c0-0.5,0.1-0.8,0.1-1.1c0-1.5,0-2.9,0-4.4c0-0.6,0.1-1,0.7-1.3c1.2-0.5,2.4-1.2,3.6-1.8c0.2-0.1,0.4-0.1,0.7-0.2
		C67.9,343.5,67.9,352.9,67.9,362.3z M62.9,352C62.9,352,62.9,352,62.9,352c0-1-0.1-1.9,0-2.9c0.1-1.1-0.3-1.8-1.2-2.2
		c-0.4-0.2-0.9-0.5-1.4-0.6c-1.9-0.6-3.6,0.2-4.2,2.1c-0.8,2.5-0.8,5.1,0.3,7.6c0.7,1.6,2.2,2.3,3.8,1.9c0.7-0.2,1.3-0.6,1.9-1
		c0.6-0.4,0.8-1,0.8-1.7C62.8,354.1,62.9,353.1,62.9,352z"/>
	<path d="M123.8,334c0,1.7,0,3.2,0,4.6c0,1.4,0,2.8,0,4.4c0.5-0.3,0.8-0.4,1.1-0.6c3.4-2,7.3-1.1,9.5,2.2c0.4,0.6,0.7,1.2,0.9,1.9
		c1.2,3.7,1.3,7.3,0.1,11c-1.5,4.6-6.4,6.7-10.7,4.2c-0.2-0.1-0.4-0.2-0.8-0.4c-0.1,0.3-0.2,0.6-0.4,1c-1.5,0-3.1,0-4.9,0
		c0-0.5-0.1-1-0.1-1.5c0-5.2,0-10.4,0-15.6c0-2.6,0-5.2,0-7.8c0-0.7,0.2-1.1,0.9-1.4C121,335.4,122.3,334.7,123.8,334z M123.9,352.1
		C123.9,352.1,123.8,352.1,123.9,352.1c-0.1,1-0.1,1.9,0,2.9c0,0.5,0.1,1.2,0.4,1.5c1,1.1,2.3,1.6,3.8,1.4c1.4-0.2,2.2-1.1,2.6-2.4
		c0.6-2.3,0.6-4.7-0.2-6.9c-0.9-2.4-3.4-3.2-5.5-1.7c-0.7,0.5-1.1,1-1.1,1.9C123.9,349.8,123.9,350.9,123.9,352.1z"/>
	<path d="M263.2,349.5c-0.2-0.9-0.3-1.7-0.5-2.4c-0.2-0.8-0.8-1.2-1.6-1.4c-1.7-0.4-3.4-0.2-5.1,0.4c-0.6,0.2-1.2,0.4-1.8,0.7
		c-0.6-1.1-1.2-2.2-1.8-3.4c0.3-0.2,0.5-0.4,0.7-0.5c3.2-1.5,6.5-2,9.9-1.1c3.1,0.8,5,3,5.1,6.2c0.1,4.7,0,9.3,0,14
		c0,0.1-0.1,0.2-0.1,0.3c-1.5,0-3.1,0-4.8,0c-0.1-0.3-0.3-0.7-0.4-1.1c-1.3,0.9-2.7,1.5-4.2,1.6c-5.2,0.4-8.9-3.8-7.8-8.8
		c0.4-1.9,1.6-3.3,3.4-4.1c2.3-1.1,4.8-1.2,7.3-0.6C261.9,349.2,262.4,349.3,263.2,349.5z M263.1,355.1c0-0.3-0.1-0.7-0.1-1
		c0-0.5-0.3-0.7-0.7-0.9c-1.4-0.4-2.9-0.7-4.3-0.4c-1.5,0.3-2.2,1.2-2.3,2.6c0,1.5,0.8,2.6,2.2,2.9c1.3,0.3,2.5,0.1,3.6-0.5
		C262.6,357.2,263.2,356.4,263.1,355.1z"/>
	<path d="M95.7,341.8c0.4,0,0.7-0.1,1-0.1c1.3,0,2.6,0,4,0c0,0.5,0.1,1,0.1,1.4c0,3.4,0,6.9,0,10.3c0,0.7,0.1,1.5,0.4,2.2
		c0.5,1.5,1.7,2.3,3.4,2.2c1.7,0,2.9-0.8,3.3-2.4c0.2-0.6,0.3-1.2,0.3-1.7c0.1-3.5,0.1-7,0.1-10.5c0-0.5,0-1,0-1.6
		c1.7,0,3.3,0,4.9,0c0.3,0.9,0.3,18.8,0.1,20.4c-1.6,0-3.1,0-4.8,0c-0.1-0.3-0.2-0.7-0.4-1.1c-0.2,0.1-0.4,0.1-0.5,0.3
		c-2,1.3-4.1,1.6-6.4,1.1c-2.1-0.5-3.7-1.8-4.5-3.8c-0.7-1.6-0.9-3.3-0.9-5c0-3.7,0-7.4,0-11.1C95.6,342.4,95.6,342.2,95.7,341.8z"
		/>
	<path d="M91.1,352.1c0,2.3-0.5,4.4-1.7,6.4c-3.3,5.6-11.9,5.7-15.1,0c-2.5-4.3-2.5-8.8,0.1-13.1c3.4-5.6,11.6-5.5,15,0.1
		C90.5,347.4,91.1,349.6,91.1,352.1z M85.9,352c0-1.2-0.2-2.4-0.7-3.5c-0.7-1.4-1.8-2.2-3.4-2.2c-1.6,0-2.7,0.8-3.3,2.2
		c-1,2.4-1,4.8,0.1,7.2c0.6,1.3,1.6,2,3,2.1c1.5,0.1,2.6-0.6,3.3-1.8C85.7,354.8,85.9,353.4,85.9,352z"/>
	<path d="M190,362.3c-1.7,0-3.3,0-5,0c0-6.8,0-13.6,0-20.4c1.6,0,3.2,0,4.9,0c0.1,0.3,0.1,0.7,0.2,1.1c0.2,0,0.3-0.1,0.4-0.1
		c1.5-1,3.2-1.5,5-1.4c3.7,0.2,6.1,2.3,6.8,6.1c0.2,0.9,0.3,1.9,0.3,2.9c0,3.6,0,7.1,0,10.7c0,0.4,0,0.7,0,1.2c-1.7,0-3.3,0-5,0
		c0-0.4-0.1-0.9-0.1-1.3c0-3.2,0-6.5,0-9.7c0-0.9-0.1-1.9-0.4-2.7c-0.5-1.6-1.7-2.4-3.4-2.4c-1.8,0-3,0.9-3.4,2.6
		c-0.2,0.9-0.3,1.9-0.3,2.9c0,3.1,0,6.1,0,9.2C190,361.2,190,361.6,190,362.3z"/>
	<path d="M220.4,356.7c1.2,1,2.3,1.9,3.5,3c-0.7,0.5-1.2,1.1-1.8,1.5c-2.3,1.5-4.9,1.9-7.6,1.4c-3.1-0.6-5.4-2.4-6.6-5.4
		c-1.5-3.8-1.3-7.6,0.6-11.2c1.8-3.4,5.2-5,9-4.5c1.5,0.2,2.8,0.8,3.9,1.9c2.9,2.8,3.4,6.4,3.3,10.3c-4.2,0-8.4,0-12.5,0
		C212.4,357.7,215.8,359,220.4,356.7z M212.2,349.9c2.5,0.2,5,0.2,7.6-0.1c-0.4-2.7-1.8-4.1-3.9-4.1
		C213.9,345.7,212.6,347.1,212.2,349.9z"/>
	<path d="M168.8,353.6c-4.4,0.1-8.5-0.1-12.6,0.1c0.1,3.6,3.8,5.8,8.2,3c1.1,0.9,2.2,1.9,3.5,2.9c-0.3,0.3-0.5,0.6-0.7,0.8
		c-3,2.6-7.7,3.2-11.2,1.3c-1.8-0.9-3.2-2.4-3.9-4.3c-1.5-3.6-1.5-7.3,0.2-10.9c1.7-3.7,5.2-5.6,9.2-5.1c2.4,0.3,4.1,1.6,5.4,3.6
		c1,1.5,1.5,3.1,1.7,4.8C168.7,351,168.7,352.2,168.8,353.6z M156.3,349.9c2.6,0,5,0,7.5,0c-0.1-2.4-1.5-4-3.6-4.1
		C158,345.6,156.7,347,156.3,349.9z"/>
	<path d="M340.7,353.6c-4.2,0-8.3,0-12.4,0c0,4,3.8,5.4,8.2,3c1.1,0.9,2.3,1.9,3.5,3c-0.7,0.6-1.2,1.1-1.8,1.5
		c-2.5,1.6-5.2,2-8.1,1.3c-2.9-0.7-5-2.5-6.1-5.3c-1.3-3.4-1.3-6.9,0.1-10.3c1.7-3.9,5.2-5.9,9.3-5.4c2.4,0.3,4.2,1.6,5.5,3.6
		C340.5,347.6,340.9,350.4,340.7,353.6z M335.8,349.9c-0.4-2.8-1.8-4.2-4-4.1c-2,0.1-3.2,1.5-3.5,4.1
		C330.8,349.9,333.2,349.9,335.8,349.9z"/>
	<path d="M285.5,346.6c-1.7,0-3.2,0-4.7,0c-0.1,0.2-0.2,0.3-0.2,0.4c0,2.9-0.1,5.8,0,8.7c0,1.8,1.3,2.6,3,2c0.6-0.2,1.1-0.5,1.8-0.9
		c-0.1,1.6-0.2,3-0.6,4.5c-0.1,0.3-0.5,0.6-0.8,0.7c-1.5,0.7-3.1,0.9-4.7,0.5c-2.2-0.5-3.9-2.7-3.9-5.3c0-3,0-6,0-9.1
		c0-0.5,0-0.9,0-1.5c-1.2-0.1-2.3-0.1-3.5-0.2c0-1.6,0-3.1,0-4.8c1.1,0,2.2,0,3.4,0c0-1.8,0-3.5,0-5.3c1.7-0.8,3.3-1.6,5.1-2.5
		c0.1,2.7,0,5.2,0.1,7.8c1.6,0,3.2,0,5,0c0,0.9,0,1.7,0,2.5C285.5,345,285.5,345.7,285.5,346.6z"/>
	<path d="M300.7,341.8c1.7,0,3.2,0,4.7,0c0.7,0,1.1,0.4,1.3,1.1c1.2,3.8,2.4,7.7,3.6,11.5c0.2,0.5,0.3,1,0.5,1.7
		c1.5-4.9,3-9.6,4.5-14.3c1.8,0,3.5,0,5.4,0c-2.4,6.9-4.9,13.7-7.3,20.4c-1.8,0-3.6,0-5.4,0C305.6,355.5,303.2,348.8,300.7,341.8z"
		/>
	<path d="M441,350.7c0-1.1,0.1-2.3,0-3.4c-0.2-2.4-1.7-3.7-4.1-3.8c-1.6-0.1-3.1,0.2-4.6,0.8c-0.5,0.2-1,0.4-1.6,0.7
		c-0.3-0.7-0.6-1.3-0.9-2.1c3.4-1.5,6.8-2.1,10.3-1c2.2,0.7,3.3,2.4,3.5,4.6c0.1,1,0.1,2.1,0.1,3.1c0,3.9,0,7.7,0,11.6
		c0,0.3-0.1,0.6-0.1,1c-0.8,0-1.5,0-2.4,0c0-0.7-0.1-1.5-0.1-2.3c-0.5,0-0.8,0.4-1.1,0.7c-2,1.7-4.2,2.3-6.8,2
		c-2.6-0.3-4.3-1.8-5-4.3c-1.1-3.9,0.9-7.3,4.8-8.3c2.3-0.6,4.5-0.4,6.7,0.3c0.4,0.1,0.7,0.2,1.1,0.3
		C440.7,350.8,440.8,350.8,441,350.7z M441,355.1C441,355.1,441,355.1,441,355.1c0-0.4-0.1-0.8,0-1.3c0.1-0.7-0.3-1-0.9-1.3
		c-1.8-0.7-3.6-0.9-5.6-0.8c-3.3,0.3-5,3.1-3.8,6.3c0.6,1.5,1.6,2.3,3.2,2.5c1.8,0.2,3.4-0.1,4.9-1.1c1.5-0.9,2.5-2.1,2.2-4
		C441,355.4,441,355.2,441,355.1z"/>
	<path d="M486,352.9c-4.7,0-9.2,0-13.9,0c0.2,2.3,0.6,4.4,2.2,6c1.3,1.4,2.9,1.9,4.7,1.6c1.3-0.2,2.5-0.8,3.7-1.2
		c0.4-0.1,0.7-0.4,1.2-0.6c0.4,0.6,0.7,1.2,1.1,1.8c-2.7,1.8-5.6,2.7-8.8,2.1c-2.3-0.5-4-1.8-5.2-3.9c-0.9-1.5-1.2-3.2-1.4-4.9
		c-0.2-2.2-0.1-4.5,0.7-6.6c1-2.7,2.7-4.7,5.6-5.5c3.9-1.1,7.6,0.7,9.2,4.4C486,348.1,486.2,350.4,486,352.9z M483.6,350.7
		c0-1.4-0.3-2.6-0.8-3.8c-0.9-2.2-2.5-3.3-4.9-3.4c-2.3,0-4,1.1-4.9,3.2c-0.6,1.2-0.8,2.5-0.9,4C476,350.7,479.7,350.7,483.6,350.7z
		"/>
	<path d="M141.5,336.4c1.6-0.8,3.2-1.6,4.9-2.5c0,9.5,0,18.9,0,28.3c-1.7,0-3.3,0-4.9,0C141.5,353.6,141.5,345.1,141.5,336.4z"/>
	<path d="M533.7,352.9c-4.7,0-9.2,0-13.9,0c0.2,2.3,0.7,4.3,2.1,5.9c1.3,1.4,3,2,4.8,1.7c1.2-0.2,2.4-0.7,3.6-1.1
		c0.4-0.1,0.7-0.4,1.2-0.7c0.4,0.6,0.7,1.1,1.2,1.8c-1.6,1.1-3.3,1.9-5.2,2.2c-1.3,0.2-2.6,0.2-3.9-0.1c-2.5-0.7-4.3-2.2-5.2-4.5
		c-1.6-3.9-1.7-7.8,0-11.6c1.7-4.1,5.7-5.9,9.8-4.6c2.1,0.7,3.6,2.1,4.5,4.1C533.8,348,533.9,350.3,533.7,352.9z M531.5,350.8
		c-0.2-1.9-0.5-3.6-1.6-5.1c-1.9-2.6-5.9-2.8-8-0.4c-1.4,1.6-1.7,3.5-2,5.6C523.8,350.8,527.6,350.8,531.5,350.8z"/>
	<path d="M422,362.3c-0.3,0-0.5,0.1-0.7,0.1c-0.5,0-1.1,0-1.7,0c-0.1-0.8-0.1-1.5-0.2-2.4c-0.3,0.2-0.5,0.4-0.6,0.6
		c-2,2.1-4.5,2.7-7.3,2.1c-2.2-0.5-3.7-1.8-4.4-3.9c-0.3-1-0.6-2.1-0.6-3.2c-0.1-4.4,0-8.7,0-13.1c0-0.1,0-0.2,0.1-0.5
		c0.8,0,1.5,0,2.5,0c0,1.4,0,2.8,0,4.3c0,2.7,0,5.5,0,8.2c0,0.9,0.2,1.8,0.4,2.7c0.6,2.2,1.9,3.3,4.1,3.5c2.1,0.2,3.9-0.5,4.9-2.4
		c0.5-0.9,0.8-1.9,0.9-2.8c0.2-2,0.2-4.1,0.2-6.2c0-2.4,0-4.8,0-7.3c0.9,0,1.6,0,2.5,0C422,348.7,422,355.4,422,362.3z"/>
	<path d="M585.7,343.4c-0.4,0.6-0.9,1.2-1.2,1.7c-1.4-0.5-2.6-1-3.8-1.4c-1.1-0.3-2.2-0.2-3.2,0.2c-1,0.3-1.6,1-1.8,2
		c-0.2,1.1,0.1,2.1,1,2.6c1.2,0.8,2.5,1.4,3.7,2.1c1.2,0.7,2.5,1.2,3.7,1.9c2.7,1.6,2.9,5.1,1.6,7.3c-1,1.7-2.6,2.4-4.5,2.7
		c-3.1,0.5-6-0.3-8.6-2.1c-0.1,0-0.1-0.1-0.2-0.3c0.4-0.6,0.9-1.1,1.3-1.8c0.6,0.4,1.2,0.8,1.8,1.1c2.1,1.1,4.2,1.5,6.4,0.6
		c1.4-0.5,2.1-1.7,1.9-3.2c-0.1-0.9-0.5-1.7-1.3-2.2c-1.2-0.7-2.4-1.3-3.6-2c-1.2-0.6-2.5-1.2-3.7-1.9c-2-1.3-2.7-3.5-2-5.7
		c0.4-1.3,1.2-2.3,2.4-2.9C578.9,340.5,583.6,341.5,585.7,343.4z"/>
	<path d="M400,343.3c-0.5,0.7-0.9,1.3-1.4,1.9c-0.4-0.2-0.8-0.5-1.2-0.7c-1.6-0.8-3.3-1.3-5.2-0.9c-1.2,0.3-2.1,0.9-2.4,2.1
		c-0.3,1.3,0.2,2.3,1.4,3c1.2,0.7,2.5,1.3,3.8,2c1.1,0.6,2.2,1.1,3.2,1.7c2.6,1.6,3.1,4.9,1.6,7.4c-0.9,1.6-2.4,2.2-4.1,2.6
		c-2.9,0.7-6.7-0.3-9.1-2.2c0.4-0.6,0.8-1.2,1.3-1.9c0.4,0.3,0.8,0.5,1.2,0.7c2.2,1.3,4.5,2,7.1,0.9c1.6-0.7,2.4-2.5,1.6-4.1
		c-0.2-0.5-0.7-1-1.1-1.3c-1.1-0.7-2.3-1.3-3.5-1.9c-1.3-0.7-2.6-1.2-3.8-2c-2.2-1.5-2.8-4.3-1.6-6.6c0.8-1.6,2.2-2.3,3.8-2.6
		C394.6,340.9,397.3,341.6,400,343.3z"/>
	<path d="M296.3,362.3c-1.7,0-3.2,0-4.8,0c-0.3-0.9-0.4-18.3-0.1-20.4c1.6,0,3.2,0,4.9,0C296.3,348.6,296.3,355.4,296.3,362.3z"/>
	<path d="M495.8,362.3c-0.9,0-1.7,0-2.5,0c0-6.1,0-12.1,0-18.3c-1,0-1.8,0-2.8,0c0-0.8,0-1.4,0-2.1c0.9,0,1.7-0.1,2.7-0.1
		c0-0.8,0-1.5,0-2.2c0-0.8,0.1-1.7,0.2-2.5c0.3-1.7,1.4-2.8,3.1-3.1c1.2-0.2,2.4,0,3.7,0c0,0.9,0,1.6,0,2.4c-0.3,0-0.6-0.1-0.8-0.1
		c-0.5,0-0.9-0.1-1.4-0.1c-1.3,0-2,0.6-2.1,1.9c-0.1,1.2,0,2.3,0,3.7c1.3,0,2.6,0,3.9,0c0,0.8,0,1.4,0,2.2c-1.3,0-2.5,0-3.9,0
		c0,0.5-0.1,1-0.1,1.4c0,5,0,10.1,0,15.1C495.9,361,495.8,361.6,495.8,362.3z"/>
	<path d="M568,341.7c0,0.4,0.1,0.7,0.1,0.9c0,0.3,0,0.7,0,1.1c-1.7,0.3-3.3,0-5.1,0.2c0,1.2,0,2.3,0,3.4c0,3.3,0,6.5,0,9.8
		c0,0.2,0,0.3,0,0.5c0.1,2.2,0.7,2.8,3,2.6c0.6,0,1.2-0.2,1.9-0.3c0,0.7-0.1,1.3-0.1,2c-1.5,0.6-2.9,0.8-4.5,0.6
		c-1.7-0.2-2.5-1.1-2.8-2.7c-0.1-0.6-0.1-1.3-0.1-1.9c0-4.2,0-8.4,0-12.6c0-0.5,0-0.9,0-1.5c-0.9,0-1.6,0-2.5,0c0-0.8,0-1.4,0-2.2
		c0.8,0,1.6-0.1,2.5-0.1c0-1.7,0.1-3.3,0-4.9c-0.1-1.1,0.3-1.7,1.2-2.1c0.4-0.2,0.7-0.4,1.3-0.7c0.2,2.6,0,5.1,0.1,7.7
		C564.6,341.7,566.3,341.7,568,341.7z"/>
	<path d="M355.9,341.8c1,0,1.9,0,2.8,0c1.9,5.8,3.8,11.5,5.7,17.3c0.1,0,0.2,0,0.2,0c1.9-5.8,3.7-11.5,5.6-17.3c0.9,0,1.7,0,2.7,0
		c-2.4,6.9-4.9,13.6-7.3,20.5c-0.8,0-1.5,0-2.4,0C360.8,355.5,358.4,348.7,355.9,341.8z"/>
	<path d="M553.9,343.5c-0.6,0.7-1,1.4-1.5,2c-0.7-0.4-1.3-0.8-1.9-1.2c-3.4-1.8-7-0.5-8.3,3.1c-1.1,3.2-1.1,6.3,0.2,9.5
		c1.4,3.4,5.1,4.6,8.2,2.7c0.6-0.3,1.1-0.8,1.7-1.2c0.5,0.5,0.9,1,1.5,1.6c-0.4,0.3-0.7,0.7-1,0.9c-3.7,2.8-10.5,2.8-13.1-3.5
		c-1.4-3.5-1.4-7.1,0-10.6c2-5.1,7.3-6.9,12.3-4.5C552.6,342.7,553.2,343.1,553.9,343.5z"/>
	<path d="M513.8,333.9c0,0.9,0,1.6,0,2.5c-0.3,0-0.7-0.1-1-0.1c-0.5,0-1.1-0.1-1.6-0.1c-1,0.1-1.5,0.6-1.8,1.5
		c-0.1,0.3-0.1,0.6-0.1,0.9c0,1,0,2,0,3.2c0.8,0,1.4,0,2.1,0c0.6,0,1.2,0,1.9,0c0,0.8,0,1.4,0,2.1c-1.3,0-2.5,0-3.9,0
		c-0.1,1.6,0,3.1-0.1,4.6c0,1.6,0,3.1,0,4.7c0,1.5,0,3,0,4.5c0,1.5,0,3,0,4.6c-0.8,0-1.6,0-2.5,0c-0.2-1.1-0.1-2.3-0.1-3.5
		c0-1.2,0-2.4,0-3.7c0-1.2,0-2.4,0-3.7c0-1.2,0-2.4,0-3.7c0-1.2,0-2.4,0-3.7c-1-0.1-1.9-0.1-2.8-0.1c0-0.7,0-1.3,0-2
		c0.5,0,0.9,0,1.4-0.1c0.4,0,0.8,0,1.4,0c0-0.5,0-1,0.1-1.4c0-1,0-1.9,0.1-2.9c0.2-2.1,1.6-3.4,3.7-3.6
		C511.6,333.8,512.6,333.9,513.8,333.9z"/>
	<path d="M453.2,334c0,9.6,0,18.9,0,28.3c-0.8,0-1.6,0-2.4,0c0-0.3-0.1-0.6-0.1-0.9c0-8.3,0-16.7,0-25c0-0.7,0.2-1.1,0.8-1.4
		C452,334.7,452.5,334.4,453.2,334z"/>
	<path d="M378.6,362.3c0-6.8,0-13.6,0-20.4c0.8,0,1.6,0,2.4,0c0,6.8,0,13.6,0,20.4C380.2,362.3,379.4,362.3,378.6,362.3z"/>
	<path d="M296.9,336.7c0,1.6-1.4,3-2.9,3c-1.6,0-3-1.4-3-2.9c0-1.6,1.4-2.9,3-3C295.5,333.8,296.9,335.2,296.9,336.7z"/>
	<path d="M379.8,333.8c1,0,1.9,0.9,1.9,1.9c0,1.1-0.8,2-2,2c-1,0-1.9-0.9-1.9-1.9C377.8,334.7,378.7,333.8,379.8,333.8z"/>
</g>
</svg>
