<svg xmlns="http://www.w3.org/2000/svg" viewBox="0 0 593.86 129.22"><title>Asset 1</title><g id="99492f53-1f21-4bca-b3d3-173944aaf5c0" data-name="Layer 2"><g id="5c2cac48-1859-49fd-88f1-3147bf372d6e" data-name="Layer 1"><g id="1f12d399-0066-42ba-87e2-70babbc0bde4" data-name="g3500"><path id="394bc9c3-3321-42c1-9504-f68b1ccea41d" data-name="path3502" d="M67.16,53.43C36.24,48,3.94,58.67.33,79.21s22.82,43.15,53.75,48.6,63.44-5.17,67-25.71-23-43.23-54-48.67m-12.3,70.15c-27.42-4.83-47-23.5-43.84-41.71S39,52.8,66.46,57.62s47,23.49,43.85,41.7-28,29.07-55.44,24.25" style="fill:#04a"/><path id="029d27c5-a870-4cd1-8be9-7e30bd815746" data-name="path3504" d="M99.4,44.12C77.26,21.84,44.71,12,29.92,26.66S23.7,75.09,45.83,97.36s54.81,32.33,69.6,17.64,6.1-48.6-16-70.88M48.91,94.34C29.28,74.59,24,48,37.12,35s39.65-7.6,59.28,12.15,24.91,46.32,11.79,59.36-39.66,7.59-59.28-12.15" style="fill:#003380"/><path id="8ddf4bb1-9988-4a07-a615-cca886672ce0" data-name="path3506" d="M130.09,54.35c-5.44-30.93-26.5-57.64-47-54S50.26,36.52,55.7,67.44s26.51,57.85,47.05,54.24,32.78-36.4,27.34-67.33M60,66.72C55.13,39.3,66,14.48,84.19,11.28S121.07,27.7,125.9,55.12s-6,52.24-24.24,55.45S64.78,94.14,60,66.72" style="fill:#025"/><path id="17ba0687-96e2-458f-8f4e-75aac8b4ef5e" data-name="path3508" d="M196.79,90.32a3.31,3.31,0,0,1-.95,2.68,3.24,3.24,0,0,1-2.16.8H165a26.8,26.8,0,0,0,.73,6.53,12.62,12.62,0,0,0,2.43,5,10.91,10.91,0,0,0,4.42,3.19,17.63,17.63,0,0,0,6.65,1.11,27,27,0,0,0,5.54-.51,32.1,32.1,0,0,0,4.2-1.15c1.19-.42,2.16-.8,2.91-1.14a4.78,4.78,0,0,1,1.73-.51,1.14,1.14,0,0,1,.61.17,1.11,1.11,0,0,1,.41.51,3.67,3.67,0,0,1,.21.94,11.53,11.53,0,0,1,.08,1.47c0,.42,0,.77,0,1.08s-.08.58-.12.83a2.07,2.07,0,0,1-.24.65,2.48,2.48,0,0,1-.44.55,7.08,7.08,0,0,1-1.57.87,23.57,23.57,0,0,1-3.38,1.2,48.69,48.69,0,0,1-4.8,1,35.35,35.35,0,0,1-5.82.46,26.92,26.92,0,0,1-9.4-1.5,17.37,17.37,0,0,1-6.78-4.44,18.9,18.9,0,0,1-4.16-7.4,34.49,34.49,0,0,1-1.4-10.33,32.68,32.68,0,0,1,1.45-10.08,21.22,21.22,0,0,1,4.18-7.58A18.21,18.21,0,0,1,169,70a21.59,21.59,0,0,1,8.64-1.67,20.92,20.92,0,0,1,8.72,1.64,16.46,16.46,0,0,1,5.92,4.43,17.75,17.75,0,0,1,3.4,6.52,28.57,28.57,0,0,1,1.09,8v1.45Zm-8-2.35q.14-6.29-2.8-9.86c-2-2.38-4.87-3.58-8.72-3.58a11.44,11.44,0,0,0-5.2,1.11,11.27,11.27,0,0,0-3.75,2.95A13.57,13.57,0,0,0,166,82.88,17.91,17.91,0,0,0,165,88h23.72Z" style="fill:#003380"/><path id="23dc9a63-6254-44c4-a753-dde79d48a8b2" data-name="path3510" d="M240.14,107.29c0,.54,0,1,0,1.42a6.12,6.12,0,0,1-.16,1,4.16,4.16,0,0,1-.3.72,4.74,4.74,0,0,1-.77.92,12.12,12.12,0,0,1-2.05,1.5,19.08,19.08,0,0,1-3.26,1.61,24.73,24.73,0,0,1-3.94,1.14,21.66,21.66,0,0,1-4.39.44,20.89,20.89,0,0,1-8.3-1.55,15.6,15.6,0,0,1-6.06-4.51,20.45,20.45,0,0,1-3.72-7.3,35.21,35.21,0,0,1-1.28-10,34.4,34.4,0,0,1,1.57-11,20.84,20.84,0,0,1,4.29-7.56,17.06,17.06,0,0,1,6.42-4.37,22.14,22.14,0,0,1,8-1.42,20.84,20.84,0,0,1,4,.39,21.56,21.56,0,0,1,3.59,1,15.55,15.55,0,0,1,2.92,1.45,11,11,0,0,1,1.85,1.4,6.23,6.23,0,0,1,.8.92,3.38,3.38,0,0,1,.36.8,4.28,4.28,0,0,1,.19,1c0,.39,0,.87,0,1.45a5.65,5.65,0,0,1-.43,2.64,1.24,1.24,0,0,1-1.06.75,2.73,2.73,0,0,1-1.67-.8,27,27,0,0,0-2.38-1.77,17.88,17.88,0,0,0-3.51-1.77,13.25,13.25,0,0,0-4.85-.81,10.06,10.06,0,0,0-8.81,4.42q-3.07,4.41-3.07,12.8a30.3,30.3,0,0,0,.8,7.36,15.26,15.26,0,0,0,2.34,5.29,9.63,9.63,0,0,0,3.79,3.16,12.14,12.14,0,0,0,5.14,1,12.38,12.38,0,0,0,4.83-.87,20.1,20.1,0,0,0,3.6-1.91q1.52-1,2.56-1.88a3,3,0,0,1,1.62-.85.9.9,0,0,1,.58.2,1.52,1.52,0,0,1,.4.65,4.65,4.65,0,0,1,.24,1.16,15.82,15.82,0,0,1,.08,1.67" style="fill:#003380"/><path id="d4d42c3f-1954-45ab-9061-e27f3a278f06" data-name="path3512" d="M290.33,91.72a32.7,32.7,0,0,1-1.4,9.78,21.62,21.62,0,0,1-4.18,7.71,18.94,18.94,0,0,1-7,5,24.24,24.24,0,0,1-9.68,1.81,25,25,0,0,1-9.34-1.6,17,17,0,0,1-6.64-4.63,19.73,19.73,0,0,1-4-7.39,34.58,34.58,0,0,1-1.3-9.85,33.12,33.12,0,0,1,1.38-9.78,21.31,21.31,0,0,1,4.15-7.7,18.78,18.78,0,0,1,6.94-5A24.33,24.33,0,0,1,269,68.29a25.14,25.14,0,0,1,9.34,1.6A17.06,17.06,0,0,1,285,74.53a19.82,19.82,0,0,1,4,7.38,33.64,33.64,0,0,1,1.33,9.81m-8.24.53a32.36,32.36,0,0,0-.66-6.67,16.39,16.39,0,0,0-2.17-5.5,10.75,10.75,0,0,0-4.1-3.74,15.7,15.7,0,0,0-12.56-.12,11.19,11.19,0,0,0-4.22,3.54,16,16,0,0,0-2.46,5.43,27.38,27.38,0,0,0-.81,6.86,32.58,32.58,0,0,0,.66,6.71,15.8,15.8,0,0,0,2.2,5.48,11.06,11.06,0,0,0,4.12,3.71,13.62,13.62,0,0,0,6.44,1.38,13.76,13.76,0,0,0,6.1-1.26,11.22,11.22,0,0,0,4.24-3.53,15.36,15.36,0,0,0,2.44-5.4,28.67,28.67,0,0,0,.78-6.9" style="fill:#003380"/><path id="1427ae5c-0819-46aa-84a8-2195cd9ffa4b" data-name="path3514" d="M366.58,114a1.05,1.05,0,0,1-.2.65,1.46,1.46,0,0,1-.62.46,4.42,4.42,0,0,1-1.21.29,16.38,16.38,0,0,1-1.94.1,16.7,16.7,0,0,1-2-.1,4.85,4.85,0,0,1-1.23-.29,1.49,1.49,0,0,1-.65-.46,1.08,1.08,0,0,1-.19-.65V87.55a24.86,24.86,0,0,0-.48-5,11.8,11.8,0,0,0-1.55-3.91,7.31,7.31,0,0,0-2.71-2.52,8.21,8.21,0,0,0-3.87-.87,9.11,9.11,0,0,0-5.54,2.13,38.4,38.4,0,0,0-6.11,6.23V114a1.05,1.05,0,0,1-.2.65,1.52,1.52,0,0,1-.65.46,4.86,4.86,0,0,1-1.24.29,19.45,19.45,0,0,1-3.84,0,4.92,4.92,0,0,1-1.25-.29,1.27,1.27,0,0,1-.63-.46,1.1,1.1,0,0,1-.17-.65V87.55a22.17,22.17,0,0,0-.53-5,12.52,12.52,0,0,0-1.59-3.91,7.3,7.3,0,0,0-2.68-2.52,8,8,0,0,0-3.83-.87,9.2,9.2,0,0,0-5.55,2.13,36.13,36.13,0,0,0-6.07,6.23V114a1.05,1.05,0,0,1-.2.65,1.46,1.46,0,0,1-.63.46,4.44,4.44,0,0,1-1.21.29,17,17,0,0,1-2,.1,16.25,16.25,0,0,1-1.94-.1,4.85,4.85,0,0,1-1.23-.29,1.29,1.29,0,0,1-.63-.46,1.15,1.15,0,0,1-.17-.65V70.47a1.31,1.31,0,0,1,.14-.65,1.28,1.28,0,0,1,.58-.48,3.09,3.09,0,0,1,1.11-.29,21.59,21.59,0,0,1,3.55,0,2.76,2.76,0,0,1,1.1.29,1.57,1.57,0,0,1,.55.48,1.17,1.17,0,0,1,.17.65v5.75a28.29,28.29,0,0,1,7.12-6,14.23,14.23,0,0,1,7-1.92,17.21,17.21,0,0,1,4.86.63A13.08,13.08,0,0,1,332,70.69a12,12,0,0,1,2.8,2.71,15.73,15.73,0,0,1,1.93,3.51,44.19,44.19,0,0,1,4.13-4,24.71,24.71,0,0,1,3.77-2.66,15.53,15.53,0,0,1,3.53-1.48,13.41,13.41,0,0,1,3.46-.46,15.26,15.26,0,0,1,7.06,1.48,12.85,12.85,0,0,1,4.62,3.94,15.77,15.77,0,0,1,2.52,5.78,32,32,0,0,1,.75,7V114Z" style="fill:#025"/><path id="29ff26f0-5481-4524-9906-6875ef348bff" data-name="path3516" d="M418.2,90.32a3.3,3.3,0,0,1-1,2.68,3.22,3.22,0,0,1-2.15.8H386.44a26.7,26.7,0,0,0,.73,6.53,12.57,12.57,0,0,0,2.43,5,10.94,10.94,0,0,0,4.42,3.19,17.64,17.64,0,0,0,6.65,1.11,27,27,0,0,0,5.53-.51,31.87,31.87,0,0,0,4.2-1.15c1.19-.42,2.15-.8,2.92-1.14a4.77,4.77,0,0,1,1.72-.51,1.13,1.13,0,0,1,.61.17,1.11,1.11,0,0,1,.41.51,3.39,3.39,0,0,1,.22.94c0,.4.08.89.08,1.47a9,9,0,0,1-.06,1.08,7,7,0,0,1-.11.83,2.34,2.34,0,0,1-.24.65,3.31,3.31,0,0,1-.43.55,7.43,7.43,0,0,1-1.58.87,23.68,23.68,0,0,1-3.38,1.2,48.76,48.76,0,0,1-4.81,1,35.2,35.2,0,0,1-5.82.46,26.87,26.87,0,0,1-9.39-1.5,17.37,17.37,0,0,1-6.79-4.44,19.07,19.07,0,0,1-4.16-7.4,34.59,34.59,0,0,1-1.4-10.33,32.4,32.4,0,0,1,1.46-10.08,21.21,21.21,0,0,1,4.17-7.58A18.3,18.3,0,0,1,390.42,70a21.61,21.61,0,0,1,8.65-1.67,21,21,0,0,1,8.72,1.64,16.59,16.59,0,0,1,5.92,4.43,17.66,17.66,0,0,1,3.4,6.52,28.83,28.83,0,0,1,1.09,8v1.45Zm-8-2.35q.15-6.29-2.8-9.86t-8.72-3.58a11.45,11.45,0,0,0-5.2,1.11,11.19,11.19,0,0,0-3.74,2.95,13.34,13.34,0,0,0-2.33,4.28,17.72,17.72,0,0,0-.93,5.09h23.73Z" style="fill:#025"/><path id="08818773-6ca1-44e0-a70d-1372fc57299a" data-name="path3518" d="M452.4,110.77a10.2,10.2,0,0,1-.19,2.23,2.41,2.41,0,0,1-.58,1.21,3.69,3.69,0,0,1-1.16.73,10,10,0,0,1-1.76.56c-.67.14-1.37.27-2.11.36a16.42,16.42,0,0,1-2.23.15,17,17,0,0,1-5.8-.89,9.38,9.38,0,0,1-4-2.71,11.16,11.16,0,0,1-2.25-4.59,27.06,27.06,0,0,1-.7-6.54V75.85h-6.08a1.28,1.28,0,0,1-1.15-.77,5.23,5.23,0,0,1-.44-2.51,8.1,8.1,0,0,1,.13-1.54,4,4,0,0,1,.31-1,1.18,1.18,0,0,1,.5-.58,1.48,1.48,0,0,1,.7-.17h6v-13a1.25,1.25,0,0,1,.16-.62,1.38,1.38,0,0,1,.63-.51,4.36,4.36,0,0,1,1.24-.31,15.64,15.64,0,0,1,1.94-.1,15.91,15.91,0,0,1,2,.1,4,4,0,0,1,1.21.31,1.62,1.62,0,0,1,.64.51,1.16,1.16,0,0,1,.19.62v13H450.8a1.32,1.32,0,0,1,.67.17A1.43,1.43,0,0,1,452,70a3.51,3.51,0,0,1,.31,1,10,10,0,0,1,.1,1.54,5.39,5.39,0,0,1-.43,2.51,1.3,1.3,0,0,1-1.16.77H439.64V100.1a13.78,13.78,0,0,0,1.34,6.79c.88,1.52,2.47,2.29,4.76,2.29a7.91,7.91,0,0,0,2-.22,14.37,14.37,0,0,0,1.55-.46q.68-.24,1.16-.46a2.12,2.12,0,0,1,.87-.22.9.9,0,0,1,.46.13.82.82,0,0,1,.34.45,6.13,6.13,0,0,1,.21.92,8.92,8.92,0,0,1,.1,1.45" style="fill:#025"/><path id="99267cb3-e591-4c85-880f-aeab2399a0e6" data-name="path3520" d="M488.31,73.33c0,.71,0,1.31,0,1.8a4.35,4.35,0,0,1-.2,1.13,1.65,1.65,0,0,1-.36.63.8.8,0,0,1-.6.22,2.51,2.51,0,0,1-.94-.22c-.37-.14-.8-.29-1.26-.43s-1-.28-1.58-.41a8.45,8.45,0,0,0-1.87-.2,6.24,6.24,0,0,0-2.37.48,9.43,9.43,0,0,0-2.44,1.59,20.23,20.23,0,0,0-2.67,3q-1.41,1.84-3.1,4.49V114a1.06,1.06,0,0,1-.19.65,1.49,1.49,0,0,1-.64.46,4.44,4.44,0,0,1-1.21.29,16.66,16.66,0,0,1-2,.1,16.12,16.12,0,0,1-1.93-.1,4.88,4.88,0,0,1-1.24-.29,1.3,1.3,0,0,1-.63-.46,1.23,1.23,0,0,1-.17-.65V70.47a1.35,1.35,0,0,1,.15-.65,1.26,1.26,0,0,1,.57-.48,3.12,3.12,0,0,1,1.11-.29,20.82,20.82,0,0,1,3.55,0,2.73,2.73,0,0,1,1.09.29,1.57,1.57,0,0,1,.56.48,1.22,1.22,0,0,1,.16.65V76.8a34.34,34.34,0,0,1,3.36-4.25,18.68,18.68,0,0,1,3-2.59,9.16,9.16,0,0,1,2.78-1.3,10.74,10.74,0,0,1,2.78-.37c.42,0,.9,0,1.42.08a11.91,11.91,0,0,1,1.66.27,14.38,14.38,0,0,1,1.57.44,3.13,3.13,0,0,1,1,.48A1.36,1.36,0,0,1,488,70a3,3,0,0,1,.17.56,7.42,7.42,0,0,1,.09,1c0,.44,0,1,0,1.77" style="fill:#025"/><path id="7c600ae0-2601-4205-bff5-8920a748e12e" data-name="path3522" d="M506.32,55.81q0,2.8-1.06,3.81c-.71.68-2,1-3.92,1s-3.15-.33-3.84-1-1-1.91-1-3.74.35-3.13,1.07-3.81,2-1,3.91-1,3.16.33,3.85,1,1,1.91,1,3.74M505.37,114a1.07,1.07,0,0,1-.19.65,1.48,1.48,0,0,1-.63.46,4.49,4.49,0,0,1-1.21.29,16.74,16.74,0,0,1-2,.1,16.05,16.05,0,0,1-1.93-.1,4.86,4.86,0,0,1-1.24-.29,1.37,1.37,0,0,1-.63-.46,1.24,1.24,0,0,1-.16-.65V70.47a1.28,1.28,0,0,1,.16-.62,1.33,1.33,0,0,1,.63-.48,5,5,0,0,1,1.24-.29,16.16,16.16,0,0,1,1.93-.09,16.65,16.65,0,0,1,2,.09,4.56,4.56,0,0,1,1.21.29,1.42,1.42,0,0,1,.63.48,1.1,1.1,0,0,1,.19.63Z" style="fill:#025"/><path id="e066319a-2ee6-4b9b-9e46-2bffc062f6ff" data-name="path3524" d="M551.32,107.29c0,.54,0,1,0,1.42a5.1,5.1,0,0,1-.17,1,3.8,3.8,0,0,1-.29.72,4.76,4.76,0,0,1-.77.92,12.15,12.15,0,0,1-2,1.5,19.38,19.38,0,0,1-3.26,1.61,24.81,24.81,0,0,1-3.94,1.14,21.72,21.72,0,0,1-4.39.44,21,21,0,0,1-8.31-1.55A15.69,15.69,0,0,1,522,110a20.42,20.42,0,0,1-3.72-7.3,35.14,35.14,0,0,1-1.28-10,34.31,34.31,0,0,1,1.57-11,20.83,20.83,0,0,1,4.3-7.56,17,17,0,0,1,6.42-4.37,22.11,22.11,0,0,1,8-1.42,20.71,20.71,0,0,1,4,.39,21.57,21.57,0,0,1,3.6,1,16,16,0,0,1,2.92,1.45,11.38,11.38,0,0,1,1.86,1.4,6.77,6.77,0,0,1,.8.92,3.68,3.68,0,0,1,.36.8,5,5,0,0,1,.19,1q0,.58,0,1.45a5.69,5.69,0,0,1-.44,2.64,1.23,1.23,0,0,1-1.06.75,2.71,2.71,0,0,1-1.66-.8,27.91,27.91,0,0,0-2.39-1.77,17.82,17.82,0,0,0-3.5-1.77,13.26,13.26,0,0,0-4.86-.81,10.07,10.07,0,0,0-8.81,4.42q-3.07,4.41-3.06,12.8a30.44,30.44,0,0,0,.79,7.36,15.24,15.24,0,0,0,2.35,5.29,9.65,9.65,0,0,0,3.79,3.16,12.18,12.18,0,0,0,5.15,1,12.39,12.39,0,0,0,4.83-.87,20.36,20.36,0,0,0,3.6-1.91c1-.69,1.87-1.32,2.56-1.88a3,3,0,0,1,1.61-.85.87.87,0,0,1,.58.2,1.52,1.52,0,0,1,.42.65,4.73,4.73,0,0,1,.23,1.16,13.46,13.46,0,0,1,.08,1.67" style="fill:#025"/><path id="21da33ef-41c4-4146-8b3d-5c82e931a56a" data-name="path3526" d="M593.86,114a1,1,0,0,1-.39.88,2.83,2.83,0,0,1-1.07.44,10.19,10.19,0,0,1-2,.14,11.15,11.15,0,0,1-2-.14,2.41,2.41,0,0,1-1.09-.44A1.11,1.11,0,0,1,587,114v-4.35a21,21,0,0,1-6.35,4.71,17.1,17.1,0,0,1-7.41,1.67,20,20,0,0,1-6.2-.9,13.4,13.4,0,0,1-4.73-2.58,11.52,11.52,0,0,1-3-4.15,13.73,13.73,0,0,1-1.08-5.6,13,13,0,0,1,1.5-6.37A12.5,12.5,0,0,1,564,92a21.23,21.23,0,0,1,6.85-2.67,42.22,42.22,0,0,1,9.13-.9h6V85a16.93,16.93,0,0,0-.53-4.45,7.69,7.69,0,0,0-1.72-3.22,7.22,7.22,0,0,0-3.07-1.93,14.22,14.22,0,0,0-4.64-.66,18.36,18.36,0,0,0-5.29.7A29.5,29.5,0,0,0,566.57,77c-1.17.57-2.16,1.09-3,1.56a4,4,0,0,1-1.76.71,1.16,1.16,0,0,1-.67-.2,1.67,1.67,0,0,1-.51-.58,3.13,3.13,0,0,1-.31-1,8.44,8.44,0,0,1-.1-1.33,8.25,8.25,0,0,1,.17-1.92,2.75,2.75,0,0,1,.81-1.33,10.42,10.42,0,0,1,2.26-1.48,25.29,25.29,0,0,1,3.67-1.54,32.94,32.94,0,0,1,4.54-1.15,27.2,27.2,0,0,1,5-.46,26.11,26.11,0,0,1,8,1.07A12.94,12.94,0,0,1,590,72.48a12.1,12.1,0,0,1,2.95,5.1,25,25,0,0,1,.92,7.11V114Zm-7.92-19.85h-6.8a25.56,25.56,0,0,0-5.7.55,11.77,11.77,0,0,0-4,1.64A6.77,6.77,0,0,0,567.1,99a7.79,7.79,0,0,0-.75,3.5,7,7,0,0,0,2.15,5.36,8.45,8.45,0,0,0,6,2,11.17,11.17,0,0,0,5.81-1.59,25.16,25.16,0,0,0,5.62-4.86V94.17Z" style="fill:#025"/></g></g></g></svg>