<?xml version="1.0" encoding="UTF-8" standalone="no"?>
<!-- Created with Inkscape (http://www.inkscape.org/) -->

<svg
   xmlns:dc="http://purl.org/dc/elements/1.1/"
   xmlns:cc="http://creativecommons.org/ns#"
   xmlns:rdf="http://www.w3.org/1999/02/22-rdf-syntax-ns#"
   xmlns:svg="http://www.w3.org/2000/svg"
   xmlns="http://www.w3.org/2000/svg"
   xmlns:sodipodi="http://sodipodi.sourceforge.net/DTD/sodipodi-0.dtd"
   xmlns:inkscape="http://www.inkscape.org/namespaces/inkscape"
   id="svg3355"
   version="1.1"
   inkscape:version="0.91 r13725"
   xml:space="preserve"
   width="389"
   height="122"
   viewBox="0 0 389 122"
   sodipodi:docname="efficios.svg"><metadata
     id="metadata3361"><rdf:RDF><cc:Work
         rdf:about=""><dc:format>image/svg+xml</dc:format><dc:type
           rdf:resource="http://purl.org/dc/dcmitype/StillImage" /><dc:title></dc:title></cc:Work></rdf:RDF></metadata><defs
     id="defs3359"><clipPath
       clipPathUnits="userSpaceOnUse"
       id="clipPath3367"><path
         d="M 0,0 612,0 612,792 0,792 0,0 Z"
         id="path3369"
         inkscape:connector-curvature="0" /></clipPath></defs><sodipodi:namedview
     pagecolor="#ffffff"
     bordercolor="#666666"
     borderopacity="1"
     objecttolerance="10"
     gridtolerance="10"
     guidetolerance="10"
     inkscape:pageopacity="0"
     inkscape:pageshadow="2"
     inkscape:window-width="2556"
     inkscape:window-height="1399"
     id="namedview3357"
     showgrid="false"
     inkscape:zoom="1.2535354"
     inkscape:cx="333.03989"
     inkscape:cy="495"
     inkscape:window-x="1920"
     inkscape:window-y="18"
     inkscape:window-maximized="0"
     inkscape:current-layer="g3363" /><g
     id="g3363"
     inkscape:groupmode="layer"
     inkscape:label="efficios-logo28"
     transform="matrix(1.25,0,0,-1.25,0,122)"><g
       id="g3365"
       clip-path="url(#clipPath3367)"
       inkscape:export-xdpi="135.48865"
       inkscape:export-ydpi="135.48865"
       transform="translate(-148.06124,-404.61563)"><g
         id="g3371"><g
           id="g3373"
           transform="translate(339.479,493.101)"><path
             d="m 32.1,-69 c -9,0 -16.6,3.182 -22.8,9.549 C 3.1,-53.085 0,-44.768 0,-34.5 0,-24.435 3.066,-16.167 9.201,-9.701 15.333,-3.235 23.166,0 32.701,0 42.3,0 50.15,-3.218 56.25,-9.651 62.35,-16.085 65.4,-24.5 65.4,-34.901 65.4,-44.968 62.316,-53.167 56.15,-59.5 49.983,-65.835 41.966,-69 32.1,-69 Z M 54,-34.8 c 0,4.8 -0.467,9.065 -1.4,12.8 -0.934,3.732 -2.117,6.732 -3.55,9 -1.434,2.265 -3.117,4.132 -5.05,5.599 -1.934,1.466 -3.817,2.466 -5.65,3 -1.834,0.533 -3.717,0.8 -5.649,0.8 -3.268,0 -6.201,-0.699 -8.801,-2.1 -2.6,-1.4 -4.65,-3.15 -6.15,-5.25 -1.5,-2.099 -2.75,-4.584 -3.75,-7.45 -1,-2.867 -1.684,-5.617 -2.049,-8.25 -0.368,-2.634 -0.551,-5.317 -0.551,-8.05 0,-3.4 0.333,-6.734 1,-10 0.666,-3.267 1.733,-6.534 3.2,-9.799 1.466,-3.268 3.65,-5.901 6.55,-7.901 2.9,-2 6.35,-3 10.35,-3 4.066,0 7.583,1 10.55,3 2.966,2 5.2,4.633 6.7,7.901 1.5,3.265 2.583,6.532 3.25,9.799 0.666,3.266 1,6.566 1,9.901 z"
             style="fill:#c5000a;fill-opacity:1;fill-rule:evenodd;stroke:none"
             id="path3375"
             inkscape:connector-curvature="0" /></g></g><g
         id="g3377"><g
           id="g3379"
           transform="translate(412.279,493.101)"><path
             d="m 34.8,-54.101 c 0,3.133 -1.1,5.916 -3.3,8.351 -2.2,2.432 -4.867,4.515 -8,6.25 -3.134,1.732 -6.25,3.515 -9.349,5.349 -3.101,1.833 -5.75,4.183 -7.951,7.05 -2.2,2.866 -3.299,6.2 -3.299,10 0,5.066 1.715,9.184 5.149,12.351 3.433,3.165 7.483,4.75 12.15,4.75 2.8,0 5.833,-0.568 9.1,-1.701 3.266,-1.134 5.233,-1.7 5.9,-1.7 1.733,0 2.8,1.133 3.201,3.401 0,0 2.099,0 2.099,0 0,0 2.2,-21.3 2.2,-21.3 0,0 -2.5,0 -2.5,0 -1.6,5.865 -4.049,10.199 -7.35,13 -3.3,2.8 -6.949,4.199 -10.949,4.199 -3.068,0 -5.568,-0.867 -7.5,-2.6 -1.935,-1.734 -2.901,-3.966 -2.901,-6.7 0,-2.667 1.133,-5.2 3.401,-7.599 2.265,-2.401 6.032,-5.068 11.299,-8 6.6,-3.535 11.366,-7.018 14.3,-10.451 2.933,-3.434 4.401,-7.216 4.401,-11.349 0,-5.135 -1.968,-9.45 -5.901,-12.95 -3.934,-3.5 -8.767,-5.25 -14.5,-5.25 -3.334,0 -6.717,0.567 -10.15,1.7 -3.434,1.133 -5.55,1.699 -6.35,1.699 -0.734,0 -1.367,-0.316 -1.9,-0.949 -0.534,-0.635 -0.834,-1.416 -0.9,-2.351 0,0 -2.2,0 -2.2,0 0,0 -3,21.2 -3,21.2 0,0 2.3,0 2.3,0 2.466,-6.067 5.333,-10.534 8.601,-13.4 3.265,-2.867 7.132,-4.3 11.599,-4.3 3.666,0 6.633,1.05 8.901,3.151 2.265,2.099 3.399,4.815 3.399,8.149 z"
             style="fill:#c5000a;fill-opacity:1;fill-rule:evenodd;stroke:none"
             id="path3381"
             inkscape:connector-curvature="0" /></g></g><g
         id="g3383"><g
           id="g3385"
           transform="translate(251.777,467.837)"><path
             d="m 8.736,-38.881 c 1.471,0 4.095,2.496 7.872,7.488 0,0 1.248,-1.055 1.248,-1.055 -2.752,-4.033 -5.121,-6.865 -7.104,-8.496 -1.984,-1.632 -4.096,-2.449 -6.336,-2.449 -2.945,0 -4.416,1.825 -4.416,5.472 0,1.856 0.703,5.344 2.112,10.465 0,0 4.608,16.991 4.608,16.991 0.576,1.921 0.864,3.327 0.864,4.225 0,0.96 -0.369,1.567 -1.104,1.824 -0.736,0.255 -2.385,0.415 -4.944,0.479 0,0 0,1.537 0,1.537 2.943,0.254 8.064,1.055 15.36,2.4 0,0 0.288,-0.192 0.288,-0.192 0,0 -9.023,-33.025 -9.023,-33.025 C 7.52,-35.521 7.2,-36.929 7.2,-37.441 c 0,-0.321 0.159,-0.64 0.48,-0.959 0.319,-0.322 0.672,-0.481 1.056,-0.481 z"
             style="fill:#000000;fill-opacity:1;fill-rule:evenodd;stroke:none"
             id="path3387"
             inkscape:connector-curvature="0" /></g></g><g
         id="g3389"><g
           id="g3391"
           transform="translate(270.451,467.837)"><path
             d="m 27.361,-2.017 c -3.84,0 -7.265,-1.52 -10.273,-4.559 -3.009,-3.041 -5.231,-6.593 -6.672,-10.657 -1.439,-4.065 -2.16,-7.984 -2.16,-11.759 0,-3.394 0.769,-6.065 2.305,-8.017 1.536,-1.953 3.679,-2.928 6.431,-2.928 2.368,0 4.592,0.591 6.672,1.777 2.079,1.183 4.432,3.182 7.057,6 0,0 1.535,-0.96 1.535,-0.96 -2.88,-3.649 -5.728,-6.274 -8.544,-7.872 -2.816,-1.6 -6.016,-2.401 -9.6,-2.401 -4.48,0 -7.953,1.263 -10.416,3.792 C 1.232,-37.073 0,-33.537 0,-28.992 0,-21.505 2.848,-14.801 8.544,-8.881 14.24,-2.962 20.672,0 27.841,0 c 2.88,0 5.279,-0.737 7.199,-2.208 1.92,-1.474 2.88,-3.329 2.88,-5.568 0,-1.217 -0.448,-2.256 -1.344,-3.121 -0.896,-0.864 -1.984,-1.295 -3.263,-1.295 -2.496,0 -3.744,1.214 -3.744,3.648 0,0.639 0.24,1.487 0.719,2.544 0.481,1.056 0.721,1.742 0.721,2.063 0,1.28 -1.217,1.92 -3.648,1.92 z"
             style="fill:#000000;fill-opacity:1;fill-rule:evenodd;stroke:none"
             id="path3393"
             inkscape:connector-curvature="0" /></g></g><g
         id="g3395"><g
           id="g3397"
           transform="translate(321.809,487.7)"><path
             d="m 3.71651,0 c 1.03589,0 1.92583,-0.38246 2.66913,-1.14806 0.7433,-0.76696 1.11495,-1.6677 1.11495,-2.70292 0,-0.99197 -0.38314,-1.84812 -1.14874,-2.56845 -0.76695,-0.71965 -1.68932,-1.08116 -2.77049,-1.08116 -0.94602,0 -1.77987,0.36151 -2.50019,1.08116 C 0.36016,-5.6991 0,-4.84295 0,-3.85098 0,-2.81576 0.37165,-1.91502 1.11495,-1.14806 1.85825,-0.38246 2.72522,0 3.71651,0 Z"
             style="fill:#000000;fill-opacity:1;fill-rule:evenodd;stroke:none"
             id="path3399"
             inkscape:connector-curvature="0" /></g></g><g
         id="g3401"><g
           id="g3403"
           transform="translate(308.777,467.837)"><path
             d="m 8.736,-38.881 c 1.471,0 4.095,2.496 7.872,7.488 0,0 1.248,-1.055 1.248,-1.055 -2.752,-4.033 -5.121,-6.865 -7.104,-8.496 -1.984,-1.632 -4.096,-2.449 -6.336,-2.449 -2.945,0 -4.416,1.825 -4.416,5.472 0,1.856 0.703,5.344 2.112,10.465 0,0 4.608,16.991 4.608,16.991 0.576,1.921 0.864,3.327 0.864,4.225 0,0.96 -0.369,1.567 -1.104,1.824 -0.736,0.255 -2.385,0.415 -4.944,0.479 0,0 0,1.537 0,1.537 2.943,0.254 8.064,1.055 15.36,2.4 0,0 0.288,-0.192 0.288,-0.192 0,0 -9.023,-33.025 -9.023,-33.025 C 7.52,-35.521 7.2,-36.929 7.2,-37.441 c 0,-0.321 0.159,-0.64 0.48,-0.959 0.319,-0.322 0.672,-0.481 1.056,-0.481 z"
             style="fill:#000000;fill-opacity:1;fill-rule:evenodd;stroke:none"
             id="path3405"
             inkscape:connector-curvature="0" /></g></g><g
         id="g3407"><g
           id="g3409"
           transform="translate(192.964,490.589)"><path
             d="m 7.296,-78.817 c 0,-0.511 -0.144,-1.007 -0.432,-1.488 -0.288,-0.479 -0.432,-0.847 -0.432,-1.103 0,-1.024 0.64,-1.536 1.92,-1.536 4.096,0 7.2,5.183 9.312,15.551 0,0 8.448,40.321 8.448,40.321 0,0 -8.64,0 -8.64,0 0,0 0.672,3.072 0.672,3.072 0,0 8.832,0 8.832,0 0.831,2.623 1.551,4.8 2.16,6.527 0.607,1.729 1.503,3.808 2.688,6.24 1.184,2.432 2.415,4.383 3.696,5.857 1.28,1.471 2.88,2.735 4.8,3.792 1.92,1.056 3.999,1.584 6.24,1.584 2.367,0 4.335,-0.593 5.904,-1.777 1.567,-1.184 2.352,-2.672 2.352,-4.463 0,-1.025 -0.4,-1.92 -1.2,-2.689 -0.801,-0.767 -1.744,-1.151 -2.832,-1.151 -1.089,0 -1.953,0.35 -2.592,1.055 -0.64,0.704 -0.96,1.632 -0.96,2.785 0,0.576 0.159,1.183 0.48,1.824 0.319,0.639 0.48,1.022 0.48,1.151 0,0.769 -0.705,1.153 -2.112,1.153 -2.688,0 -4.96,-1.761 -6.816,-5.281 -1.857,-3.52 -3.489,-9.056 -4.896,-16.607 0,0 -0.672,-3.072 -0.672,-3.072 0,0 -6.912,-30.72 -6.912,-30.72 C 24.8,-66.624 22.176,-73.36 18.912,-78 c -3.264,-4.64 -7.039,-6.96 -11.328,-6.96 -2.112,0 -3.903,0.575 -5.376,1.727 C 0.736,-82.08 0,-80.703 0,-79.105 c 0,1.089 0.336,2.016 1.008,2.785 0.672,0.767 1.521,1.152 2.544,1.152 1.024,0 1.905,-0.352 2.64,-1.057 0.737,-0.703 1.104,-1.567 1.104,-2.592 z"
             style="fill:#000000;fill-opacity:1;fill-rule:evenodd;stroke:none"
             id="path3411"
             inkscape:connector-curvature="0" /></g></g><g
         id="g3413"><g
           id="g3415"
           transform="translate(217.684,490.589)"><path
             d="m 7.296,-78.817 c 0,-0.511 -0.144,-1.007 -0.432,-1.488 -0.288,-0.479 -0.432,-0.847 -0.432,-1.103 0,-1.024 0.641,-1.536 1.92,-1.536 4.097,0 7.2,5.183 9.312,15.551 0,0 8.4792,40.3523 8.4792,40.3523 0,0 -17.2337,0 -17.2337,0 0,0 0.45325,3.0095 0.45325,3.0095 0,0 17.64445,0 17.64445,0 0.831,2.623 1.5198,4.8312 2.1288,6.5582 0.608,1.729 1.503,3.808 2.688,6.24 1.183,2.432 2.415,4.383 3.696,5.857 1.279,1.471 2.88,2.735 4.8,3.792 1.92,1.056 3.999,1.584 6.24,1.584 2.367,0 4.335,-0.593 5.904,-1.777 1.568,-1.184 2.352,-2.672 2.352,-4.463 0,-1.025 -0.4,-1.92 -1.2,-2.689 -0.801,-0.767 -1.744,-1.151 -2.832,-1.151 -1.089,0 -1.953,0.35 -2.592,1.055 -0.641,0.704 -0.96,1.632 -0.96,2.785 0,0.576 0.159,1.183 0.48,1.824 0.32,0.639 0.48,1.022 0.48,1.151 0,0.769 -0.705,1.153 -2.112,1.153 -2.688,0 -4.96,-1.761 -6.816,-5.281 -1.857,-3.52 -3.489,-9.056 -4.896,-16.607 0,0 10.368,0 10.368,0 0,0 -0.576,-3.072 -0.576,-3.072 0,0 -10.464,0 -10.464,0 0,0 -6.912,-30.72 -6.912,-30.72 -1.985,-8.832 -4.608,-15.568 -7.872,-20.208 -3.264,-4.64 -7.039,-6.96 -11.328,-6.96 -2.112,0 -3.903,0.575 -5.376,1.727 C 0.737,-82.08 0,-80.703 0,-79.105 c 0,1.089 0.336,2.016 1.008,2.785 0.672,0.767 1.521,1.152 2.544,1.152 1.025,0 1.905,-0.352 2.64,-1.057 0.736,-0.703 1.104,-1.567 1.104,-2.592 z"
             style="fill:#000000;fill-opacity:1;fill-rule:evenodd;stroke:none"
             id="path3417"
             inkscape:connector-curvature="0" /></g></g><g
         id="g3419"><g
           id="g3421"
           transform="translate(148.539,501.518)"><path
             d="m 60.0196,-67.4277 c 0,0 0.6654,-1.2434 0.6654,-1.2434 0,0 -4.4104,-3.7084 -4.4104,-3.7084 -6.6286,-4.694 -8.1892,-5.6458 -12.6773,-7.1043 -4.4901,-1.4574 -9.5434,-2.3133 -14.6635,-2.3133 -9.9644,0 -17.3994,2.354 -22.30317,7.061 C 1.72464,-70.0292 0,-64.2065 1.45284,-57.2704 c 2.3061,11.0098 11.79606,17.9459 28.47126,20.8096 0,0 0.3112,1.4857 0.3112,1.4857 -6.0333,1.1566 -10.1134,3.2337 -12.2372,6.2347 -2.1252,2.9999 -2.7818,6.4276 -1.9746,10.2811 1.1416,5.4503 4.453,9.82586 9.9349,13.12992 C 31.4389,-2.02646 41.251,0 49.2085,-0.375 57.3593,-1 62.6431,-2.7223 64.4354,-4.47828 c 2.2483,-2.00518 2.7533,-4.1338 2.3311,-5.93762 -2.4536,-2.4834 -7.637,0.72429 -9.3408,2.21517 -0.3625,0.31724 0.898,1.45478 0.6506,2.57325 -0.1459,0.58654 -0.4773,0.67452 -1.3007,1.17079 -1.6859,0.70636 -1.551,0.6874 -3.3817,0.99805 -1.4819,0.23327 -4.6182,0.17751 -5.8021,0.05251 -3.3643,-0.25 -7.8776,-1.75867 -11.5422,-4.40101 -3.6634,-2.64236 -6.0027,-6.38676 -7.0174,-11.23106 -0.6227,-2.9726 -0.5512,-5.5196 0.2174,-7.6376 0.7658,-2.1202 2.083,-3.7864 3.9489,-4.9952 1.8652,-1.2122 4.9733,-1.8172 9.3227,-1.8172 3.6877,0 1.9283,0.0439 6.4099,0.0101 0,0 -1.0538,-4.5179 -1.0538,-4.5179 -3.8312,-0.0022 -4.5743,-0.0346 -8.043,-0.0346 -6.0008,0 -10.9739,-1.5413 -14.9237,-4.6241 -3.9488,-3.0838 -6.4478,-7.1302 -7.497,-12.139 -1.1878,-5.6706 -0.0526,-10.3628 3.4092,-14.08 3.4601,-3.715 8.5769,-5.573 15.3484,-5.573 7.6512,0 15.6017,2.3393 23.8484,7.019 z"
             style="fill:#000000;fill-opacity:1;fill-rule:evenodd;stroke:none"
             id="path3423"
             inkscape:connector-curvature="0" /></g></g><g
         id="g3425"><g
           id="g3427"
           transform="translate(205.653,496.856)"><path
             d="m 4.86197,0 c 1.35516,0 2.51939,-0.50034 3.49178,-1.5019 0.97239,-1.00335 1.45859,-2.1817 1.45859,-3.53599 0,-1.2977 -0.50123,-2.41772 -1.50279,-3.36007 -1.00333,-0.94145 -2.20999,-1.41438 -3.62438,-1.41438 -1.23759,0 -2.32844,0.47293 -3.27077,1.41438 C 0.47117,-7.45561 0,-6.33559 0,-5.03789 0,-3.6836 0.4862,-2.50525 1.45859,-1.5019 2.43098,-0.50034 3.56516,0 4.86197,0 Z"
             style="fill:#000000;fill-opacity:1;fill-rule:evenodd;stroke:none"
             id="path3429"
             inkscape:connector-curvature="0" /></g></g></g></g></svg>