<?xml version="1.0" encoding="utf-8"?>
<!-- Generator: Adobe Illustrator 21.1.0, SVG Export Plug-In . SVG Version: 6.00 Build 0)  -->
<svg version="1.1" id="Layer_1" xmlns="http://www.w3.org/2000/svg" xmlns:xlink="http://www.w3.org/1999/xlink" x="0px" y="0px"
	 viewBox="0 0 437 333.4" style="enable-background:new 0 0 437 333.4;" xml:space="preserve">
<style type="text/css">
	.st0{fill:#52247F;}
</style>
<path class="st0" d="M283.6,159.5c5-10.4,7.5-22.2,6.9-34.6c-2.1-39.4-35.7-69.7-75.1-67.6c-39.4,2.1-69.7,35.7-67.6,75.1
	c0.2,4.6,0.9,9.2,2,13.6c1.1,4.4,2.6,8.6,4.5,12.7c1.9,4,4.1,7.8,6.7,11.4c2.5,3.6,5.4,6.9,8.6,9.9c3.2,3,6.6,5.8,10.2,8.2
	c3.7,2.4,7.6,4.5,11.6,6.2c4.1,1.7,8.4,3.1,12.7,4c4.5,1,9.1,1.4,13.7,1.6c6.1,0.2,12.4-0.6,18.1-2.7c2.6-1,5.2-2.2,7.5-3.7
	c6-3.9,10.3-10.1,11.7-17.3c0.5-2.6,0.7-5.2,0.6-7.7c-0.3-5.2-2-10.2-5.1-14.3c-3.1-4.1-7.5-7.3-12.7-9.1c-5.4-1.9-10.6-2-15.3-1.8
	c-5.4,0.3-10.3,1.1-14.2,1.3c-2.3,0.1-4.2,0-5.5-0.2c-1.1-0.2-2.2-0.8-2.8-1.5c-0.7-0.8-1-1.5-1.1-2.6c-0.1-0.8,0.3-1.8,1.1-2.7
	c0.8-0.8,1.8-1.4,3-1.4c1.3-0.1,3.1,0.7,3.8,0.9c1.8,0.5,3.7,0.9,5.6,1.2c2.2,0.3,4.4,0.5,6.7,0.5c16.5,0,30.1-9.3,32.4-21.4
	c0.4-1.8,0.5-3.6,0.3-5.5c-0.1-1.1-0.3-2.1-0.6-3.2c-0.8-3.3-2.5-6.3-4.8-8.9c8.1,0.7,13.8-1.1,17.1-4.5
	c6.3,8.5,10.3,18.9,10.9,30.3c0.5,9.4-1.4,18.3-5.1,26.3l-10.1-5.3l7.4,23.9l23.9-7.4L283.6,159.5z M219.1,126.4
	c-7,0-12.6-5.6-12.6-12.6c0-6.9,5.6-12.6,12.6-12.6c7,0,12.6,5.6,12.6,12.6C231.7,120.7,226,126.4,219.1,126.4z M246,89.5
	c-2.2,1.3-4.5,1.9-6.8,2c-3.4,0.2-5.4-0.2-6.1-0.4c-1.1-0.4-2.1-0.7-3.2-1c-0.2-0.1-0.4-0.1-0.6-0.1c-0.3-0.1-0.6-0.1-0.9-0.2
	c-0.3-0.1-0.6-0.1-1-0.2c-0.2,0-0.4-0.1-0.6-0.1c-1-0.2-2.1-0.4-3.2-0.5c-1.5-0.2-3-0.2-4.5-0.2c-18.1,0-32.8,11.2-32.8,25.1
	c0,2.3,0.4,4.5,1.2,6.7c0.6,1.7,1.4,3.4,2.4,4.9c-0.6,0.5-1.1,1-1.6,1.6c-3.4,3.7-5.5,8.8-5.2,14.3c0.3,5,2.4,9.5,5.5,12.8
	c3.1,3.2,7.1,5.3,11.4,6.2c3.3,0.6,6.4,0.6,9.4,0.5c5.1-0.3,10-1.1,14.2-1.3c3.7-0.2,6.9,0,9.2,0.9c2.4,0.9,4,2.1,5.2,3.6
	c1.1,1.5,1.8,3.4,1.9,5.6c0.1,1.1,0,2.3-0.3,3.6c-0.7,3.3-2.2,5.3-5,7.3c-2.8,1.9-7.4,3.4-13.6,3.7c-0.1,0-0.1,0-0.2,0l-0.8,0h-0.2
	c-29.6,0.4-54.5-22.7-56.1-52.6c-0.8-15.3,4.7-29.5,14.2-40c9.5-10.6,23-17.5,38.3-18.3c13.2-0.7,25.4,3.3,35.3,10.4
	C249.7,86.7,247.8,88.3,246,89.5z"/>
<g>
	<path class="st0" d="M165.3,249.7c-1.2-1.4-3.5-2.3-6.3-2.3c-3.2,0-6.5,1.3-9.2,3.5c-3.3,2.8-5.5,6.7-6.4,11.4
		c-1.6,8.4,2.3,14.5,9.3,14.5c3.4,0,6.6-1.4,8.9-3.8l-0.3,3.1h8.2l0.1-0.6c0.2-1.8,0.7-5,1.3-8.1l5.7-29.5h-9.1L165.3,249.7z
		 M163.3,260.1l-0.7,3.6c-0.1,0.7-0.3,1.3-0.6,1.8c-0.9,2.2-2.9,3.6-5.1,3.6c-3.2,0-4.7-2.7-3.9-7c0.6-3.3,2.8-7.2,6.7-7.2
		c2.5,0,3.7,1.9,3.7,3.7C163.4,259.1,163.4,259.7,163.3,260.1z"/>
	<path class="st0" d="M334.6,249.3c-2.6-1.7-4.4-1.8-6.5-1.8c-2.5,0-5.7,1.4-8,4.4l0.5-3.8h-8.3l-0.1,0.6c-0.3,2.4-0.7,5-1.5,8.9
		l-3.7,18.8h9.5l2.8-14.3c0.1-0.6,0.3-1.3,0.5-1.8c1-2.4,3.2-3.9,6-3.9c0.9,0,1.6,0.1,2.1,0.2c0,0,0.2,0,0.6,0.1
		C329.7,253.5,333,250.4,334.6,249.3z"/>
	<path class="st0" d="M372.5,258.7c-3.2-1.2-3.7-1.8-3.5-2.6c0.3-1.5,2.2-2.1,3.2-2.1c1.7,0,3.7,0.1,5.5,1.2l0.5,0.3l2.9-6.2
		l-0.3-0.2c-1.4-0.8-4.2-1.6-7.6-1.6c-6.8,0-12.4,3.9-13.4,9.4c-0.6,2.7,0.1,6.4,6.4,8.7c3.1,1.1,3.5,1.7,3.3,2.7
		c-0.1,0.4-0.5,1.7-3.6,1.7c-2,0-5-0.3-6.6-1.2l-0.7-0.3l-2.9,5.8c2.5,1.4,6.1,2.7,8.9,2.7c7.6,0,13-3.6,14.1-9.3
		C379.3,263.3,377.5,260.5,372.5,258.7z"/>
	<path class="st0" d="M125.5,238.2l-10.7,21.3h-8.6l-3.7,7.3h8.6l-4.8,9.5h10.1l4.4-9.5h10.1l0.8,9.5h9.8l-4.3-38.1H125.5z
		 M124.2,259.5l1.7-3.8l4-8.7l0.9,12.5H124.2z"/>
	<path class="st0" d="M273.7,248l2-9.8l-10.1,2.2l-5.1,25.5c-0.8,3.9-0.5,6.7,0.8,8.5c1.2,1.6,3.5,2.5,6.3,2.5
		c2.4,0,4.5-0.3,5.8-0.8l0.5-0.2l1.5-7.7l-0.9,0.2c-0.8,0.1-1.6,0.2-2.4,0.2c-0.8,0-1.3-0.2-1.6-0.5c-0.4-0.5-0.4-1.6,0-3.4l1.8-9.2
		h5.9l1.5-7.6H273.7z"/>
	<path class="st0" d="M257.1,249.9c-1.3-1.6-3.4-2.4-6.1-2.4c-3.7,0-6.4,1.6-8.1,3l-0.3,0.3l0.5-2.6h-8.6l-0.1,0.7
		c-0.4,2.3-0.8,5.1-1.5,8.5l-3.7,19h9.5l3.2-16.2c0.6-2.9,2.2-4.4,4.7-4.4c0.9,0,1.6,0.3,2.1,0.8c0.7,0.8,0.8,2.2,0.4,4.2l-3,15.6
		h9.3l3.2-16.6C259.3,255.3,258.8,252,257.1,249.9z"/>
	<polygon class="st0" points="197.6,248 188.1,264.8 188.1,264.7 185.5,248 176.7,248 181.4,276.3 190.5,276.3 206.7,248 	"/>
	<path class="st0" d="M76.2,260.9h6.7l-1.2,6.3c-0.7,0.3-2.6,0.9-4.5,0.9c-4.2-0.2-7-1.2-8.4-3.1c-1.4-1.8-1.6-4.5-0.6-8.2
		c1.8-7,7.2-11.2,14.6-11.4c2.8-0.1,7,0.6,11.3,2.2c0,0,1.6-8.4,1.8-9c-1.8-0.9-6.1-2.1-11.2-2.1c-13.6,0-24.2,8.1-26.9,20.6
		c-1.3,5.9-0.4,11,2.6,14.5c3,3.6,7.7,5.4,14,5.4c0.3,0,0.6,0,1,0c8.3-0.2,14.2-3.6,14.4-3.8l0.2-0.1l3.8-19.7l-13.7,0L76.2,260.9z"
		/>
	<path class="st0" d="M281.1,274.5c1.3,1.6,3.4,2.4,6.1,2.4c3.7,0,6.4-1.6,8.1-3l0.3-0.3l-0.5,2.6h8.6l0.1-0.7
		c0.4-2.3,0.8-5.1,1.5-8.5l3.7-19h-9.5l-3.2,16.2c-0.6,2.9-2.2,4.5-4.7,4.5c-0.9,0-1.6-0.3-2.1-0.8c-0.7-0.8-0.8-2.2-0.4-4.2l3-15.6
		h-9.3l-3.2,16.6C279,269.1,279.4,272.4,281.1,274.5z"/>
	<path class="st0" d="M219.5,247.4c-6.8,0-15.1,4.6-17.1,14.8c-0.6,2.9-0.6,6.1,0.8,8.7c3.2,5.8,11.9,6.6,17.6,5
		c1.6-0.4,3.1-1.1,4.5-1.9c0,0-2.9-6.2-2.9-6.2c-5.6,3.1-12.2,1.8-11.9-2.6h17.7l0.2-0.4c0.3-0.8,0.7-2,0.9-3.4
		C230.7,254.6,228.8,247.4,219.5,247.4z M222.2,258.7h-10.1c0.9-2.1,3-5.2,6.3-5.2C222.2,253.5,222.5,257.1,222.2,258.7z"/>
	<path class="st0" d="M346.9,247.5c-6.9,0-15.2,4.7-17.2,14.9c-0.6,2.9-0.6,6.1,0.8,8.8c3.2,5.9,11.9,6.6,17.8,5
		c1.6-0.4,3.1-1.1,4.6-1.9c0,0-2.9-6.2-2.9-6.3c-5.7,3.1-12.3,1.9-12-2.7h17.8l0.2-0.4c0.3-0.8,0.7-2.1,1-3.4
		C358.2,254.7,356.3,247.5,346.9,247.5z M349.7,258.8h-10.2c0.9-2.2,3-5.2,6.3-5.2C349.6,253.6,350,257.1,349.7,258.8z"/>
</g>
</svg>
