<svg xmlns="http://www.w3.org/2000/svg" viewBox="-19515 -7661 126.439 48">
  <defs>
    <style>
      .cls-1 {
        fill: #373f49;
      }

      .cls-2 {
        fill: none;
      }

      .cls-3 {
        fill: #fff;
      }
    </style>
  </defs>
  <g id="Group_1329" data-name="Group 1329" transform="translate(-19514.999 -7661)">
    <ellipse id="Ellipse_154" data-name="Ellipse 154" class="cls-1" cx="24" cy="24" rx="24" ry="24"/>
    <g id="Group_1312" data-name="Group 1312" transform="translate(13.084 11.687)">
      <g id="Group_1311" data-name="Group 1311">
        <path id="Path_2591" data-name="Path 2591" class="cls-2" d="M125.712,84.107h0l3.082.016a3.662,3.662,0,0,0-3.644-3.307l-2.89-.016a3.687,3.687,0,0,0-3.66,3.291Z" transform="translate(-112.644 -79.516)"/>
        <path id="Path_2592" data-name="Path 2592" class="cls-2" d="M93.007,122.243l.032-12.843a3.648,3.648,0,0,0-3.323,3.628L89.7,118.6A3.661,3.661,0,0,0,93.007,122.243Z" transform="translate(-88.384 -103.524)"/>
        <path id="Path_2593" data-name="Path 2593" class="cls-2" d="M190.2,111.394a1.507,1.507,0,0,0,1.509,1.509h.032a1.531,1.531,0,0,0,1.525-1.509v-.385a1.507,1.507,0,0,0-1.509-1.509h-1.541Z" transform="translate(-172.75 -103.608)"/>
        <path id="Path_2594" data-name="Path 2594" class="cls-2" d="M125.5,197.616h0l-7.1-.016a3.671,3.671,0,0,0,3.628,3.307l2.89.016a3.672,3.672,0,0,0,3.644-3.291Z" transform="translate(-112.476 -177.565)"/>
        <path id="Path_2595" data-name="Path 2595" class="cls-2" d="M191.573,168.6a1.539,1.539,0,0,0-1.557,1.509L190,172h1.525l.032.658V172a1.528,1.528,0,0,0,1.525-1.493v-.385A1.542,1.542,0,0,0,191.573,168.6Z" transform="translate(-172.582 -153.221)"/>
        <path id="Path_2596" data-name="Path 2596" class="cls-3" d="M100.443,86.895a2.819,2.819,0,0,0-2.809,2.793l-.016,1.894H87.424l.016-12.907H97.65v1.91a2.809,2.809,0,0,0,2.793,2.809h.032a2.819,2.819,0,0,0,2.809-2.793v-.385a2.806,2.806,0,0,0-2.825-2.809H98.934A4.971,4.971,0,0,0,94.006,72.8H91.1a4.959,4.959,0,0,0-4.944,4.591,4.964,4.964,0,0,0-4.639,4.928h0L81.5,87.89h0a4.962,4.962,0,0,0,4.607,4.944,4.947,4.947,0,0,0,4.928,4.607l2.906.016a4.969,4.969,0,0,0,4.944-4.575h1.573a2.809,2.809,0,0,0,2.809-2.793V89.7A2.8,2.8,0,0,0,100.443,86.895Zm-14.32-8.219V91.518a3.639,3.639,0,0,1-3.291-3.66l.016-5.571A3.6,3.6,0,0,1,86.123,78.676Zm14.384.016a1.518,1.518,0,0,1,1.509,1.509v.385a1.521,1.521,0,0,1-1.525,1.509h-.032a1.507,1.507,0,0,1-1.509-1.509V78.692Zm-9.375-4.623,2.89.016a3.636,3.636,0,0,1,3.644,3.291H87.472A3.677,3.677,0,0,1,91.132,74.068Zm2.825,22.09-2.89-.016a3.631,3.631,0,0,1-3.628-3.275H97.618A3.687,3.687,0,0,1,93.958,96.158Zm8.027-6.068a1.5,1.5,0,0,1-1.525,1.493H98.918V89.688a1.533,1.533,0,0,1,3.066,0v.4Z" transform="translate(-81.5 -72.8)"/>
      </g>
    </g>
    <g id="Group_1320" data-name="Group 1320" transform="translate(58.515 16.314)">
      <g id="Group_1313" data-name="Group 1313" transform="translate(0 0.03)">
        <path id="Path_2597" data-name="Path 2597" class="cls-1" d="M364.5,113.418v-8.235a3.378,3.378,0,0,1,6.293-1.686c.177.273.1.482-.177.658a.45.45,0,0,1-.626-.177,2.443,2.443,0,0,0-4.559,1.2v8.235a2.383,2.383,0,0,0,1.814,2.344,2.438,2.438,0,0,0,2.745-1.14.472.472,0,0,1,.626-.177.432.432,0,0,1,.177.658,3.372,3.372,0,0,1-6.293-1.686Z" transform="translate(-364.5 -101.813)"/>
      </g>
      <g id="Group_1314" data-name="Group 1314" transform="translate(8.534 0.012)">
        <path id="Path_2598" data-name="Path 2598" class="cls-1" d="M426.016,116.678a.451.451,0,0,1-.578-.337c-.08-.273-.177-.562-.241-.867-.177-.562-.321-1.284-.578-2.183h-5.185c-.273.9-.433,1.621-.61,2.183-.08.321-.177.61-.241.867a.431.431,0,0,1-.562.337.452.452,0,0,1-.337-.578l3.885-14.063a.463.463,0,0,1,.466-.337.431.431,0,0,1,.433.337l3.885,14.063A.451.451,0,0,1,426.016,116.678Zm-4-12.763c-.385,1.477-1.477,5.41-2.328,8.46h4.655C423.5,109.309,422.4,105.392,422.019,103.915Z" transform="translate(-417.662 -101.7)"/>
      </g>
      <g id="Group_1315" data-name="Group 1315" transform="translate(20.083 0.108)">
        <path id="Path_2599" data-name="Path 2599" class="cls-1" d="M496.359,105.671v1.365a3.329,3.329,0,0,1-2.376,3.227l2.344,6.309a.473.473,0,0,1-.883.337l-2.408-6.5h-2.5v6.325c0,.321-.145.466-.466.466a.447.447,0,0,1-.466-.466V102.766a.447.447,0,0,1,.466-.466h2.906A3.374,3.374,0,0,1,496.359,105.671Zm-3.371-2.44h-2.456v6.261h2.456a2.446,2.446,0,0,0,2.456-2.456v-1.365A2.463,2.463,0,0,0,492.987,103.231Z" transform="translate(-489.6 -102.3)"/>
      </g>
      <g id="Group_1316" data-name="Group 1316" transform="translate(29.099 0.012)">
        <path id="Path_2600" data-name="Path 2600" class="cls-1" d="M554.116,116.678a.451.451,0,0,1-.578-.337c-.08-.273-.177-.562-.241-.867-.177-.562-.321-1.284-.578-2.183h-5.185c-.273.9-.433,1.621-.61,2.183-.08.321-.177.61-.241.867a.431.431,0,0,1-.562.337.453.453,0,0,1-.337-.578l3.885-14.063a.463.463,0,0,1,.466-.337.431.431,0,0,1,.434.337l3.885,14.063A.462.462,0,0,1,554.116,116.678Zm-4-12.763c-.385,1.477-1.477,5.41-2.328,8.46h4.656C551.6,109.309,550.5,105.392,550.119,103.915Z" transform="translate(-545.763 -101.7)"/>
      </g>
      <g id="Group_1317" data-name="Group 1317" transform="translate(38.811 0.021)">
        <path id="Path_2601" data-name="Path 2601" class="cls-1" d="M606.622,101.776a.422.422,0,0,1,.562.321c.514,1.862,1,3.644,1.461,5.266.771,2.793,1.605,5.908,1.991,7.176.337-1.268,1.188-4.383,1.959-7.176.466-1.621.947-3.387,1.461-5.266a.454.454,0,0,1,.578-.321.437.437,0,0,1,.321.562L611.069,116.4a.44.44,0,0,1-.433.337.421.421,0,0,1-.466-.337l-3.885-14.063A.426.426,0,0,1,606.622,101.776Z" transform="translate(-606.262 -101.753)"/>
      </g>
      <g id="Group_1318" data-name="Group 1318" transform="translate(48.492 0.012)">
        <path id="Path_2602" data-name="Path 2602" class="cls-1" d="M674.916,116.678a.451.451,0,0,1-.578-.337c-.08-.273-.177-.562-.241-.867-.177-.562-.321-1.284-.578-2.183h-5.185c-.273.9-.433,1.621-.61,2.183-.08.321-.177.61-.241.867a.431.431,0,0,1-.562.337.452.452,0,0,1-.337-.578l3.885-14.063a.463.463,0,0,1,.466-.337.431.431,0,0,1,.433.337l3.885,14.063A.462.462,0,0,1,674.916,116.678Zm-4-12.763c-.385,1.477-1.477,5.41-2.328,8.46h4.655C672.4,109.309,671.3,105.392,670.919,103.915Z" transform="translate(-666.563 -101.7)"/>
      </g>
      <g id="Group_1319" data-name="Group 1319" transform="translate(60.024)">
        <path id="Path_2603" data-name="Path 2603" class="cls-1" d="M745.255,116.358c-.851-1.766-1.67-3.468-2.456-5.073-1.284-2.713-2.809-5.8-3.467-7.144v12.024c0,.321-.145.466-.466.466s-.465-.144-.465-.466V102.1a.42.42,0,0,1,.369-.466.447.447,0,0,1,.514.273c.851,1.766,1.67,3.468,2.456,5.073,1.284,2.713,2.761,5.8,3.468,7.144V102.1c0-.321.145-.466.466-.466s.466.144.466.466v14.063a.42.42,0,0,1-.369.466A.465.465,0,0,1,745.255,116.358Z" transform="translate(-738.4 -101.625)"/>
      </g>
    </g>
    <g id="Group_1328" data-name="Group 1328" transform="translate(58.354 16.134)">
      <g id="Group_1321" data-name="Group 1321" transform="translate(0 0.03)">
        <path id="Path_2604" data-name="Path 2604" class="cls-1" d="M367.032,116a3.571,3.571,0,0,1-.915-.112,3.523,3.523,0,0,1-2.617-3.435v-8.235a3.535,3.535,0,0,1,6.582-1.782.593.593,0,0,1,.1.482.721.721,0,0,1-.321.385.621.621,0,0,1-.851-.225,2.235,2.235,0,0,0-2.552-1.06,2.288,2.288,0,0,0-1.7,2.2v8.235a2.221,2.221,0,0,0,1.7,2.2,2.269,2.269,0,0,0,2.569-1.06.621.621,0,0,1,.851-.225.656.656,0,0,1,.321.385.581.581,0,0,1-.1.5A3.542,3.542,0,0,1,367.032,116Zm.032-14.994a3.215,3.215,0,0,0-.867.112,3.15,3.15,0,0,0-2.376,3.1v8.235a3.2,3.2,0,0,0,5.972,1.621.305.305,0,0,0,.064-.241.387.387,0,0,0-.177-.193.3.3,0,0,0-.4.112,2.606,2.606,0,0,1-4.864-1.284v-8.235a2.606,2.606,0,0,1,4.864-1.284.31.31,0,0,0,.417.112.387.387,0,0,0,.177-.193.305.305,0,0,0-.064-.241A3.152,3.152,0,0,0,367.064,101.011Z" transform="translate(-363.5 -100.688)"/>
      </g>
      <g id="Group_1322" data-name="Group 1322" transform="translate(8.548 0.032)">
        <path id="Path_2605" data-name="Path 2605" class="cls-1" d="M417.4,116.031a.346.346,0,0,1-.177-.032.626.626,0,0,1-.45-.787l3.885-14.063a.617.617,0,0,1,.61-.449.6.6,0,0,1,.594.449l3.885,14.063a.616.616,0,0,1-.433.787h0a.626.626,0,0,1-.787-.449c-.032-.1-.048-.193-.08-.289-.048-.193-.112-.385-.16-.594-.08-.241-.145-.53-.225-.867-.08-.353-.193-.755-.321-1.188h-4.944c-.128.433-.225.819-.321,1.172-.1.337-.177.626-.241.9-.048.193-.1.385-.161.578a1.94,1.94,0,0,0-.08.289A.653.653,0,0,1,417.4,116.031Zm1.14-3.74h5.426l.032.112c.144.482.257.931.353,1.316.08.337.161.61.225.867.048.209.112.4.161.578a1.934,1.934,0,0,1,.08.289.294.294,0,0,0,.385.225h0a.29.29,0,0,0,.209-.385l-3.885-14.063a.285.285,0,0,0-.289-.225.308.308,0,0,0-.305.225l-3.869,14.047a.3.3,0,0,0,.225.385.353.353,0,0,0,.225-.016.28.28,0,0,0,.128-.209c.032-.1.048-.193.08-.289.048-.177.112-.369.16-.578.08-.273.161-.562.241-.9.1-.385.225-.819.353-1.3Zm5.25-.594h-5.073l.064-.209c.867-3.114,1.942-6.983,2.328-8.46l.161-.594.161.594c.385,1.477,1.461,5.346,2.328,8.46Zm-4.656-.321h4.238c-.754-2.729-1.654-5.956-2.119-7.674C420.8,105.4,419.9,108.646,419.131,111.376Z" transform="translate(-416.746 -100.7)"/>
      </g>
      <g id="Group_1323" data-name="Group 1323" transform="translate(20.067 0.113)">
        <path id="Path_2606" data-name="Path 2606" class="cls-1" d="M494.937,116.435a.644.644,0,0,1-.241-.048.618.618,0,0,1-.321-.369l-2.392-6.389h-2.231v6.165a.56.56,0,0,1-.626.626.617.617,0,0,1-.626-.626V101.826a.617.617,0,0,1,.626-.626h2.906a3.542,3.542,0,0,1,3.532,3.532V106.1a3.49,3.49,0,0,1-2.328,3.323l2.3,6.148a.625.625,0,0,1,0,.482.618.618,0,0,1-.369.321A.339.339,0,0,1,494.937,116.435Zm-5.49-7.112h2.761l2.456,6.6a.275.275,0,0,0,.145.177.312.312,0,0,0,.241,0,.323.323,0,0,0,.177-.144.312.312,0,0,0,0-.241l-2.408-6.47.161-.048a3.174,3.174,0,0,0,2.263-3.066v-1.365a3.22,3.22,0,0,0-3.211-3.211h-2.906a.3.3,0,0,0-.3.305v13.967a.3.3,0,0,0,.3.305c.225,0,.305-.08.305-.305v-6.5Zm2.617-.61h-2.617v-6.582h2.617a2.617,2.617,0,0,1,2.617,2.617v1.365A2.635,2.635,0,0,1,492.064,108.713Zm-2.3-.321h2.3a2.3,2.3,0,0,0,2.3-2.3v-1.365a2.3,2.3,0,0,0-2.3-2.3h-2.3v5.956Z" transform="translate(-488.5 -101.2)"/>
      </g>
      <g id="Group_1324" data-name="Group 1324" transform="translate(29.096 0.048)">
        <path id="Path_2607" data-name="Path 2607" class="cls-1" d="M545.4,116.115a.659.659,0,0,1-.177-.016.626.626,0,0,1-.449-.787l3.885-14.063a.617.617,0,0,1,.61-.45.6.6,0,0,1,.594.45l3.885,14.063a.616.616,0,0,1-.433.787.626.626,0,0,1-.787-.45c-.032-.1-.048-.193-.08-.289-.048-.193-.112-.385-.161-.594-.08-.241-.144-.53-.225-.867-.08-.353-.193-.755-.321-1.188h-4.944c-.128.433-.225.819-.321,1.172-.1.337-.177.626-.241.9-.048.193-.1.385-.161.578a1.94,1.94,0,0,0-.08.289.634.634,0,0,1-.273.385A.789.789,0,0,1,545.4,116.115Zm1.156-3.74h5.426l.032.112c.144.5.257.931.353,1.316.08.321.161.61.225.867.048.209.112.4.16.578a1.927,1.927,0,0,1,.08.289.3.3,0,0,0,.385.225.29.29,0,0,0,.209-.385l-3.885-14.063a.285.285,0,0,0-.289-.225.308.308,0,0,0-.305.225l-3.869,14.047a.3.3,0,0,0,.225.385.353.353,0,0,0,.225-.016.28.28,0,0,0,.128-.209c.032-.1.048-.193.08-.289.048-.177.112-.369.161-.578.08-.273.16-.562.241-.9.1-.385.225-.819.353-1.3Zm5.25-.594h-5.073l.064-.209c.867-3.114,1.942-6.983,2.328-8.46l.161-.594.161.594c.385,1.477,1.461,5.346,2.328,8.46Zm-4.656-.321h4.238c-.755-2.729-1.654-5.956-2.119-7.674C548.8,105.488,547.9,108.73,547.147,111.46Z" transform="translate(-544.746 -100.8)"/>
      </g>
      <g id="Group_1325" data-name="Group 1325" transform="translate(38.825 0.038)">
        <path id="Path_2608" data-name="Path 2608" class="cls-1" d="M609.85,116.031a.557.557,0,0,1-.61-.466l-3.869-14.047a.594.594,0,0,1,.45-.755.585.585,0,0,1,.754.433c.45,1.654.963,3.564,1.461,5.266.289,1.06.594,2.167.883,3.195.369,1.381.706,2.6.947,3.435.4-1.493,1.14-4.19,1.814-6.63.482-1.686.979-3.532,1.461-5.266a.61.61,0,0,1,.787-.433.585.585,0,0,1,.434.755l-3.885,14.063A.643.643,0,0,1,609.85,116.031ZM606,101.069a.314.314,0,0,0-.112.016.517.517,0,0,0-.209.128.272.272,0,0,0-.016.225l3.885,14.063a.267.267,0,0,0,.305.225c.1,0,.209-.032.289-.225l3.869-14.047a.257.257,0,0,0-.209-.353.3.3,0,0,0-.241.016.311.311,0,0,0-.145.193c-.466,1.734-.979,3.564-1.461,5.266-.771,2.777-1.621,5.908-1.959,7.176l-.144.53-.161-.53c-.241-.787-.642-2.264-1.108-3.981-.289-1.027-.578-2.135-.883-3.195-.482-1.7-1.011-3.612-1.461-5.266a.3.3,0,0,0-.128-.193C606.093,101.069,606.045,101.069,606,101.069Z" transform="translate(-605.346 -100.738)"/>
      </g>
      <g id="Group_1326" data-name="Group 1326" transform="translate(48.489 0.032)">
        <path id="Path_2609" data-name="Path 2609" class="cls-1" d="M666.2,116.031a.346.346,0,0,1-.177-.032.626.626,0,0,1-.45-.787l3.885-14.063a.617.617,0,0,1,.61-.449.6.6,0,0,1,.594.449l3.885,14.063a.617.617,0,0,1-.433.787.626.626,0,0,1-.787-.449c-.032-.1-.048-.193-.08-.289-.048-.193-.112-.385-.16-.594-.08-.241-.145-.53-.225-.867-.08-.353-.193-.755-.321-1.188h-4.944c-.128.433-.225.819-.321,1.172-.1.337-.177.642-.257.9-.048.193-.1.385-.16.578a1.926,1.926,0,0,0-.08.289A.594.594,0,0,1,666.2,116.031Zm1.156-3.74h5.426l.032.112c.145.482.257.931.353,1.316.08.337.161.61.225.867.048.209.112.4.161.578a1.956,1.956,0,0,1,.08.289.31.31,0,0,0,.145.193.3.3,0,0,0,.241.032h0a.29.29,0,0,0,.209-.385l-3.885-14.063a.285.285,0,0,0-.289-.225.308.308,0,0,0-.305.225l-3.869,14.047a.3.3,0,0,0,.225.385.265.265,0,0,0,.353-.225c.032-.1.048-.193.08-.289.048-.177.112-.369.161-.578.08-.273.16-.562.257-.9.1-.385.209-.819.353-1.3Zm5.249-.594h-5.073l.064-.209c.867-3.114,1.943-6.983,2.328-8.46l.161-.594.16.594c.385,1.477,1.461,5.346,2.328,8.46Zm-4.655-.321h4.238c-.755-2.729-1.654-5.956-2.119-7.674C669.6,105.4,668.7,108.646,667.947,111.376Z" transform="translate(-665.546 -100.7)"/>
      </g>
      <g id="Group_1327" data-name="Group 1327" transform="translate(60.04)">
        <path id="Path_2610" data-name="Path 2610" class="cls-1" d="M744.9,115.846a.617.617,0,0,1-.546-.369v-.016c-.755-1.573-1.477-3.066-2.183-4.527l-.257-.546c-.867-1.846-1.862-3.885-2.6-5.362-.209-.433-.4-.819-.562-1.156v11.318a.56.56,0,0,1-.626.626.553.553,0,0,1-.626-.626V101.125a.569.569,0,0,1,.5-.61.588.588,0,0,1,.674.353q1.132,2.336,2.167,4.479l.289.594c1.348,2.841,2.488,5.2,3.162,6.55v-11.35a.56.56,0,0,1,.626-.626.553.553,0,0,1,.626.626V115.2a.569.569,0,0,1-.5.61A.239.239,0,0,1,744.9,115.846Zm-.257-.514c.112.209.241.209.337.177.177-.032.241-.112.241-.305V101.141c0-.225-.08-.305-.3-.305s-.305.08-.305.305v12.682l-.305-.578c-.594-1.156-1.894-3.837-3.468-7.16l-.289-.594c-.69-1.445-1.413-2.922-2.167-4.479a.3.3,0,0,0-.337-.177c-.177.032-.241.112-.241.305V115.2c0,.225.08.305.3.305s.305-.08.305-.305v-12.73l.305.626c.209.433.514,1.06.867,1.782.722,1.493,1.734,3.532,2.6,5.362l.257.546C743.167,112.266,743.889,113.759,744.644,115.333Z" transform="translate(-737.5 -100.499)"/>
      </g>
    </g>
  </g>
</svg>
