<svg xmlns="http://www.w3.org/2000/svg" xmlns:xlink="http://www.w3.org/1999/xlink" width="164" height="82" viewBox="-313 266 164 82"><path fill="#6CAF1F" d="M-206.7 267h24.6l-24.5 49.2h-24.7z"/><defs><path id="a" d="M-305.1 267h49.2v49.2h-49.2z"/></defs><clipPath id="b"><use xlink:href="#a" overflow="visible"/></clipPath><path clip-path="url(#b)" fill="#111" d="M-280.5 267h-24.6l24.6 49.2h24.6z"/><defs><path id="c" d="M-268.2 267h36.9v49.2h-36.9z"/></defs><clipPath id="d"><use xlink:href="#c" overflow="visible"/></clipPath><path clip-path="url(#d)" fill="#1C4523" d="M-255.9 316.2l24.6-49.2h-24.6l-12.3 24.6z"/><path fill="#459030" d="M-231.3 267h-24.6l24.6 49.2h24.6z"/><path fill="#99D829" d="M-182 267h-24.7l24.6 49.2h24.7z"/><g><path fill="#231F20" d="M-305.3 336.1l1-.2 4.1 8.8 4-8.8 1 .2-5.1 10.9-5-10.9zM-285.4 335.7l4.4 8.5 4.4-8.5 1.4 10.7-1 .2-1-7.7-3.9 7.5-3.7-7.3-1 7.5-1-.2 1.4-10.7z"/><path fill="#909090" d="M-244.4 336l.1.9h-3.4v4.1h2.8v.9h-2.8v4.5l-1.1.2V336h4.4zM-220.7 346.6l-2.4-4.8h-3.6l-2.3 4.8-1.1-.2 5.1-10.7 5.3 10.7-1 .2zm-4.3-8.7l-1.3 3h2.6l-1.3-3zM-207.8 336h1.3c2.9 0 4.1 1.2 4.1 3.3 0 1.6-1.3 2.9-3 3.1l3.3 3.8-1 .5-3.6-4.5v4.2l-1.1.2V336zm1 5.6h.4c1.9 0 2.9-1.2 2.9-2.4 0-1.4-.9-2.2-2.8-2.2h-.5v4.6zM-186.2 335.7l4.4 8.5 4.4-8.5 1.4 10.7-1 .2-1-7.7-3.9 7.5-3.7-7.3-1 7.5-1-.2 1.4-10.7zM-158.7 337.6c-.6-.7-1.1-.9-1.8-.9-1.1 0-1.7.9-1.7 1.9 0 .8.4 1.7 2.1 2.3 1.4.6 2.3 1.5 2.3 2.9s-1.1 3-3 3c-1 0-1.8-.5-2.5-1.5l.5-.9c.6.8 1.3 1.3 2.1 1.3 1.1 0 1.9-.9 1.9-2 0-.8-.4-1.4-2-2.1-1.9-.8-2.3-1.9-2.3-3 0-1.8 1.3-2.9 2.9-2.9.8 0 1.5.3 2.3 1l-.8.9z"/></g></svg>