<svg xmlns="http://www.w3.org/2000/svg" viewBox="0 0 360 102.9"><title>Asset 1</title><g id="4bbb099c-ec39-4a68-8c24-f690f1040178" data-name="Layer 2"><g id="c10b4f82-c229-4e3a-bb94-055aa84810cc" data-name="Layer 1"><rect width="360" height="102.9"/><path d="M343.8,73.9a6.8,6.8,0,0,1-1.9.3c-2.1,0-3.1-.9-3.1-3.5V51.2c0-10.3-8.2-15.3-17.9-15.3-7.4,0-11.4.9-19.3,4.1L300,50.4l10.3,1.1,1.5-5.1a14,14,0,0,1,6.9-1.3c7.3,0,7.4,5.5,7.4,10.1v1.5a59,59,0,0,0-7.4-.4c-10.3,0-21,2.6-21,13.7,0,9.4,7.4,12.9,13.9,12.9,7.3,0,11.9-4.4,14.5-9,.6,5.5,3.9,9,9.9,9a17.43,17.43,0,0,0,8.1-2.1Zm-27.6-.3c-3.9,0-5.3-2.3-5.3-5.2,0-4.9,4-6.2,8.6-6.2a47.6,47.6,0,0,1,6.5.6C325.7,70.3,320.8,73.6,316.2,73.6ZM298.9,13.1,279.4,81.8H266.7l19.5-68.7Zm-26.2,0L253.2,81.8H240.5L260,13.1Zm-54,23.7h13.5V53H218.7Zm0,28.9h13.5V81.9H218.7ZM199,65.1l10.2,1-2.8,15.8H167.1l-1.3-6.8,24.8-28.5H176.5l-2,7-9.3-1,1.6-15.8h39.5l1,6.8-25,28.5h14.6ZM134.5,35.9c-16.2,0-24.2,10.9-24.2,24.1,0,14.4,9.6,22.9,23.5,22.9,14.4,0,24.8-9.1,24.8-23.5C158.6,46.8,150.7,35.9,134.5,35.9Zm-.3,37c-7,0-10.6-6-10.6-13.8,0-8.5,4.1-13.4,10.7-13.4,6.1,0,11,4.1,11,13.2C145.3,67.6,140.9,72.9,134.2,72.9ZM98.7,72h6v9.8H85.9V56.5c0-7.8-2.6-10.8-7.7-10.8-6.2,0-8.7,4.4-8.7,10.7V72.1h6v9.8H56.6V56.5c0-7.8-2.6-10.8-7.7-10.8-6.2,0-8.7,4.4-8.7,10.7V72.1h8.6v9.8H21.4V72.1h6V46.6h-6V36.8H40.3v6.8c2.7-4.8,7.4-7.7,13.7-7.7,6.5,0,12.5,3.1,14.7,9.7a15.12,15.12,0,0,1,14.7-9.7c8.1,0,15.5,4.9,15.5,15.6V72Z" style="fill:#fff"/></g></g></svg>