<?xml version="1.0" encoding="UTF-8" standalone="no"?>
<!-- Created with Inkscape (http://www.inkscape.org/) -->

<svg
   xmlns:dc="http://purl.org/dc/elements/1.1/"
   xmlns:cc="http://creativecommons.org/ns#"
   xmlns:rdf="http://www.w3.org/1999/02/22-rdf-syntax-ns#"
   xmlns:svg="http://www.w3.org/2000/svg"
   xmlns="http://www.w3.org/2000/svg"
   xmlns:sodipodi="http://sodipodi.sourceforge.net/DTD/sodipodi-0.dtd"
   xmlns:inkscape="http://www.inkscape.org/namespaces/inkscape"
   id="svg3355"
   version="1.1"
   inkscape:version="0.91 r13725"
   xml:space="preserve"
   width="5030"
   height="410"
   viewBox="0 0 5030 410"
   sodipodi:docname="pycodersweekly_logo.svg"><metadata
     id="metadata3361"><rdf:RDF><cc:Work
         rdf:about=""><dc:format>image/svg+xml</dc:format><dc:type
           rdf:resource="http://purl.org/dc/dcmitype/StillImage" /><dc:title></dc:title></cc:Work></rdf:RDF></metadata><defs
     id="defs3359"><clipPath
       clipPathUnits="userSpaceOnUse"
       id="clipPath3371"><path
         d="M 209.5853,290.7725 C 231.192,272.6184 242,244.6463 242,206.8584 242,169.0666 230.9671,141.3909 208.9183,123.8369 186.862,106.2753 153.0396,97.50215 107.4569,97.50215 l -55.06057,0 L 52.39633,6 0,6 l 0,312 106.5688,0 c 47.0679,0 81.4042,-9.079 103.0165,-27.2275 l 0,0 z M 172.2232,160.874 c 10.5134,11.25 15.7768,27.7449 15.7768,49.5 0,21.7475 -6.6648,37.126 -19.9981,46.126 -13.3352,8.9981 -34.2241,13.5 -62.6686,13.5 L 52,270 l 0,-126 60.887,0 c 29.0364,-0.002 48.8132,5.624 59.3362,16.874 l 0,0 z"
         id="path3373"
         inkscape:connector-curvature="0"
         style="clip-rule:evenodd" /></clipPath><clipPath
       clipPathUnits="userSpaceOnUse"
       id="clipPath3381"><path
         d="m 400.625,6 -53.25,0 0,123.1939 L 232,318 289.2437,318 374.0019,176.0611 458.7581,318 516,318 400.625,129.1939 400.625,6 l 0,0 z"
         id="path3383"
         inkscape:connector-curvature="0"
         style="clip-rule:evenodd" /></clipPath><clipPath
       clipPathUnits="userSpaceOnUse"
       id="clipPath3391"><path
         d="m 652.0297,53.46218 c 18.0989,0 33.6766,3.05643 46.7388,9.17499 13.0566,6.11094 26.7098,15.88579 40.9521,29.31311 l 33.83,-34.90608 C 740.6109,20.34616 700.6191,2 653.5867,2 606.5505,2 567.5229,17.21547 536.5172,47.64641 505.5038,78.07735 490,116.5635 490,163.105 c 0,46.5414 15.8031,85.3228 47.4055,116.3555 C 569.0118,310.4856 608.9202,326 657.1478,326 705.3678,326 745.6532,308.1014 778,272.2983 l -33.3849,-36.6961 c -14.8408,14.3205 -28.8634,24.3124 -42.0639,29.9834 -13.2081,5.6635 -28.71,8.5028 -46.5172,8.5028 -31.4566,0 -57.8671,-10.2224 -79.2334,-30.6557 -21.3663,-20.437 -32.0494,-46.5395 -32.0494,-78.3149 0,-31.7734 10.6073,-58.331 31.8278,-79.65743 21.2167,-21.33403 46.3656,-31.99819 75.4507,-31.99819 l 0,0 z"
         id="path3393"
         inkscape:connector-curvature="0"
         style="clip-rule:evenodd" /></clipPath><clipPath
       clipPathUnits="userSpaceOnUse"
       id="clipPath3401"><path
         d="M 1385.113,277.1597 C 1415.035,249.9323 1430,212.0626 1430,163.5622 1430,115.0561 1415.479,76.66986 1386.446,48.40343 1357.404,20.12941 1312.96,6 1253.113,6 L 1150,6 l 0,312 106.667,0 c 55.703,0 98.515,-13.6128 128.446,-40.8403 l 0,0 z M 1376,161.7745 C 1376,233.9248 1335.412,270 1254.243,270 l -52.243,0 0,-216 57.999,0 c 37.483,0 66.192,9.08787 86.116,27.2828 19.924,18.18341 29.885,45.0153 29.885,80.4917 l 0,0 z"
         id="path3403"
         inkscape:connector-curvature="0"
         style="clip-rule:evenodd" /></clipPath><clipPath
       clipPathUnits="userSpaceOnUse"
       id="clipPath3411"><path
         d="m 1680.654,318 0,-49.5451 -166.104,0 0,-82.5751 149.184,0 0,-46.8669 -149.184,0 0,-83.46784 171.45,0 L 1686,6 l -224,0 0,312 218.654,0 0,0 z"
         id="path3413"
         inkscape:connector-curvature="0"
         style="clip-rule:evenodd" /></clipPath><clipPath
       clipPathUnits="userSpaceOnUse"
       id="clipPath3421"><path
         d="m 1969.68,216.6788 c 0,-51.4831 -22.527,-83.9152 -67.564,-97.304 L 1984,6 l -67.118,0 -74.725,104.894 -69.357,0 0,-104.894 -52.8,0 0,312 116.338,0 c 47.724,0 81.886,-8.0325 102.467,-24.1014 20.581,-16.0689 30.875,-41.8113 30.875,-77.2198 l 0,0 z m -71.705,-44.7908 c 10.683,9.2536 16.025,24.1138 16.025,44.575 0,20.4536 -5.495,34.498 -16.47,42.114 -10.983,7.614 -30.569,11.423 -58.759,11.423 l -66.771,0 0,-112 65.436,0 c 29.671,0 49.854,4.6268 60.539,13.888 l 0,0 z"
         id="path3423"
         inkscape:connector-curvature="0"
         style="clip-rule:evenodd" /></clipPath><clipPath
       clipPathUnits="userSpaceOnUse"
       id="clipPath3431"><path
         d="m 2006.524,268.7 c -7.826,4.7949 -11.741,11.926 -11.741,21.374 0,9.452 2.608,16.7975 7.826,22.052 5.217,5.2449 11.739,7.874 19.565,7.874 7.824,0 14.414,-2.5526 19.782,-7.65 5.359,-5.1051 8.044,-11.7766 8.044,-20.024 0,-8.2571 -2.609,-16.2786 -7.826,-24.076 L 2016.522,230 1990,230 l 16.524,38.7 0,0 z"
         id="path3433"
         inkscape:connector-curvature="0"
         style="clip-rule:evenodd" /></clipPath><clipPath
       clipPathUnits="userSpaceOnUse"
       id="clipPath3441"><path
         d="m 2171.11,277.2175 c -15.234,0 -27.727,-3.1326 -37.485,-9.3978 -9.758,-6.2651 -14.64,-15.7409 -14.64,-28.4179 0,-12.6826 4.88,-22.3755 14.64,-29.0863 9.759,-6.7127 30.534,-13.949 62.33,-21.7033 31.79,-7.762 55.743,-18.6489 71.867,-32.6684 16.115,-14.027 24.178,-34.683 24.178,-61.9812 0,-27.29819 -10.203,-49.44904 -30.61,-66.45446 C 2240.981,10.50271 2214.213,2 2181.094,2 2132.586,2 2089.555,18.85118 2052,52.56876 l 32.828,39.8285 c 31.344,-27.45243 63.882,-41.17103 97.597,-41.17103 16.858,0 30.236,3.65055 40.149,10.96498 9.905,7.30681 14.86,17.00542 14.86,29.08822 0,12.08277 -4.659,21.47867 -13.973,28.19317 -9.316,6.7108 -25.364,12.8236 -48.132,18.348 -22.778,5.5168 -40.079,10.5879 -51.904,15.2154 -11.834,4.6217 -22.334,10.6641 -31.499,18.1251 -18.341,14.0195 -27.503,35.5 -27.503,64.4416 0,28.934 10.425,51.2391 31.275,66.9039 20.85,15.6629 46.648,23.4934 77.411,23.4934 19.81,0 39.482,-3.2868 59.002,-9.8452 19.521,-6.5642 36.379,-15.8172 50.573,-27.7457 l -27.948,-39.8266 c -9.169,8.3484 -21.592,15.2134 -37.265,20.5855 -15.681,5.3663 -31.133,8.0495 -46.361,8.0495 l 0,0 z"
         id="path3443"
         inkscape:connector-curvature="0"
         style="clip-rule:evenodd" /></clipPath><clipPath
       clipPathUnits="userSpaceOnUse"
       id="clipPath3451"><path
         d="M 2447.523,93.48498 2517.295,318 l 47.41,0 L 2634.479,93.48498 2713.197,318 2770,318 2660.867,6 l -52.33,0 -65.748,213.8026 -3.578,0 L 2473.463,6 2421.133,6 2312,318 l 56.803,0 78.72,-224.51502 0,0 z"
         id="path3453"
         inkscape:connector-curvature="0"
         style="clip-rule:evenodd" /></clipPath><clipPath
       clipPathUnits="userSpaceOnUse"
       id="clipPath3461"><path
         d="m 3012.654,318 0,-49.5451 -166.105,0 0,-82.5751 149.185,0 0,-46.8669 -149.185,0 0,-83.46784 171.451,0 L 3018,6 l -224,0 0,312 218.654,0 0,0 z"
         id="path3463"
         inkscape:connector-curvature="0"
         style="clip-rule:evenodd" /></clipPath><clipPath
       clipPathUnits="userSpaceOnUse"
       id="clipPath3471"><path
         d="m 3274.654,318 0,-49.5451 -166.105,0 0,-82.5751 149.185,0 0,-46.8669 -149.185,0 0,-83.46784 171.451,0 L 3280,6 l -224,0 0,312 218.654,0 0,0 z"
         id="path3473"
         inkscape:connector-curvature="0"
         style="clip-rule:evenodd" /></clipPath><clipPath
       clipPathUnits="userSpaceOnUse"
       id="clipPath3481"><path
         d="m 3318,318 52.622,0 0,-152.206 142.7,152.206 66.892,0 L 3454.905,181.4182 3582,6.001899 l -62.432,0 L 3416.108,142.5856 3370.622,93.48498 3370.622,6 3318,6 l 0,312 0,0 z"
         id="path3483"
         inkscape:connector-curvature="0"
         style="clip-rule:evenodd" /></clipPath><clipPath
       clipPathUnits="userSpaceOnUse"
       id="clipPath3491"><path
         d="m 3604,6 0,312 52.924,0 0,-262.00828 143.076,0 L 3800,6 l -196,0 0,0 z"
         id="path3493"
         inkscape:connector-curvature="0"
         style="clip-rule:evenodd" /></clipPath><clipPath
       clipPathUnits="userSpaceOnUse"
       id="clipPath3501"><path
         d="m 3908.626,6 -53.25,0 0,123.1939 L 3740,318 l 57.242,0 84.759,-141.9389 L 3966.758,318 4024,318 3908.624,129.1939 3908.624,6 l 0,0 z"
         id="path3503"
         inkscape:connector-curvature="0"
         style="clip-rule:evenodd" /></clipPath><clipPath
       clipPathUnits="userSpaceOnUse"
       id="clipPath3511"><path
         d="m 1048.278,133.0785 c -14.595,-13.1744 -36.339,-14.7546 -52.8646,-3.9036 -3.1009,2.0801 -5.8192,4.6047 -8.3537,7.3725 -16.535,17.7426 -33.1097,35.5466 -49.6655,53.295 -2.4076,2.6012 -4.872,5.2464 -7.3005,7.8437 -7.9218,8.5045 -17.6071,14.0076 -29.003,16.3195 -7.4103,1.5266 -14.94,1.5745 -22.4715,-0.1609 -3.3301,-0.793 -6.6924,-1.5764 -9.7933,-3.0494 -5.4536,-2.6164 -10.5776,-5.6754 -15.0101,-9.8031 -8.8008,-8.1809 -17.6659,-16.3138 -26.5121,-24.4544 -2.1897,-1.9767 -1.7503,-1.9499 -3.7506,0.1858 -5.8798,6.2922 -11.7349,12.5576 -17.592,18.8747 -2.7599,3.0015 -5.2755,6.2194 -7.2474,9.784 -3.0346,5.5739 -4.5254,11.5195 -4.6978,17.7733 -0.233,8.6406 2.1083,16.6682 5.7264,24.418 3.0441,6.524 7.1224,12.4963 11.303,18.3805 5.5862,7.861 11.555,15.4403 18.3402,22.2842 9.9884,10.1384 21.3805,18.3173 33.6231,25.4944 4.8682,2.8329 9.7459,5.7463 15.0252,7.8226 17.3439,6.8094 33.9963,5.5606 49.8323,-4.4323 4.6769,-2.9689 8.6169,-6.8611 12.3865,-10.8835 12.0759,-12.9445 24.1594,-25.866 36.2012,-38.8239 0,0 0,0.0345 0.0303,0.0345 13.4265,-14.4577 26.8529,-28.8541 40.2829,-43.2544 0.214,-0.2624 0.489,-0.5095 0.726,-0.7968 1.265,-1.3293 1.296,-1.3293 2.675,-0.0498 1.776,1.5956 3.481,3.1892 5.228,4.8058 1.32,1.2144 1.32,1.2604 0.051,2.6625 -0.292,0.2892 -0.61,0.6263 -0.873,0.9462 -18.121,19.4455 -36.2319,38.8833 -54.3448,58.3269 -2.006,2.1951 -1.9795,1.7047 0.2179,3.6872 7.2588,6.7347 14.51,13.3678 21.7688,20.1044 3.8264,3.5206 7.7797,6.7443 12.2051,9.4393 8.52,5.1506 17.44,6.0489 26.834,2.6931 6.84,-2.4058 12.989,-6.0643 18.868,-10.1882 8.964,-6.3497 17.255,-13.4885 25.137,-21.0679 8.036,-7.7192 15.577,-15.8962 22.565,-24.5195 6.078,-7.4682 11.998,-15.1453 16.803,-23.5196 5.558,-9.7323 8.203,-20.2346 7.142,-31.4495 -0.943,-10.0369 -4.721,-18.8747 -12.197,-25.7568 -20.328,-18.9092 -40.651,-37.8165 -61.295,-56.4345 l 0,0 z m -37.996,144.3075 c 6.81,-7.8323 17.154,-6.301 22.632,-0.6445 6.378,6.5414 6.833,17.0464 0.937,23.9393 -5.645,6.6586 -16.149,7.2869 -22.607,0.6283 -5.788,-5.3818 -7.711,-16.1838 -0.962,-23.9231 l 0,0 z"
         id="path3513"
         inkscape:connector-curvature="0"
         style="clip-rule:evenodd" /></clipPath><clipPath
       clipPathUnits="userSpaceOnUse"
       id="clipPath3521"><path
         d="m 859.7168,194.9265 c 14.5806,13.1724 36.3331,14.7488 52.863,3.8922 3.1218,-2.0687 5.8383,-4.6066 8.3615,-7.3668 16.5356,-17.7521 33.1166,-35.5464 49.6597,-53.2967 2.4228,-2.5935 4.8835,-5.2521 7.3026,-7.8436 7.922,-8.5179 17.6001,-14.0133 29.0054,-16.3252 7.438,-1.5132 14.941,-1.5745 22.456,0.1781 3.358,0.7815 6.696,1.5573 9.809,3.0436 5.465,2.6031 10.57,5.6678 15.014,9.7898 8.795,8.1808 17.674,16.3156 26.502,24.4561 2.201,1.9806 1.754,1.9595 3.758,-0.1858 5.882,-6.2921 11.731,-12.5575 17.592,-18.8688 2.745,-3.0111 5.269,-6.2194 7.267,-9.7936 3.02,-5.5681 4.533,-11.5098 4.677,-17.7694 0.233,-8.63665 -2.116,-16.66803 -5.723,-24.39869 -3.048,-6.5431 -7.111,-12.50773 -11.299,-18.39192 -5.587,-7.8724 -11.556,-15.43833 -18.349,-22.28981 C 1068.63,29.63296 1057.24,21.43877 1045,14.26359 c -4.879,-2.83292 -9.734,-5.752027 -15.025,-7.818772 -17.371,-6.7997605 -33.9825,-5.5585647 -49.8266,4.443792 -4.698,2.95741 -8.6363,6.85722 -12.3984,10.86812 -12.0763,12.94828 -24.1564,25.87357 -36.2213,38.82951 l -0.008,-0.04023 c -13.4194,14.45572 -26.8501,28.85972 -40.2884,43.27139 -0.2179,0.2433 -0.485,0.4961 -0.7218,0.7853 -1.2654,1.3178 -1.309,1.3178 -2.6785,0.0556 -1.7788,-1.5975 -3.478,-3.218 -5.2208,-4.82308 -1.3317,-1.21246 -1.3317,-1.24694 -0.0777,-2.65286 0.3145,-0.28923 0.6327,-0.62251 0.9036,-0.95963 18.1041,-19.42816 36.2289,-38.87356 54.333,-58.32471 2.0061,-2.17592 1.9909,-1.69707 -0.2179,-3.67762 -7.2514,-6.73655 -14.5143,-13.37541 -21.7695,-20.10813 -3.8228,-3.49949 -7.7762,-6.736555 -12.2014,-9.433474 -8.5206,-5.1601566 -17.4448,-6.045083 -26.8387,-2.689258 -6.8366,2.401944 -12.9761,6.052745 -18.8656,10.191982 -8.9677,6.36304 -17.2629,13.47502 -25.1471,21.05627 -8.0281,7.71917 -15.5581,15.8942 -22.5614,24.52894 -6.0713,7.47399 -11.991,15.13761 -16.7931,23.5176 -5.5656,9.72461 -8.21,20.21347 -7.1435,31.43597 0.9471,10.0387 4.7206,18.8688 12.188,25.7471 20.3318,18.9187 40.656,37.845 61.2965,56.4591 l 0,0 z M 897.7102,48.6166 c -6.812,7.83508 -17.1475,6.2915 -22.6277,0.64249 -6.3755,-6.54405 -6.8307,-17.06221 -0.9252,-23.94165 5.635,-6.64709 16.1421,-7.29361 22.5941,-0.62632 5.7973,5.38031 7.7167,16.1692 0.9588,23.92548 l 0,0 z"
         id="path3523"
         inkscape:connector-curvature="0"
         style="clip-rule:evenodd" /></clipPath></defs><sodipodi:namedview
     pagecolor="#ffffff"
     bordercolor="#666666"
     borderopacity="1"
     objecttolerance="10"
     gridtolerance="10"
     guidetolerance="10"
     inkscape:pageopacity="0"
     inkscape:pageshadow="2"
     inkscape:window-width="1916"
     inkscape:window-height="1039"
     id="namedview3357"
     showgrid="false"
     inkscape:zoom="0.34890656"
     inkscape:cx="2515"
     inkscape:cy="205"
     inkscape:window-x="0"
     inkscape:window-y="18"
     inkscape:window-maximized="0"
     inkscape:current-layer="g3363" /><g
     id="g3363"
     inkscape:groupmode="layer"
     inkscape:label="pycodersweekly_logo"
     transform="matrix(1.25,0,0,-1.25,0,410)"><g
       id="g3365" /><g
       id="g3367"><g
         id="g3369"
         clip-path="url(#clipPath3371)"><path
           d="m -10,328 262,0 0,-332 -262,0 0,332 z"
           style="fill:#3399cd;fill-opacity:1;fill-rule:evenodd;stroke:none"
           id="path3375"
           inkscape:connector-curvature="0" /></g></g><g
       id="g3377"><g
         id="g3379"
         clip-path="url(#clipPath3381)"><path
           d="m 222,328 304,0 0,-332 -304,0 0,332 z"
           style="fill:#3399cd;fill-opacity:1;fill-rule:evenodd;stroke:none"
           id="path3385"
           inkscape:connector-curvature="0" /></g></g><g
       id="g3387"><g
         id="g3389"
         clip-path="url(#clipPath3391)"><path
           d="m 480,336 308,0 0,-344 -308,0 0,344 z"
           style="fill:#3399cd;fill-opacity:1;fill-rule:evenodd;stroke:none"
           id="path3395"
           inkscape:connector-curvature="0" /></g></g><g
       id="g3397"><g
         id="g3399"
         clip-path="url(#clipPath3401)"><path
           d="m 1140,328 300,0 0,-332 -300,0 0,332 z"
           style="fill:#3399cd;fill-opacity:1;fill-rule:evenodd;stroke:none"
           id="path3405"
           inkscape:connector-curvature="0" /></g></g><g
       id="g3407"><g
         id="g3409"
         clip-path="url(#clipPath3411)"><path
           d="m 1452,328 244,0 0,-332 -244,0 0,332 z"
           style="fill:#3399cd;fill-opacity:1;fill-rule:evenodd;stroke:none"
           id="path3415"
           inkscape:connector-curvature="0" /></g></g><g
       id="g3417"><g
         id="g3419"
         clip-path="url(#clipPath3421)"><path
           d="m 1710,328 284,0 0,-332 -284,0 0,332 z"
           style="fill:#3399cd;fill-opacity:1;fill-rule:evenodd;stroke:none"
           id="path3425"
           inkscape:connector-curvature="0" /></g></g><g
       id="g3427"><g
         id="g3429"
         clip-path="url(#clipPath3431)"><path
           d="m 1980,330 80,0 0,-110 -80,0 0,110 z"
           style="fill:#3399cd;fill-opacity:1;fill-rule:evenodd;stroke:none"
           id="path3435"
           inkscape:connector-curvature="0" /></g></g><g
       id="g3437"><g
         id="g3439"
         clip-path="url(#clipPath3441)"><path
           d="m 2042,336 260,0 0,-344 -260,0 0,344 z"
           style="fill:#3399cd;fill-opacity:1;fill-rule:evenodd;stroke:none"
           id="path3445"
           inkscape:connector-curvature="0" /></g></g><g
       id="g3447"><g
         id="g3449"
         clip-path="url(#clipPath3451)"><path
           d="m 2302,328 478,0 0,-332 -478,0 0,332 z"
           style="fill:#84848b;fill-opacity:1;fill-rule:evenodd;stroke:none"
           id="path3455"
           inkscape:connector-curvature="0" /></g></g><g
       id="g3457"><g
         id="g3459"
         clip-path="url(#clipPath3461)"><path
           d="m 2784,328 244,0 0,-332 -244,0 0,332 z"
           style="fill:#84848b;fill-opacity:1;fill-rule:evenodd;stroke:none"
           id="path3465"
           inkscape:connector-curvature="0" /></g></g><g
       id="g3467"><g
         id="g3469"
         clip-path="url(#clipPath3471)"><path
           d="m 3046,328 244,0 0,-332 -244,0 0,332 z"
           style="fill:#84848b;fill-opacity:1;fill-rule:evenodd;stroke:none"
           id="path3475"
           inkscape:connector-curvature="0" /></g></g><g
       id="g3477"><g
         id="g3479"
         clip-path="url(#clipPath3481)"><path
           d="m 3308,328 284,0 0,-332 -284,0 0,332 z"
           style="fill:#84848b;fill-opacity:1;fill-rule:evenodd;stroke:none"
           id="path3485"
           inkscape:connector-curvature="0" /></g></g><g
       id="g3487"><g
         id="g3489"
         clip-path="url(#clipPath3491)"><path
           d="m 3594,328 216,0 0,-332 -216,0 0,332 z"
           style="fill:#84848b;fill-opacity:1;fill-rule:evenodd;stroke:none"
           id="path3495"
           inkscape:connector-curvature="0" /></g></g><g
       id="g3497"><g
         id="g3499"
         clip-path="url(#clipPath3501)"><path
           d="m 3730,328 304,0 0,-332 -304,0 0,332 z"
           style="fill:#84848b;fill-opacity:1;fill-rule:evenodd;stroke:none"
           id="path3505"
           inkscape:connector-curvature="0" /></g></g><g
       id="g3507"><g
         id="g3509"
         clip-path="url(#clipPath3511)"><path
           d="m 784,338 348,0 0,-226 -348,0 0,226 z"
           style="fill:#3399cd;fill-opacity:1;fill-rule:evenodd;stroke:none"
           id="path3515"
           inkscape:connector-curvature="0" /></g></g><g
       id="g3517"><g
         id="g3519"
         clip-path="url(#clipPath3521)"><path
           d="m 776,216 348,0 0,-226 -348,0 0,226 z"
           style="fill:#84848b;fill-opacity:1;fill-rule:evenodd;stroke:none"
           id="path3525"
           inkscape:connector-curvature="0" /></g></g></g></svg>