<svg xmlns="http://www.w3.org/2000/svg" viewBox="0 0 335.29 95"><title>Asset 1</title><g id="b17fb016-6c19-42e8-8e36-d595e53cc799" data-name="Layer 2"><g id="c48a2a8c-a4a1-4a02-91bc-11c61b6c3bd6" data-name="Logo"><path d="M134.55,18.44c-1.95,0-4.23-2.24-8-2.24-3.39,0-5.58,1.92-5.58,4.48,0,2.16,1.26,4,6.6,4.73,7.45,1,10.24,3,10.24,6.81,0,5-4.32,8-11.6,8-5.5,0-9.9-2.32-9.9-3.52,0-.89,1-.77,1.86-.77,1.78,0,3.69,2.08,8.35,2.08,3.89,0,5.31-2.24,5.31-4.64,0-3-.71-4.53-5.44-5.09-6.85-.8-10.07-2.65-10.07-6.81,0-4.65,3.89-7.69,10.33-7.69,4.23,0,9.4,2.08,9.4,3.53,0,.64-.85,1.12-1.44,1.12" style="fill:#a1a0a1"/><path d="M148.43,38.48c3.21,0,5.93-2.25,5.93-5.13A3.5,3.5,0,0,0,150.54,30c-2.8,0-6.18,2.24-6.18,4.81a3.89,3.89,0,0,0,4.06,3.69M141,35.35c0-3.29,3.13-5.13,7-5.61s6.18-2,6.18-3.69a4.08,4.08,0,0,0-4.06-4.17h-.68c-2.46,0-3.55,2.41-5.42,2.41-.51,0-1,.08-1-.56,0-1.6,3.38-2.65,6.43-2.65,9,0,8.29,3.13,8.29,10.91v5.85a1.4,1.4,0,0,1-1.53,1.6c-.85,0-2.37-.56-3.72-.56-2.54,0-3.21,1.12-5.92,1.12-3,0-5.59-1.76-5.59-4.65" style="fill:#a1a0a1"/><path d="M170.18,32.15c1.18,0,2.19-.88,2.7-2.56l1.78-6.33a2.64,2.64,0,0,1,2.63-2.08c.25,0,1.44.08,1.52,1.12a7.93,7.93,0,0,1-.6,2.16l-4.82,13.31a2.85,2.85,0,0,1-2.87,2.16c-1.87,0-3-.48-3.81-2.65L162,24.05c-.76-2.08-.34-2.81,1-2.81,1.94,0,2.54.32,3.38,4,1.11,4.73,1.78,6.89,3.82,6.89" style="fill:#a1a0a1"/><path d="M191.88,38.32c3.39,0,6.77-2.65,6.77-7.61,0-5.61-3.3-7.85-6.85-7.85a6.92,6.92,0,0,0-6.85,7.21c0,5.13,2.71,8.26,6.94,8.26m-.08,1.76c-6.26,0-10.16-3.77-10.16-9.54A9.13,9.13,0,0,1,191,21.08c7.1,0,11.08,3.29,11.08,9.54,0,5.77-4,9.46-10.24,9.46" style="fill:#a1a0a1"/><path d="M208.85,16.2c-1.27,0-1.69-.4-1.69-1s.42-1,1.35-1,1.69.25,1.69,1c0,.64-.84,1-1.35,1M210.63,37c0,1.84-.59,2.81-1.77,2.81-1.86,0-2.12-.48-2.12-4.17V24.21c0-1.92.43-2.89,1.86-2.89,2,0,2,.88,2,4.33V37Z" style="fill:#a1a0a1"/><path d="M225.73,21.57c.68,0,1.44.08,1.44,1.28,0,1-1.44,1.2-2.79,1.92a7.23,7.23,0,0,0-2.79,1.93,5.75,5.75,0,0,0-1.19,3.52v6.89c0,1.84-.59,2.72-1.69,2.72-2.2,0-2.54-.48-2.54-3.85V23.89c0-1.84.68-2.81,2.12-2.81,1.19,0,3.64.65,4.06.65,1.36,0,2.21-.16,3.39-.16" style="fill:#a1a0a1"/><path d="M239.92,30.48a2.08,2.08,0,0,1-2.28,2.34h-2.79a2.17,2.17,0,0,1-2.2-2.34c0-1.37.68-2.22,1.94-2.22h3.22a2,2,0,0,1,2.11,2.22" style="fill:#a1a0a1"/><path d="M255.09,16.75a4.12,4.12,0,0,0-.93,2,2.53,2.53,0,0,0,.43,1.28c.25.4,1.6,1.2,1.6,1.93s-.51.64-1.6,1.6A4.7,4.7,0,0,0,253,27v8.25c0,3.69-.33,4.33-2,4.33s-2-.65-2-4.33l-.09-8.1a4.64,4.64,0,0,0-1.19-3.36c-.51-.64-1.52-1.12-1.52-1.77,0-.8.6-.8,1.52-1.92.43-.56.59-.93,1.87-4.09.42-1,1.44-2.52,4.74-2.52,1.86,0,2.45.52,2.45,1.4s.09.57-1.6,1.85" style="fill:#a1a0a1"/><path d="M266.86,38.48c3.22,0,5.93-2.25,5.93-5.13A3.51,3.51,0,0,0,269,30c-2.79,0-6.18,2.24-6.18,4.81a3.89,3.89,0,0,0,4.06,3.69m-7.45-3.13c0-3.29,3.13-5.13,7-5.61s6.18-2,6.18-3.69a4.08,4.08,0,0,0-4.06-4.17h-.68c-2.45,0-3.56,2.41-5.41,2.41-.51,0-1,.08-1-.56,0-1.6,3.39-2.65,6.43-2.65,9,0,8.3,3.13,8.3,10.91v5.85c0,1-.51,1.6-1.52,1.6-.85,0-2.37-.56-3.73-.56-2.54,0-3.22,1.12-5.93,1.12-3,0-5.58-1.76-5.58-4.65" style="fill:#a1a0a1"/><path d="M284,16.2c-1.27,0-1.69-.4-1.69-1s.42-1,1.35-1,1.69.25,1.69,1c0,.64-.84,1-1.36,1M285.82,37c0,1.84-.59,2.81-1.78,2.81-1.85,0-2.11-.48-2.11-4.17V24.21c0-1.92.43-2.89,1.86-2.89,2,0,2,.88,2,4.33Z" style="fill:#a1a0a1"/><path d="M300.08,21.57c.68,0,1.44.08,1.44,1.28,0,1-.59,1.2-1.94,1.92a7.25,7.25,0,0,0-2.8,1.93,5.75,5.75,0,0,0-1.18,3.52v6.89c0,1.84-.6,2.72-1.69,2.72-2.2,0-2.54-.48-2.54-3.85V23.89c0-1.84.68-2.81,2.11-2.81,1.18,0,3.64.65,4.06.65,1.36,0,1.36-.16,2.54-.16" style="fill:#a1a0a1"/><path d="M312.94,29.66h1.44c2,0,4-1.44,4-3,0-2-1.69-3.93-4.73-3.93-3.22,0-5.17,1.6-5.17,3.69,0,1.93,1.95,3.29,4.48,3.29m7.54.56-5.34-.08c-5.25,0-7.11.88-7.11,3.6,0,2.41,2.79,4.73,5.67,4.73a5.59,5.59,0,0,0,3-.56l2.2-1.37c.43-.24.51-.56,1.35-.56,2.29,0-.17,4.09-6.77,4.09-5.59,0-9.31-3.6-9.31-9.23,0-5.92,3.22-9.78,9.31-9.78,7.28,0,8.89,5.61,8.89,7.7,0,1-.51,1.44-1.86,1.44" style="fill:#a1a0a1"/><path d="M128.33,73.49c1.82,1.83,8,2.26,19.57,2.26,2.88,0,4.86.76,4.86,2.27,0,1.84-1.67,2.81-4.86,2.81h-26c-2.89,0-4.4-1-4.4-3.67V50.59c0-2.26,1.67-3.34,4.56-3.34,3.35,0,4.71,1.18,4.71,3.34-.15,22.86-.15,21.17,1.52,22.9" style="fill:#56b0c9"/><path d="M170.23,77.79c0,2.05-1.4,3-3.69,3-2,0-3.3-.43-3.3-5.39V50.87c0-1.83,1.47-2.91,3.49-2.91,2.43,0,3.48,1,3.49,5.27V77.79Z" style="fill:#56b0c9"/><path d="M192.5,50.13l9.87,12.67c4,5.16,8.65,6.73,11.69,6.73,3.8,0,5.93-2.69,5.93-6V50.58c0-1.57.6-2.35,2-2.35,1.22,0,1.82,1.12,1.82,3.25V78.72c0,1.69-.91,2.58-2.89,2.58h-1.21a6,6,0,0,1-4.56-2L200.24,63.92c-1.68-2.13-4.1-3.81-6.38-3.81-4.1,0-6.23,2.24-6.23,6.17v12c0,1.57-.3,2.81-2,2.81-1.22,0-1.82-.79-1.82-3.25V50.58c0-1.68.76-2.58,2.27-2.58h2a4.82,4.82,0,0,1,4.41,2.13" style="fill:#56b0c9"/><path d="M243.53,51.28V69.07c0,5.82,5,9.81,12.61,9.81s12.61-4,12.61-9.81V51.28c0-2.27.61-3.56,3.5-3.56,2.58,0,3.65.54,3.65,5.06V68.64c0,6.15-4.25,13.58-19.75,13.58-14.59,0-19.75-6.25-19.75-13.58V51.28c0-2.05.76-3.45,2.43-3.45h2c1.82,0,2.73,1.19,2.73,3.45" style="fill:#56b0c9"/><path d="M314.09,49.55c1.07-1.07,2.43-2.05,6.23-2.05,1.67,0,2.58.1,2.58,1.08s-.77,1.84-4.26,5.07c-6.54,6-7.3,7.54-7.3,9.48s1.52,3.56,2.44,4.53c11.85,12,12.15,11.85,12.15,12.82s-.77,1.19-2.89,1.19c-4.56,0-5.48-.54-10.64-6.57-3.64-4.31-5.77-5.39-7.75-5.39-3.65,0-5,.86-10.18,6.9-4.56,5.28-6.23,5.06-9.27,5.06-2,0-3-.43-3-1.19s2.13-2.48,4.71-5.17c-2.59,2.59,7.74-7.65,8.2-8.19a6.71,6.71,0,0,0,2-4c0-1.29-1.37-3.44-2.13-4.21l-8.36-8.3c-3-2.91-.15-3.13.91-3.13,5.17,0,5.48.22,10,5.4,2.28,2.59,4.25,3.78,6.53,3.78a7.45,7.45,0,0,0,5-1.83c1.53-1.4,3.35-3.66,5-5.28" style="fill:#56b0c9"/><path d="M334,49a4.94,4.94,0,0,0-8.5,3.38,4.92,4.92,0,0,0,8.31,3.51,4.82,4.82,0,0,0,1.5-3.54A5,5,0,0,0,334,49Zm.56,3.46a4.16,4.16,0,0,1-4.17,4.25,3.94,3.94,0,0,1-2.94-1.27,4.69,4.69,0,0,1-1.17-3.21,4.12,4.12,0,0,1,4.2-4.22,3.9,3.9,0,0,1,2.92,1.29A4.67,4.67,0,0,1,334.54,52.49Z" style="fill:#56b0c9"/><path d="M331.09,50h-1.52c-.88,0-1,.4-1,1.28V54c0,.17,0,.67.36.67s.3-.3.32-.49a.74.74,0,0,0,0-.08c.08-.53.34-.87.67-.87s.73.4,1.06,1,.38.5.52.5a.2.2,0,0,0,.22-.23,1.36,1.36,0,0,0-.13-.41,1.9,1.9,0,0,1-.18-.62,1.23,1.23,0,0,1,.45-1,1.49,1.49,0,0,0,.55-1.26A1.36,1.36,0,0,0,331.09,50Zm.32,1.45c0,.51-.43.86-1.05.86a.9.9,0,0,1-.95-.89,1,1,0,0,1,1-.89A1,1,0,0,1,331.41,51.49Z" style="fill:#56b0c9"/><path d="M51.56.18A47.5,47.5,0,1,0,94.82,51.56,47.5,47.5,0,0,0,51.56.18" style="fill:#56b0c9"/><path d="M83.46,61.93c-1.09,1.24-6.66-5.69-10-6.69-4-1.22-8.68-3.27-12.11-4.7a62.78,62.78,0,0,1,1.36,12.76c-.09,9.31-3.41,20.07-13.65,20.07S33.42,75,34.95,65.79c.82-4.9,2.44-10.9,2.27-11.05a17.26,17.26,0,0,0-3-.15c-1.81.07-2.92.59-5.2.83a25,25,0,0,0-8,2.77c-3.53,1.73-7,7.27-8.09,5.56-1.59-2.5,3.92-13,10.55-17.63,6-4.15,9.58-6.19,11.06-7.43s3-2.6,3.41-4.2a9.07,9.07,0,0,0-.68-4c-.32-1-1.53-2.91-2.44-5.46A8.42,8.42,0,0,1,37,16.65c2.37-2.48,8-2.64,11.25-2.57s1.8-.24,4.47-.72a7.14,7.14,0,0,1,5.28.77,1.38,1.38,0,0,1-.56,1.28c-.61.36-1.54,1.14-3,2s-3,2.87-4.42,4.42a5.75,5.75,0,0,0-1.28,5.26c.36,1.36,2.32,3,3.53,4.43,1.76,1.51,3.63,3,3.63,3a106.93,106.93,0,0,1,11,6.8c14.56,10.2,18.91,17.77,16.44,20.64" style="fill:#fff"/></g></g></svg>