<svg id="Layer_1" data-name="Layer 1" xmlns="http://www.w3.org/2000/svg" viewBox="0 0 428 144"><defs><style>.cls-1{fill:#231f20;}.cls-2{fill:#942687;}</style></defs><title>te-logo</title><path class="cls-1" d="M166,63l6.46,0c-.08,4-.16,7.93-.16,11.92,0,2.81,1.31,5.32,3.92,5.32,2.85,0,5.11-2.78,5.15-6.51l.08-7.6h-2.12V63l6.42-.05-.08,16.87h2.2v3.15h-6.42a27.38,27.38,0,0,1,.38-4.42h-.08c-.8,3-3.84,4.88-7,4.88-4.26,0-6.76-3-6.76-7.64,0-3.27,0-6.45.16-9.64H166Z"/><path class="cls-1" d="M210.49,66.11l-4.45-.9a8,8,0,0,1,2.26,5c0,4.26-3.81,7.1-8.11,7.1h-1.61c-1.08,0-2.19.73-2.19,1.5,0,.92,1,1.08,3.38,1.42L205,81c2.81.39,5.26,1.46,5.26,4.8,0,5.42-5.3,7.26-10.52,7.26-5.42,0-9.37-2-9.37-5.3,0-2.69,2.15-4.38,4.65-4.72v-.08c-1.5-.31-2.92-1.15-2.92-3,0-2.07,2.11-3,3.8-3.26v-.08a6.36,6.36,0,0,1-5.07-6.53c0-4.34,3.23-7.6,8.91-7.6a16.22,16.22,0,0,1,3.53.46h7.38Zm-12.87,17.4c-2,.84-3.72,1.8-3.72,3.34,0,2.3,3,3,6.25,3,2.88,0,6.54-.8,6.54-3.34,0-1.42-1.7-1.92-4.08-2.26Zm2.34-9a4.46,4.46,0,0,0,4.73-4.73c0-2.69-1.85-4.5-5-4.5A4.55,4.55,0,0,0,194.89,70C194.89,72.87,196.77,74.56,200,74.56Z"/><path class="cls-1" d="M212.46,79.78h2.27l.15-23.24h-2.39V53.39l6.85,0L219.22,63a28.48,28.48,0,0,1-.5,4.41h.08a6.9,6.9,0,0,1,7-4.87c4.69,0,6.95,3,6.95,7.72,0,3.19-.11,6.37-.15,9.56h2.61v3.15h-8.69V79.78h1.78c0-2.92.15-5.88.15-8.79s-1.35-5.45-4.07-5.45c-3,0-5.15,2.91-5.23,6.64l-.15,7.6h2.2v3.15h-8.77Z"/><path class="cls-1" d="M120,79.78h2.27l.15-23.24H120V53.39l6.85,0L126.72,63a28.48,28.48,0,0,1-.5,4.41h.08a6.89,6.89,0,0,1,7-4.87c4.68,0,6.95,3,6.95,7.72,0,3.19-.12,6.37-.15,9.56h2.61v3.15h-8.69V79.78h1.77c0-2.92.16-5.88.16-8.79s-1.35-5.45-4.08-5.45c-3,0-5.14,2.91-5.22,6.64l-.15,7.6h2.2v3.15H120Z"/><path class="cls-1" d="M243.15,63h5.23v3.15h-5.23c0,3.19-.07,6.34-.07,9.33,0,3.65.36,4.94,2.36,4.94a12.21,12.21,0,0,0,3.78-1.14l-.15,3.15a10.41,10.41,0,0,1-4.42,1c-4.22,0-5.88-1.65-5.88-6.14,0-2.58.08-7.69.12-11.14h-3V63h3"/><polyline class="cls-1" points="238.96 63.28 238.81 58.48 243.15 58.79 243.22 63.28"/><path class="cls-1" d="M111.47,63h5.23v3.15h-5.23c0,3.19-.07,6.34-.07,9.33,0,3.65.36,4.94,2.36,4.94a12.21,12.21,0,0,0,3.78-1.14l-.15,3.15a10.41,10.41,0,0,1-4.42,1c-4.22,0-5.88-1.65-5.88-6.14,0-2.58.08-7.69.12-11.14h-3V63h3"/><polyline class="cls-1" points="107.28 63.28 107.13 58.48 111.47 58.79 111.55 63.28"/><path class="cls-1" d="M154,62.5c7.38,0,9.36,5.64,9.36,10.56,0,5.68-3,10.33-9.85,10.33-7.15,0-9.54-5-9.54-10C144,66.84,147.93,62.5,154,62.5Zm-.38,17.76c3.92,0,5.65-3.74,5.65-7.66,0-4.5-2.35-7.1-5.34-7.1-4.27,0-5.84,4.18-5.84,7.71C148.12,76.55,149.77,80.26,153.65,80.26Z"/><path class="cls-1" d="M267.47,81.89a13.9,13.9,0,0,1-6.3,1.5c-6.41,0-9.68-4.11-9.68-10.68,0-5.45,3.08-10,8.68-10,6.5,0,8.26,5.34,8.26,10.14H253.09c.07,5.61,3.2,8.68,8.39,8.68a13,13,0,0,0,6.07-1.65Zm-1.19-10.71c0-3.54-1.92-6.61-6.22-6.61a6.92,6.92,0,0,0-7,6.61Z"/><polygon class="cls-1" points="265.63 81.72 265.65 80.61 265.78 77.8 267.62 77.83 267.48 81.87 265.63 81.72"/><path class="cls-1" d="M270.54,81.24h1.63l6.53-8.37-5.95-8h-2.2V63.19h6.66v1.69h-2.27a8.4,8.4,0,0,1,.92,1.07l4.07,5.54L284.08,66a8.4,8.4,0,0,1,.92-1.07h-2.54V63.19h6.47v1.69H287l-6,7.87,6.37,8.49h1.55v1.69h-6.05V81.24H285a6.93,6.93,0,0,1-.88-1.08l-4.38-5.91-4.5,5.91a7.21,7.21,0,0,1-.92,1.08h2.31v1.69h-6.13Z"/><path class="cls-1" d="M353,81.24h2.46l.08-16.36h-2.6V63.19l4.65,0a27.61,27.61,0,0,1-.46,4.75h.07a7,7,0,0,1,7.22-5.18c3.69,0,6.65,1.69,6.65,7.72,0,3.61-.11,7.18-.15,10.79h2.62v1.69h-7.09V81.24h2.47c0-3.57.15-7.1.15-10.68,0-4-1.53-6-5.11-6-4,0-6.37,3.57-6.41,7.3l-.08,9.37h2.62v1.69H353Z"/><path class="cls-1" d="M395,65.31l-1.81-.24c-1-.09-2.29-.3-3.29-.34,0,0,2.86,2.49,2.86,5.33a7,7,0,0,1-7.33,7.19c-3.19,0-4.69,1.11-4.69,2.19s1.19,1.49,3.23,1.84l6.37,1.15c2.42.42,4.77,1.15,4.77,4.46,0,2.72-2.23,6.14-9.45,6.14-5.11,0-9.07-1.76-9.07-5.34,0-2.49,2.5-4.61,5.26-5v-.08c-1.3-.31-3.11-1-3.11-3s2-2.76,3.54-3v-.08a6.35,6.35,0,0,1-5-6.53,7.24,7.24,0,0,1,7.64-7.41,7.89,7.89,0,0,1,3.34.61H395ZM383.86,83.16c-1.73.31-5.63,1.5-5.63,4.3,0,1.89,2.79,3.88,7.51,3.88,3.54,0,7.66-1.19,7.66-4.3,0-2-1.74-2.53-3.93-3ZM385.09,76c3.5,0,5.65-2.62,5.65-5.92a5.74,5.74,0,0,0-5.88-5.89A5.64,5.64,0,0,0,379.21,70,5.72,5.72,0,0,0,385.09,76Z"/><path class="cls-1" d="M412.54,81.89a13.9,13.9,0,0,1-6.3,1.5c-6.41,0-9.68-4.11-9.68-10.68,0-5.45,3.07-10,8.68-10,6.49,0,8.26,5.34,8.26,10.14H398.16c.07,5.61,3.2,8.68,8.39,8.68a13,13,0,0,0,6.07-1.65Zm-1.19-10.71c0-3.54-1.92-6.61-6.22-6.61a6.92,6.92,0,0,0-7,6.61Z"/><polygon class="cls-1" points="410.72 81.7 410.74 80.59 410.87 77.78 412.71 77.81 412.56 81.85 410.72 81.7"/><path class="cls-1" d="M304.43,65.19a12.7,12.7,0,0,0-4.26-.62c-5,0-8.07,3.5-8.07,8.49s3,8.49,8.07,8.49a13.56,13.56,0,0,0,6-1.15v1.95a15.65,15.65,0,0,1-6.07,1c-6.42,0-9.53-4.68-9.53-10.33s3.23-10.33,9.72-10.33a16.16,16.16,0,0,1,6,1v4.31h-1.84Z"/><path class="cls-1" d="M309,81.24h2.47l.15-26.16H309V53.39h4.67l-.08,11a13.24,13.24,0,0,1-.42,3.49h.08a7,7,0,0,1,7.22-5.18c3.69,0,6.64,1.69,6.64,7.72,0,3.61-.11,7.18-.15,10.79h2.62v1.69h-7.08V81.24h2.46c0-3.57.16-7.1.16-10.68,0-4-1.54-6-5.11-6-4,0-6.38,3.57-6.42,7.3l-.07,9.37h2.62v1.69H309Z"/><path class="cls-1" d="M349.81,82.93h-4.65a30.5,30.5,0,0,1,.42-4.49h-.08c-1.07,2.84-2.84,5-6.45,5s-6.26-1.73-6.26-5.49,3-5.45,7.11-5.72l5.33-.35c0-.61.08-1.19.08-1.8,0-3.19-.88-5.46-5.14-5.46a14.14,14.14,0,0,0-4.61.77l-.08,2.81h-1.85l.08-4a14.82,14.82,0,0,1,6.76-1.38c5.3,0,6.76,3,6.76,6.3,0,4.64-.11,8.45-.15,12.21h2.73Zm-10.45-1.38a5.42,5.42,0,0,0,4.3-2.08c1.38-1.76,1.58-3.66,1.58-6.43-7,.19-10.3.9-10.3,4.82C334.94,80.05,336.55,81.55,339.36,81.55Z"/><path class="cls-2" d="M83.84,88.52h0Z"/><path class="cls-2" d="M83.48,43.28H34.1v16H18.16v1.88h0V92A5.87,5.87,0,0,0,24,97.88h8.16l-4.55,24.18L52.52,97.88h31A5.87,5.87,0,0,0,89.34,92V49.15A5.88,5.88,0,0,0,83.48,43.28ZM80,92.42H50.1l-18.23,21L39.4,92.4h-12l-4,.26.25-4.14V63.9H34.1V76.38h0a2.31,2.31,0,0,0,4.62,0h0V63.9H51.19a2.31,2.31,0,0,0,0-4.62H38.72V48.77h41.4L84,48.55l-.15,4c0,1,0,34.9,0,36l.2,4.12Z"/></svg>