<?xml version="1.0" encoding="UTF-8"?>
<svg width="588px" height="263px" viewBox="0 0 588 263" version="1.1" xmlns="http://www.w3.org/2000/svg" xmlns:xlink="http://www.w3.org/1999/xlink">
    <!-- Generator: Sketch 47.1 (45422) - http://www.bohemiancoding.com/sketch -->
    <title>Artboard 4</title>
    <desc>Created with Sketch.</desc>
    <defs>
        <polygon id="path-1" points="0.249226147 68.0528348 65.8924351 68.0528348 65.8924351 0.442621193 0.249226147 0.442621193"></polygon>
        <polygon id="path-3" points="0 81.588752 0 0.478105886 43.7230436 0.478105886 43.7230436 81.588752"></polygon>
        <polygon id="path-5" points="18.0548337 0.492827519 18.0548337 18.1074011 0.440468501 18.1074011 0.440468501 0.492827519 18.0548337 0.492827519"></polygon>
    </defs>
    <g id="Final---1242-x-2208" stroke="none" stroke-width="1" fill="none" fill-rule="evenodd">
        <g id="Artboard-4">
            <g id="Page-1" transform="translate(93.500000, 89.500000)">
                <path d="M57.1158415,16.2892793 L68.3480314,16.2892793 C69.2264685,16.2892793 69.93894,17.0017508 69.93894,17.8801879 L69.93894,21.596706 C69.93894,21.9779408 70.4069768,22.1675165 70.6666887,21.8876666 C74.7762466,17.4704821 80.1676977,15.3719549 86.8424308,15.3719549 C88.0118285,15.3719549 89.1201176,15.4351468 90.1666035,15.5594474 C90.9630994,15.6538881 91.558909,16.3351108 91.558909,17.1378565 L91.558909,29.0422417 C91.558909,29.922762 90.7526912,30.5720416 89.8902257,30.3949654 C88.2548744,30.0595621 86.374394,29.9199844 84.3522526,29.9199844 C78.3295767,29.9199844 73.0582597,32.1761442 70.1319878,37.4245454 C70.0028263,37.6564806 69.93894,37.9210534 69.93894,38.1863205 L69.93894,80.2145014 C69.93894,81.0929385 69.2264685,81.80541 68.3480314,81.80541 L57.1158415,81.80541 C56.2374044,81.80541 55.5249329,81.0929385 55.5249329,80.2145014 L55.5249329,17.8801879 C55.5249329,17.0017508 56.2374044,16.2892793 57.1158415,16.2892793" id="Fill-1" fill="#C7C7C7"></path>
                <g id="Group-5" transform="translate(97.912752, 14.799408)">
                    <mask id="mask-2" fill="white">
                        <use xlink:href="#path-1"></use>
                    </mask>
                    <g id="Clip-4"></g>
                    <path d="M51.4791224,44.8970939 L51.4791224,23.6028064 C51.4791224,23.2757361 51.3791264,22.9563044 51.1909395,22.6882596 C47.5869169,17.5530482 41.0698164,14.2031822 34.0541246,14.2031822 C22.9163755,14.2031822 15.0541898,22.8479754 15.0541898,34.2502974 C15.0541898,45.6470639 22.9163755,54.2974125 34.0541246,54.2974125 C41.0698164,54.2974125 47.5869169,50.94338 51.1909395,45.8123351 C51.3791264,45.5442903 51.4791224,45.2241642 51.4791224,44.8970939 L51.4791224,44.8970939 Z M51.4791224,63.3394122 C51.4791224,62.9130403 50.9958084,62.6706889 50.6520722,62.9227621 C46.1800287,66.1983256 40.4573409,68.0531126 33.9221855,68.0531126 C14.5305996,68.0531126 0.249226147,53.3800881 0.249226147,34.2502974 C0.249226147,15.1205066 14.5305996,0.442621193 33.9221855,0.442621193 C40.4566464,0.442621193 46.1793343,2.41545899 50.6513778,5.70491081 C50.9944196,5.95767848 51.4791224,5.71532706 51.4791224,5.28895522 L51.4791224,3.08071017 C51.4791224,2.20227307 52.191594,1.48980155 53.0700311,1.48980155 L64.3022209,1.48980155 C65.180658,1.48980155 65.8924351,2.20227307 65.8924351,3.08071017 L65.8924351,65.4150236 C65.8924351,66.2934607 65.180658,67.0059322 64.3022209,67.0059322 L53.0700311,67.0059322 C52.191594,67.0059322 51.4791224,66.2934607 51.4791224,65.4150236 L51.4791224,63.3394122 Z" id="Fill-3" fill="#C7C7C7" mask="url(#mask-2)"></path>
                </g>
                <path d="M177.755463,16.2892793 L188.987653,16.2892793 C189.86609,16.2892793 190.578561,17.0017508 190.578561,17.8801879 L190.578561,21.1849169 C190.578561,21.6411487 191.124373,21.8751671 191.454221,21.5599019 C196.022094,17.2038261 202.530167,15.242099 208.922967,15.242099 C225.170928,15.242099 235.521209,26.509704 235.521209,43.4159726 L235.521209,80.2145014 C235.521209,81.0929385 234.808737,81.80541 233.9303,81.80541 L222.698111,81.80541 C221.819673,81.80541 221.107202,81.0929385 221.107202,80.2145014 L221.107202,43.6756844 C221.107202,36.6009673 215.867828,29.0026599 206.170993,29.0026599 C198.915034,29.0026599 193.324979,32.7177892 190.666058,40.2744315 C190.607032,40.4424803 190.578561,40.620251 190.578561,40.7980217 L190.578561,80.2145014 C190.578561,81.0929385 189.86609,81.80541 188.987653,81.80541 L177.755463,81.80541 C176.877026,81.80541 176.164554,81.0929385 176.164554,80.2145014 L176.164554,17.8801879 C176.164554,17.0017508 176.877026,16.2892793 177.755463,16.2892793" id="Fill-6" fill="#C7C7C7"></path>
                <path d="M245.877184,68.624687 L254.290736,62.6138162 C255.023346,62.0909204 256.044833,62.2791073 256.540646,63.0304662 C259.503722,67.51987 263.077885,70.0142147 269.035286,70.0142147 C274.015642,70.0142147 277.421062,67.5212589 277.421062,63.9859835 C277.421062,60.1875243 274.668394,57.9591411 268.643635,55.7300636 L264.057013,53.8954147 C252.919263,49.5733653 248.070152,42.6285041 248.070152,33.7184436 C248.070152,23.1042846 256.982295,15.242099 269.167225,15.242099 C277.077325,15.242099 283.938162,18.1565658 288.760192,25.3076688 C289.249061,26.0326398 289.070596,27.0159338 288.350486,27.5131361 L280.370944,33.0268046 C279.646667,33.5267846 278.657123,33.3406809 278.155754,32.6170988 C276.000285,29.5075009 273.120539,28.0846411 269.42902,28.0846411 C265.629866,28.0846411 262.222364,30.0498403 262.222364,33.3254038 C262.222364,36.7301288 264.450747,38.8293504 270.60814,41.3174454 L275.323923,43.0215439 C286.332511,47.3449822 292.489904,53.1079462 292.489904,63.3283709 C292.489904,74.8605488 282.924314,82.8518959 269.035286,82.8518959 C259.187068,82.8518959 250.88115,79.0562144 245.470256,70.791267 C245.002913,70.0767122 245.182767,69.1205005 245.877184,68.624687" id="Fill-8" fill="#C7C7C7"></path>
                <path d="M305.11051,16.2892793 L316.3427,16.2892793 C317.221137,16.2892793 317.933609,17.0017508 317.933609,17.8801879 L317.933609,80.2145014 C317.933609,81.0929385 317.221137,81.80541 316.3427,81.80541 L305.11051,81.80541 C304.232073,81.80541 303.519602,81.0929385 303.519602,80.2145014 L303.519602,17.8801879 C303.519602,17.0017508 304.232073,16.2892793 305.11051,16.2892793" id="Fill-10" fill="#C7C7C7"></path>
                <path d="M329.880909,16.2892793 L337.984057,16.2892793 C338.686112,16.2892793 339.255534,15.7198576 339.255534,15.0178024 L339.255534,2.28497809 C339.255534,1.40654099 339.967311,0.69476389 340.845748,0.69476389 L352.077244,0.69476389 C352.956375,0.69476389 353.668152,1.40654099 353.668152,2.28497809 L353.668152,15.0178024 C353.668152,15.7198576 354.237574,16.2892793 354.939629,16.2892793 L370.422343,16.2892793 C371.300781,16.2892793 372.012558,17.0017508 372.012558,17.8801879 L372.012558,27.5416072 C372.012558,28.4200443 371.300781,29.1318214 370.422343,29.1318214 L354.939629,29.1318214 C354.237574,29.1318214 353.668152,29.7012431 353.668152,30.4032984 L353.668152,58.8764656 C353.668152,65.5574485 355.503495,68.5733001 362.971252,68.5733001 L370.422343,68.5733001 C371.300781,68.5733001 372.012558,69.2857716 372.012558,70.1642088 L372.012558,80.2145014 C372.012558,81.0929385 371.300781,81.80541 370.422343,81.80541 L359.301955,81.80541 C346.723291,81.80541 339.255534,74.3362642 339.255534,61.8874563 L339.255534,30.4032984 C339.255534,29.7012431 338.686112,29.1318214 337.984057,29.1318214 L329.880909,29.1318214 C329.002472,29.1318214 328.29,28.4200443 328.29,27.5416072 L328.29,17.8801879 C328.29,17.0017508 329.002472,16.2892793 329.880909,16.2892793" id="Fill-12" fill="#C7C7C7"></path>
                <g id="Group-16" transform="translate(0.000000, 0.216658)">
                    <mask id="mask-4" fill="white">
                        <use xlink:href="#path-3"></use>
                    </mask>
                    <g id="Clip-15"></g>
                    <path d="M1.59070029,16.0726213 L9.69384855,16.0726213 C10.3959038,16.0726213 10.9653255,15.5031996 10.9653255,14.8011444 L10.9653255,2.06832009 C10.9653255,1.18988298 11.6771026,0.478105886 12.5555397,0.478105886 L23.7870351,0.478105886 C24.6661666,0.478105886 25.3779437,1.18988298 25.3779437,2.06832009 L25.3779437,14.8011444 C25.3779437,15.5031996 25.9473654,16.0726213 26.6494207,16.0726213 L42.132135,16.0726213 C43.0105721,16.0726213 43.7230436,16.7850928 43.7230436,17.6635299 L43.7230436,27.3249492 C43.7230436,28.2033863 43.0105721,28.9151634 42.132135,28.9151634 L26.6494207,28.9151634 C25.9473654,28.9151634 25.3779437,29.4845851 25.3779437,30.1866404 L25.3779437,58.6598076 C25.3779437,65.3407905 27.213287,68.3566421 34.681044,68.3566421 L42.132135,68.3566421 C43.0105721,68.3566421 43.7230436,69.0691136 43.7230436,69.9475507 L43.7230436,79.9978434 C43.7230436,80.8762805 43.0105721,81.588752 42.132135,81.588752 L31.0117463,81.588752 C18.4330825,81.588752 10.9653255,74.1196062 10.9653255,61.6707983 L10.9653255,30.1866404 C10.9653255,29.4845851 10.3959038,28.9151634 9.69384855,28.9151634 L1.59070029,28.9151634 C0.712263191,28.9151634 -0.000208325005,28.2033863 -0.000208325005,27.3249492 L-0.000208325005,17.6635299 C-0.000208325005,16.7850928 0.712263191,16.0726213 1.59070029,16.0726213" id="Fill-14" fill="#C7C7C7" mask="url(#mask-4)"></path>
                </g>
                <g id="Group-19" transform="translate(381.929175, 13.410575)">
                    <mask id="mask-6" fill="white">
                        <use xlink:href="#path-5"></use>
                    </mask>
                    <g id="Clip-18"></g>
                    <path d="M0.440468501,9.3001143 C0.440468501,4.43572544 4.38336642,0.492827519 9.24775528,0.492827519 C14.1114497,0.492827519 18.0550421,4.43572544 18.0550421,9.3001143 C18.0550421,14.1645032 14.1114497,18.1074011 9.24775528,18.1074011 C4.38336642,18.1074011 0.440468501,14.1645032 0.440468501,9.3001143" id="Fill-17" fill="#C7C7C7" mask="url(#mask-6)"></path>
                </g>
            </g>
        </g>
    </g>
</svg>