<svg xmlns="http://www.w3.org/2000/svg" viewBox="0 0 400 132.07"><title>Asset 1</title><g id="f59fa554-8177-4fcb-9f3e-bea42214a152" data-name="Layer 2"><g id="571219ac-4049-4080-b26e-bef3773ae8de" data-name="svg2988"><g id="d63a57ec-efa5-422e-abb5-384d73bb290d" data-name="g2946"><g id="9a86dad7-f1fd-4e63-aa86-f8af7043185b" data-name="g2952"><path id="153fb940-407e-43b4-85e8-d91cdc5e9db3" data-name="path2954" d="M142.77,30.28c-20.79-.1-28.48,19.5-28.58,39-.11,20.81,10.69,37.23,28.31,37.35,18,.12,28.32-16.38,29-37.39.65-19.72-7.71-38.87-28.74-39m65.13,98.44c-8.11.9-14.28,1.73-22.74,3.35-6.54-2.15-31.19-12.47-44.85-16.75C104.35,115,93.11,90,93.15,69.39c0-23.73,15.87-47.19,49.54-47.16,35.38,0,50.06,23.54,50,47.06-.09,20.93-15.66,40-33.19,43.38a20.09,20.09,0,0,1,5.88,1.24c2.81.9,36.36,11.72,42.55,13.75Z" style="fill:#004e83"/></g><g id="8558db22-11ef-4c70-86a1-f0a1fd26aa64" data-name="g2956"><path id="5a54b3e9-9f77-490a-82d0-fd12bee07847" data-name="path2958" d="M249.83,77.2,236.89,45.1,224.62,77.2Zm-29,9.64L210.7,113.22h-15C200.13,102.27,233.28,28,234.9,24h10.28c2.84,5.27,36.49,81.35,40.14,89.25h-21L253.66,86.84Z" style="fill:#004e83"/></g></g><g id="fa133279-006a-4996-9470-d79f357aa743" data-name="g2962"><g id="d93ff5d2-ce5e-4036-bae1-0294d80e0235" data-name="g2968"><path id="6b69eeea-033a-454e-9a23-8bd905d4406b" data-name="path2970" d="M346.54,84.13,317.62,24H305.45l-12.19,89.25H308l5.27-58.76c2.23,3.24,26.63,56,27.85,58.89H347l26.78-58.89,5.08,58.76H400L388.54,24h-13Z" style="fill:#004e83"/></g><g id="d1963595-276b-48d2-833f-b995546a4d34" data-name="g2972"><path id="3ce76501-df61-4345-a0c2-fabd0f01d412" data-name="path2974" d="M63.71,24V74.15c0,12.86-2.81,30.1-22,30.12-12.22,0-21.63-6.66-21.65-23.08,0-4.46,0-55.4,0-57.23H0C0,32.88,0,72.69,0,80.8c.07,23.06,17.84,33.82,39.26,34C67.11,115,79.5,98.87,79.55,79.88c0-13.18,0-55.92,0-55.92Z" style="fill:#004e83"/></g></g><g id="95edc80b-a8bf-4cff-ae6b-d6afa226faca" data-name="g2978"><g id="9cf93928-db7f-4f93-9fdd-74bf7e612667" data-name="g2984"><path id="038c081e-ea54-43ab-b75a-302dc0a1d4e3" data-name="path2986" d="M196.88,3.35c8-1,16.13-2.46,21.54-3.35,5,1.67,35.94,13.47,42,15.3v.87a120.3,120.3,0,0,0-15.31,3.59C240.41,18.23,201,5.42,196.88,4.2Z" style="fill:#004e83"/></g></g></g></g></svg>