<svg xmlns="http://www.w3.org/2000/svg" viewBox="0 0 629.9 144"><title>Asset 1</title><g id="6c7d3a17-197a-463d-a126-6e1436e6dc43" data-name="Layer 2"><g id="5f391ae9-3276-4934-8e69-f4a4d0fc2b0a" data-name="Layer 1"><path d="M531.26,25.38l-32.51,85.34c-3.11,8.31-7.17,9.48-13.17,9.48s-10.06-1.18-13.16-9.48L440.12,25.38h18.57l27.11,72,26.87-72h18.6M391,102.68c-16.6,0-30-13.9-30-31s13.44-31,30-31,30,13.9,30,31-13.45,31-30,31ZM438.52,72c0-.05,0-.1,0-.16v-.07c-.13-27.08-21.37-49-47.61-49s-47.61,22-47.61,49.22,21.32,49.19,47.61,49.19a46.49,46.49,0,0,0,30.56-11.48v11.39h17v-49s0-.11,0-.14Zm143.2-32.32c10.44,0,15.27,3.1,21.08,8.91L551.71,77.08a38.3,38.3,0,0,1-.4-5.25c0-19,12.8-32.14,30.41-32.14ZM612,78.46c-3.8,15.14-11.65,25.48-30.32,25.48-10.48,0-19.23-4.68-24.6-12.43L626.6,52.86c-8.7-18-23.22-29.41-44.88-29.41-25.75,0-48.22,19.74-48.22,48.38S556,120.2,581.72,120.2c26.17,0,45.6-17.88,48.17-41.74ZM324.64,25.41l-26.89,72-27.1-72H252.08l0,.05h0l-26.89,72-27.09-72H179.53l32.31,85.33c3.1,8.32,7.17,9.48,13.17,9.48s10-1.16,13.14-9.48L261.37,49.9l23,60.83c3.1,8.33,7.16,9.5,13.16,9.5s10.07-1.17,13.17-9.5l32.51-85.32H324.64" style="fill:#203640"/><path d="M111,125.09a45.83,45.83,0,0,1-18.67-4,48.34,48.34,0,0,1-19.13-72,46,46,0,0,0-18.68-3.94c-20.69,0-41.46,15.53-45.46,35.73-4.31,21.78,7,40.33,25.45,52a74.12,74.12,0,0,0,15.59,7.61,67.65,67.65,0,0,0,8.81,2.31c.69.13,1.38.27,2.07.37l.16,0a72.33,72.33,0,0,0,10.64.81,70.75,70.75,0,0,0,35.86-9.44l1.88-1.09a72.57,72.57,0,0,0,11.86-9.08,75.78,75.78,0,0,1-10.39.7" style="fill:#017e91"/><path d="M86.63,1.49l-.23,0c-1-.2-2-.37-3-.53L82.15.73C81.37.62,80.59.51,79.8.43S78.38.3,77.67.25,76.55.15,76,.12C74.67,0,73.34,0,72,0A71.89,71.89,0,0,0,.56,80.86c.56-2.24,1.06-4.11,1.59-5.8A53.87,53.87,0,0,1,80.41,43.24a49.21,49.21,0,0,1,20.74,21,53.64,53.64,0,0,1,6.61,25.86,54.64,54.64,0,0,1-6.39,25.15,54.24,54.24,0,0,0,29.71-2.08l.37-.59a79.17,79.17,0,0,0,6.14-10.93c.16-.36.33-.72.49-1.08s.34-.79.5-1.19c.32-.77.62-1.54.92-2.32l.18-.48q1.11-3.06,1.95-6.24.18-.71.35-1.44c.1-.41.19-.82.29-1.23A78.57,78.57,0,0,0,144,73.89c0-.32,0-.63,0-.95s0-.74,0-1.11A72,72,0,0,0,86.63,1.49" style="fill:#02d9e0"/></g></g></svg>